<?xml version="1.0" encoding="utf-8" standalone="no"?>
<!DOCTYPE svg PUBLIC "-//W3C//DTD SVG 1.1//EN"
  "http://www.w3.org/Graphics/SVG/1.1/DTD/svg11.dtd">
<!-- Created with matplotlib (https://matplotlib.org/) -->
<svg height="345.6pt" version="1.1" viewBox="0 0 460.8 345.6" width="460.8pt" xmlns="http://www.w3.org/2000/svg" xmlns:xlink="http://www.w3.org/1999/xlink">
 <metadata>
  <rdf:RDF xmlns:cc="http://creativecommons.org/ns#" xmlns:dc="http://purl.org/dc/elements/1.1/" xmlns:rdf="http://www.w3.org/1999/02/22-rdf-syntax-ns#">
   <cc:Work>
    <dc:type rdf:resource="http://purl.org/dc/dcmitype/StillImage"/>
    <dc:date>2021-01-13T12:16:54.259412</dc:date>
    <dc:format>image/svg+xml</dc:format>
    <dc:creator>
     <cc:Agent>
      <dc:title>Matplotlib v3.3.3, https://matplotlib.org/</dc:title>
     </cc:Agent>
    </dc:creator>
   </cc:Work>
  </rdf:RDF>
 </metadata>
 <defs>
  <style type="text/css">*{stroke-linecap:butt;stroke-linejoin:round;}</style>
 </defs>
 <g id="figure_1">
  <g id="patch_1">
   <path d="M 0 345.6 
L 460.8 345.6 
L 460.8 0 
L 0 0 
z
" style="fill:#ffffff;"/>
  </g>
  <g id="axes_1">
   <g id="patch_2">
    <path d="M 192.31 303.64 
L 450 303.64 
L 450 28.37625 
L 192.31 28.37625 
z
" style="fill:#ffffff;"/>
   </g>
   <g id="patch_3">
    <path clip-path="url(#p4e16ee02bf)" d="M 192.31 40.888239 
L 437.729048 40.888239 
L 437.729048 46.991648 
L 192.31 46.991648 
z
" style="fill:#1f77b4;"/>
   </g>
   <g id="patch_4">
    <path clip-path="url(#p4e16ee02bf)" d="M 192.31 48.5175 
L 238.326071 48.5175 
L 238.326071 54.620909 
L 192.31 54.620909 
z
" style="fill:#1f77b4;"/>
   </g>
   <g id="patch_5">
    <path clip-path="url(#p4e16ee02bf)" d="M 192.31 56.146761 
L 253.664762 56.146761 
L 253.664762 62.25017 
L 192.31 62.25017 
z
" style="fill:#1f77b4;"/>
   </g>
   <g id="patch_6">
    <path clip-path="url(#p4e16ee02bf)" d="M 192.31 63.776023 
L 269.003452 63.776023 
L 269.003452 69.879432 
L 192.31 69.879432 
z
" style="fill:#1f77b4;"/>
   </g>
   <g id="patch_7">
    <path clip-path="url(#p4e16ee02bf)" d="M 192.31 71.405284 
L 253.664762 71.405284 
L 253.664762 77.508693 
L 192.31 77.508693 
z
" style="fill:#1f77b4;"/>
   </g>
   <g id="patch_8">
    <path clip-path="url(#p4e16ee02bf)" d="M 192.31 79.034545 
L 207.64869 79.034545 
L 207.64869 85.137955 
L 192.31 85.137955 
z
" style="fill:#1f77b4;"/>
   </g>
   <g id="patch_9">
    <path clip-path="url(#p4e16ee02bf)" d="M 192.31 86.663807 
L 238.326071 86.663807 
L 238.326071 92.767216 
L 192.31 92.767216 
z
" style="fill:#1f77b4;"/>
   </g>
   <g id="patch_10">
    <path clip-path="url(#p4e16ee02bf)" d="M 192.31 94.293068 
L 207.64869 94.293068 
L 207.64869 100.396477 
L 192.31 100.396477 
z
" style="fill:#1f77b4;"/>
   </g>
   <g id="patch_11">
    <path clip-path="url(#p4e16ee02bf)" d="M 192.31 101.92233 
L 238.326071 101.92233 
L 238.326071 108.025739 
L 192.31 108.025739 
z
" style="fill:#1f77b4;"/>
   </g>
   <g id="patch_12">
    <path clip-path="url(#p4e16ee02bf)" d="M 192.31 109.551591 
L 269.003452 109.551591 
L 269.003452 115.655 
L 192.31 115.655 
z
" style="fill:#1f77b4;"/>
   </g>
   <g id="patch_13">
    <path clip-path="url(#p4e16ee02bf)" d="M 192.31 117.180852 
L 315.019524 117.180852 
L 315.019524 123.284261 
L 192.31 123.284261 
z
" style="fill:#1f77b4;"/>
   </g>
   <g id="patch_14">
    <path clip-path="url(#p4e16ee02bf)" d="M 192.31 124.810114 
L 315.019524 124.810114 
L 315.019524 130.913523 
L 192.31 130.913523 
z
" style="fill:#1f77b4;"/>
   </g>
   <g id="patch_15">
    <path clip-path="url(#p4e16ee02bf)" d="M 192.31 132.439375 
L 207.64869 132.439375 
L 207.64869 138.542784 
L 192.31 138.542784 
z
" style="fill:#1f77b4;"/>
   </g>
   <g id="patch_16">
    <path clip-path="url(#p4e16ee02bf)" d="M 192.31 140.068636 
L 207.64869 140.068636 
L 207.64869 146.172045 
L 192.31 146.172045 
z
" style="fill:#1f77b4;"/>
   </g>
   <g id="patch_17">
    <path clip-path="url(#p4e16ee02bf)" d="M 192.31 147.697898 
L 299.680833 147.697898 
L 299.680833 153.801307 
L 192.31 153.801307 
z
" style="fill:#1f77b4;"/>
   </g>
   <g id="patch_18">
    <path clip-path="url(#p4e16ee02bf)" d="M 192.31 155.327159 
L 284.342143 155.327159 
L 284.342143 161.430568 
L 192.31 161.430568 
z
" style="fill:#1f77b4;"/>
   </g>
   <g id="patch_19">
    <path clip-path="url(#p4e16ee02bf)" d="M 192.31 162.95642 
L 207.64869 162.95642 
L 207.64869 169.05983 
L 192.31 169.05983 
z
" style="fill:#1f77b4;"/>
   </g>
   <g id="patch_20">
    <path clip-path="url(#p4e16ee02bf)" d="M 192.31 170.585682 
L 253.664762 170.585682 
L 253.664762 176.689091 
L 192.31 176.689091 
z
" style="fill:#1f77b4;"/>
   </g>
   <g id="patch_21">
    <path clip-path="url(#p4e16ee02bf)" d="M 192.31 178.214943 
L 207.64869 178.214943 
L 207.64869 184.318352 
L 192.31 184.318352 
z
" style="fill:#1f77b4;"/>
   </g>
   <g id="patch_22">
    <path clip-path="url(#p4e16ee02bf)" d="M 192.31 185.844205 
L 207.64869 185.844205 
L 207.64869 191.947614 
L 192.31 191.947614 
z
" style="fill:#1f77b4;"/>
   </g>
   <g id="patch_23">
    <path clip-path="url(#p4e16ee02bf)" d="M 192.31 193.473466 
L 207.64869 193.473466 
L 207.64869 199.576875 
L 192.31 199.576875 
z
" style="fill:#1f77b4;"/>
   </g>
   <g id="patch_24">
    <path clip-path="url(#p4e16ee02bf)" d="M 192.31 201.102727 
L 207.64869 201.102727 
L 207.64869 207.206136 
L 192.31 207.206136 
z
" style="fill:#1f77b4;"/>
   </g>
   <g id="patch_25">
    <path clip-path="url(#p4e16ee02bf)" d="M 192.31 208.731989 
L 222.987381 208.731989 
L 222.987381 214.835398 
L 192.31 214.835398 
z
" style="fill:#1f77b4;"/>
   </g>
   <g id="patch_26">
    <path clip-path="url(#p4e16ee02bf)" d="M 192.31 216.36125 
L 207.64869 216.36125 
L 207.64869 222.464659 
L 192.31 222.464659 
z
" style="fill:#1f77b4;"/>
   </g>
   <g id="patch_27">
    <path clip-path="url(#p4e16ee02bf)" d="M 192.31 223.990511 
L 207.64869 223.990511 
L 207.64869 230.09392 
L 192.31 230.09392 
z
" style="fill:#1f77b4;"/>
   </g>
   <g id="patch_28">
    <path clip-path="url(#p4e16ee02bf)" d="M 192.31 231.619773 
L 207.64869 231.619773 
L 207.64869 237.723182 
L 192.31 237.723182 
z
" style="fill:#1f77b4;"/>
   </g>
   <g id="patch_29">
    <path clip-path="url(#p4e16ee02bf)" d="M 192.31 239.249034 
L 207.64869 239.249034 
L 207.64869 245.352443 
L 192.31 245.352443 
z
" style="fill:#1f77b4;"/>
   </g>
   <g id="patch_30">
    <path clip-path="url(#p4e16ee02bf)" d="M 192.31 246.878295 
L 222.987381 246.878295 
L 222.987381 252.981705 
L 192.31 252.981705 
z
" style="fill:#1f77b4;"/>
   </g>
   <g id="patch_31">
    <path clip-path="url(#p4e16ee02bf)" d="M 192.31 254.507557 
L 207.64869 254.507557 
L 207.64869 260.610966 
L 192.31 260.610966 
z
" style="fill:#1f77b4;"/>
   </g>
   <g id="patch_32">
    <path clip-path="url(#p4e16ee02bf)" d="M 192.31 262.136818 
L 238.326071 262.136818 
L 238.326071 268.240227 
L 192.31 268.240227 
z
" style="fill:#1f77b4;"/>
   </g>
   <g id="patch_33">
    <path clip-path="url(#p4e16ee02bf)" d="M 192.31 269.76608 
L 207.64869 269.76608 
L 207.64869 275.869489 
L 192.31 275.869489 
z
" style="fill:#1f77b4;"/>
   </g>
   <g id="patch_34">
    <path clip-path="url(#p4e16ee02bf)" d="M 192.31 277.395341 
L 207.64869 277.395341 
L 207.64869 283.49875 
L 192.31 283.49875 
z
" style="fill:#1f77b4;"/>
   </g>
   <g id="patch_35">
    <path clip-path="url(#p4e16ee02bf)" d="M 192.31 285.024602 
L 207.64869 285.024602 
L 207.64869 291.128011 
L 192.31 291.128011 
z
" style="fill:#1f77b4;"/>
   </g>
   <g id="matplotlib.axis_1">
    <g id="xtick_1">
     <g id="line2d_1">
      <defs>
       <path d="M 0 0 
L 0 3.5 
" id="mf9a00c71e0" style="stroke:#000000;stroke-width:0.8;"/>
      </defs>
      <g>
       <use style="stroke:#000000;stroke-width:0.8;" x="192.31" xlink:href="#mf9a00c71e0" y="303.64"/>
      </g>
     </g>
     <g id="text_1">
      <!-- 0 -->
      <g transform="translate(189.12875 318.238437)scale(0.1 -0.1)">
       <defs>
        <path d="M 31.78125 66.40625 
Q 24.171875 66.40625 20.328125 58.90625 
Q 16.5 51.421875 16.5 36.375 
Q 16.5 21.390625 20.328125 13.890625 
Q 24.171875 6.390625 31.78125 6.390625 
Q 39.453125 6.390625 43.28125 13.890625 
Q 47.125 21.390625 47.125 36.375 
Q 47.125 51.421875 43.28125 58.90625 
Q 39.453125 66.40625 31.78125 66.40625 
z
M 31.78125 74.21875 
Q 44.046875 74.21875 50.515625 64.515625 
Q 56.984375 54.828125 56.984375 36.375 
Q 56.984375 17.96875 50.515625 8.265625 
Q 44.046875 -1.421875 31.78125 -1.421875 
Q 19.53125 -1.421875 13.0625 8.265625 
Q 6.59375 17.96875 6.59375 36.375 
Q 6.59375 54.828125 13.0625 64.515625 
Q 19.53125 74.21875 31.78125 74.21875 
z
" id="DejaVuSans-48"/>
       </defs>
       <use xlink:href="#DejaVuSans-48"/>
      </g>
     </g>
    </g>
    <g id="xtick_2">
     <g id="line2d_2">
      <g>
       <use style="stroke:#000000;stroke-width:0.8;" x="222.987381" xlink:href="#mf9a00c71e0" y="303.64"/>
      </g>
     </g>
     <g id="text_2">
      <!-- 2 -->
      <g transform="translate(219.806131 318.238437)scale(0.1 -0.1)">
       <defs>
        <path d="M 19.1875 8.296875 
L 53.609375 8.296875 
L 53.609375 0 
L 7.328125 0 
L 7.328125 8.296875 
Q 12.9375 14.109375 22.625 23.890625 
Q 32.328125 33.6875 34.8125 36.53125 
Q 39.546875 41.84375 41.421875 45.53125 
Q 43.3125 49.21875 43.3125 52.78125 
Q 43.3125 58.59375 39.234375 62.25 
Q 35.15625 65.921875 28.609375 65.921875 
Q 23.96875 65.921875 18.8125 64.3125 
Q 13.671875 62.703125 7.8125 59.421875 
L 7.8125 69.390625 
Q 13.765625 71.78125 18.9375 73 
Q 24.125 74.21875 28.421875 74.21875 
Q 39.75 74.21875 46.484375 68.546875 
Q 53.21875 62.890625 53.21875 53.421875 
Q 53.21875 48.921875 51.53125 44.890625 
Q 49.859375 40.875 45.40625 35.40625 
Q 44.1875 33.984375 37.640625 27.21875 
Q 31.109375 20.453125 19.1875 8.296875 
z
" id="DejaVuSans-50"/>
       </defs>
       <use xlink:href="#DejaVuSans-50"/>
      </g>
     </g>
    </g>
    <g id="xtick_3">
     <g id="line2d_3">
      <g>
       <use style="stroke:#000000;stroke-width:0.8;" x="253.664762" xlink:href="#mf9a00c71e0" y="303.64"/>
      </g>
     </g>
     <g id="text_3">
      <!-- 4 -->
      <g transform="translate(250.483512 318.238437)scale(0.1 -0.1)">
       <defs>
        <path d="M 37.796875 64.3125 
L 12.890625 25.390625 
L 37.796875 25.390625 
z
M 35.203125 72.90625 
L 47.609375 72.90625 
L 47.609375 25.390625 
L 58.015625 25.390625 
L 58.015625 17.1875 
L 47.609375 17.1875 
L 47.609375 0 
L 37.796875 0 
L 37.796875 17.1875 
L 4.890625 17.1875 
L 4.890625 26.703125 
z
" id="DejaVuSans-52"/>
       </defs>
       <use xlink:href="#DejaVuSans-52"/>
      </g>
     </g>
    </g>
    <g id="xtick_4">
     <g id="line2d_4">
      <g>
       <use style="stroke:#000000;stroke-width:0.8;" x="284.342143" xlink:href="#mf9a00c71e0" y="303.64"/>
      </g>
     </g>
     <g id="text_4">
      <!-- 6 -->
      <g transform="translate(281.160893 318.238437)scale(0.1 -0.1)">
       <defs>
        <path d="M 33.015625 40.375 
Q 26.375 40.375 22.484375 35.828125 
Q 18.609375 31.296875 18.609375 23.390625 
Q 18.609375 15.53125 22.484375 10.953125 
Q 26.375 6.390625 33.015625 6.390625 
Q 39.65625 6.390625 43.53125 10.953125 
Q 47.40625 15.53125 47.40625 23.390625 
Q 47.40625 31.296875 43.53125 35.828125 
Q 39.65625 40.375 33.015625 40.375 
z
M 52.59375 71.296875 
L 52.59375 62.3125 
Q 48.875 64.0625 45.09375 64.984375 
Q 41.3125 65.921875 37.59375 65.921875 
Q 27.828125 65.921875 22.671875 59.328125 
Q 17.53125 52.734375 16.796875 39.40625 
Q 19.671875 43.65625 24.015625 45.921875 
Q 28.375 48.1875 33.59375 48.1875 
Q 44.578125 48.1875 50.953125 41.515625 
Q 57.328125 34.859375 57.328125 23.390625 
Q 57.328125 12.15625 50.6875 5.359375 
Q 44.046875 -1.421875 33.015625 -1.421875 
Q 20.359375 -1.421875 13.671875 8.265625 
Q 6.984375 17.96875 6.984375 36.375 
Q 6.984375 53.65625 15.1875 63.9375 
Q 23.390625 74.21875 37.203125 74.21875 
Q 40.921875 74.21875 44.703125 73.484375 
Q 48.484375 72.75 52.59375 71.296875 
z
" id="DejaVuSans-54"/>
       </defs>
       <use xlink:href="#DejaVuSans-54"/>
      </g>
     </g>
    </g>
    <g id="xtick_5">
     <g id="line2d_5">
      <g>
       <use style="stroke:#000000;stroke-width:0.8;" x="315.019524" xlink:href="#mf9a00c71e0" y="303.64"/>
      </g>
     </g>
     <g id="text_5">
      <!-- 8 -->
      <g transform="translate(311.838274 318.238437)scale(0.1 -0.1)">
       <defs>
        <path d="M 31.78125 34.625 
Q 24.75 34.625 20.71875 30.859375 
Q 16.703125 27.09375 16.703125 20.515625 
Q 16.703125 13.921875 20.71875 10.15625 
Q 24.75 6.390625 31.78125 6.390625 
Q 38.8125 6.390625 42.859375 10.171875 
Q 46.921875 13.96875 46.921875 20.515625 
Q 46.921875 27.09375 42.890625 30.859375 
Q 38.875 34.625 31.78125 34.625 
z
M 21.921875 38.8125 
Q 15.578125 40.375 12.03125 44.71875 
Q 8.5 49.078125 8.5 55.328125 
Q 8.5 64.0625 14.71875 69.140625 
Q 20.953125 74.21875 31.78125 74.21875 
Q 42.671875 74.21875 48.875 69.140625 
Q 55.078125 64.0625 55.078125 55.328125 
Q 55.078125 49.078125 51.53125 44.71875 
Q 48 40.375 41.703125 38.8125 
Q 48.828125 37.15625 52.796875 32.3125 
Q 56.78125 27.484375 56.78125 20.515625 
Q 56.78125 9.90625 50.3125 4.234375 
Q 43.84375 -1.421875 31.78125 -1.421875 
Q 19.734375 -1.421875 13.25 4.234375 
Q 6.78125 9.90625 6.78125 20.515625 
Q 6.78125 27.484375 10.78125 32.3125 
Q 14.796875 37.15625 21.921875 38.8125 
z
M 18.3125 54.390625 
Q 18.3125 48.734375 21.84375 45.5625 
Q 25.390625 42.390625 31.78125 42.390625 
Q 38.140625 42.390625 41.71875 45.5625 
Q 45.3125 48.734375 45.3125 54.390625 
Q 45.3125 60.0625 41.71875 63.234375 
Q 38.140625 66.40625 31.78125 66.40625 
Q 25.390625 66.40625 21.84375 63.234375 
Q 18.3125 60.0625 18.3125 54.390625 
z
" id="DejaVuSans-56"/>
       </defs>
       <use xlink:href="#DejaVuSans-56"/>
      </g>
     </g>
    </g>
    <g id="xtick_6">
     <g id="line2d_6">
      <g>
       <use style="stroke:#000000;stroke-width:0.8;" x="345.696905" xlink:href="#mf9a00c71e0" y="303.64"/>
      </g>
     </g>
     <g id="text_6">
      <!-- 10 -->
      <g transform="translate(339.334405 318.238437)scale(0.1 -0.1)">
       <defs>
        <path d="M 12.40625 8.296875 
L 28.515625 8.296875 
L 28.515625 63.921875 
L 10.984375 60.40625 
L 10.984375 69.390625 
L 28.421875 72.90625 
L 38.28125 72.90625 
L 38.28125 8.296875 
L 54.390625 8.296875 
L 54.390625 0 
L 12.40625 0 
z
" id="DejaVuSans-49"/>
       </defs>
       <use xlink:href="#DejaVuSans-49"/>
       <use x="63.623047" xlink:href="#DejaVuSans-48"/>
      </g>
     </g>
    </g>
    <g id="xtick_7">
     <g id="line2d_7">
      <g>
       <use style="stroke:#000000;stroke-width:0.8;" x="376.374286" xlink:href="#mf9a00c71e0" y="303.64"/>
      </g>
     </g>
     <g id="text_7">
      <!-- 12 -->
      <g transform="translate(370.011786 318.238437)scale(0.1 -0.1)">
       <use xlink:href="#DejaVuSans-49"/>
       <use x="63.623047" xlink:href="#DejaVuSans-50"/>
      </g>
     </g>
    </g>
    <g id="xtick_8">
     <g id="line2d_8">
      <g>
       <use style="stroke:#000000;stroke-width:0.8;" x="407.051667" xlink:href="#mf9a00c71e0" y="303.64"/>
      </g>
     </g>
     <g id="text_8">
      <!-- 14 -->
      <g transform="translate(400.689167 318.238437)scale(0.1 -0.1)">
       <use xlink:href="#DejaVuSans-49"/>
       <use x="63.623047" xlink:href="#DejaVuSans-52"/>
      </g>
     </g>
    </g>
    <g id="xtick_9">
     <g id="line2d_9">
      <g>
       <use style="stroke:#000000;stroke-width:0.8;" x="437.729048" xlink:href="#mf9a00c71e0" y="303.64"/>
      </g>
     </g>
     <g id="text_9">
      <!-- 16 -->
      <g transform="translate(431.366548 318.238437)scale(0.1 -0.1)">
       <use xlink:href="#DejaVuSans-49"/>
       <use x="63.623047" xlink:href="#DejaVuSans-54"/>
      </g>
     </g>
    </g>
    <g id="text_10">
     <!-- Anzahl Artikel -->
     <g transform="translate(286.726094 331.916562)scale(0.1 -0.1)">
      <defs>
       <path d="M 34.1875 63.1875 
L 20.796875 26.90625 
L 47.609375 26.90625 
z
M 28.609375 72.90625 
L 39.796875 72.90625 
L 67.578125 0 
L 57.328125 0 
L 50.6875 18.703125 
L 17.828125 18.703125 
L 11.1875 0 
L 0.78125 0 
z
" id="DejaVuSans-65"/>
       <path d="M 54.890625 33.015625 
L 54.890625 0 
L 45.90625 0 
L 45.90625 32.71875 
Q 45.90625 40.484375 42.875 44.328125 
Q 39.84375 48.1875 33.796875 48.1875 
Q 26.515625 48.1875 22.3125 43.546875 
Q 18.109375 38.921875 18.109375 30.90625 
L 18.109375 0 
L 9.078125 0 
L 9.078125 54.6875 
L 18.109375 54.6875 
L 18.109375 46.1875 
Q 21.34375 51.125 25.703125 53.5625 
Q 30.078125 56 35.796875 56 
Q 45.21875 56 50.046875 50.171875 
Q 54.890625 44.34375 54.890625 33.015625 
z
" id="DejaVuSans-110"/>
       <path d="M 5.515625 54.6875 
L 48.1875 54.6875 
L 48.1875 46.484375 
L 14.40625 7.171875 
L 48.1875 7.171875 
L 48.1875 0 
L 4.296875 0 
L 4.296875 8.203125 
L 38.09375 47.515625 
L 5.515625 47.515625 
z
" id="DejaVuSans-122"/>
       <path d="M 34.28125 27.484375 
Q 23.390625 27.484375 19.1875 25 
Q 14.984375 22.515625 14.984375 16.5 
Q 14.984375 11.71875 18.140625 8.90625 
Q 21.296875 6.109375 26.703125 6.109375 
Q 34.1875 6.109375 38.703125 11.40625 
Q 43.21875 16.703125 43.21875 25.484375 
L 43.21875 27.484375 
z
M 52.203125 31.203125 
L 52.203125 0 
L 43.21875 0 
L 43.21875 8.296875 
Q 40.140625 3.328125 35.546875 0.953125 
Q 30.953125 -1.421875 24.3125 -1.421875 
Q 15.921875 -1.421875 10.953125 3.296875 
Q 6 8.015625 6 15.921875 
Q 6 25.140625 12.171875 29.828125 
Q 18.359375 34.515625 30.609375 34.515625 
L 43.21875 34.515625 
L 43.21875 35.40625 
Q 43.21875 41.609375 39.140625 45 
Q 35.0625 48.390625 27.6875 48.390625 
Q 23 48.390625 18.546875 47.265625 
Q 14.109375 46.140625 10.015625 43.890625 
L 10.015625 52.203125 
Q 14.9375 54.109375 19.578125 55.046875 
Q 24.21875 56 28.609375 56 
Q 40.484375 56 46.34375 49.84375 
Q 52.203125 43.703125 52.203125 31.203125 
z
" id="DejaVuSans-97"/>
       <path d="M 54.890625 33.015625 
L 54.890625 0 
L 45.90625 0 
L 45.90625 32.71875 
Q 45.90625 40.484375 42.875 44.328125 
Q 39.84375 48.1875 33.796875 48.1875 
Q 26.515625 48.1875 22.3125 43.546875 
Q 18.109375 38.921875 18.109375 30.90625 
L 18.109375 0 
L 9.078125 0 
L 9.078125 75.984375 
L 18.109375 75.984375 
L 18.109375 46.1875 
Q 21.34375 51.125 25.703125 53.5625 
Q 30.078125 56 35.796875 56 
Q 45.21875 56 50.046875 50.171875 
Q 54.890625 44.34375 54.890625 33.015625 
z
" id="DejaVuSans-104"/>
       <path d="M 9.421875 75.984375 
L 18.40625 75.984375 
L 18.40625 0 
L 9.421875 0 
z
" id="DejaVuSans-108"/>
       <path id="DejaVuSans-32"/>
       <path d="M 41.109375 46.296875 
Q 39.59375 47.171875 37.8125 47.578125 
Q 36.03125 48 33.890625 48 
Q 26.265625 48 22.1875 43.046875 
Q 18.109375 38.09375 18.109375 28.8125 
L 18.109375 0 
L 9.078125 0 
L 9.078125 54.6875 
L 18.109375 54.6875 
L 18.109375 46.1875 
Q 20.953125 51.171875 25.484375 53.578125 
Q 30.03125 56 36.53125 56 
Q 37.453125 56 38.578125 55.875 
Q 39.703125 55.765625 41.0625 55.515625 
z
" id="DejaVuSans-114"/>
       <path d="M 18.3125 70.21875 
L 18.3125 54.6875 
L 36.8125 54.6875 
L 36.8125 47.703125 
L 18.3125 47.703125 
L 18.3125 18.015625 
Q 18.3125 11.328125 20.140625 9.421875 
Q 21.96875 7.515625 27.59375 7.515625 
L 36.8125 7.515625 
L 36.8125 0 
L 27.59375 0 
Q 17.1875 0 13.234375 3.875 
Q 9.28125 7.765625 9.28125 18.015625 
L 9.28125 47.703125 
L 2.6875 47.703125 
L 2.6875 54.6875 
L 9.28125 54.6875 
L 9.28125 70.21875 
z
" id="DejaVuSans-116"/>
       <path d="M 9.421875 54.6875 
L 18.40625 54.6875 
L 18.40625 0 
L 9.421875 0 
z
M 9.421875 75.984375 
L 18.40625 75.984375 
L 18.40625 64.59375 
L 9.421875 64.59375 
z
" id="DejaVuSans-105"/>
       <path d="M 9.078125 75.984375 
L 18.109375 75.984375 
L 18.109375 31.109375 
L 44.921875 54.6875 
L 56.390625 54.6875 
L 27.390625 29.109375 
L 57.625 0 
L 45.90625 0 
L 18.109375 26.703125 
L 18.109375 0 
L 9.078125 0 
z
" id="DejaVuSans-107"/>
       <path d="M 56.203125 29.59375 
L 56.203125 25.203125 
L 14.890625 25.203125 
Q 15.484375 15.921875 20.484375 11.0625 
Q 25.484375 6.203125 34.421875 6.203125 
Q 39.59375 6.203125 44.453125 7.46875 
Q 49.3125 8.734375 54.109375 11.28125 
L 54.109375 2.78125 
Q 49.265625 0.734375 44.1875 -0.34375 
Q 39.109375 -1.421875 33.890625 -1.421875 
Q 20.796875 -1.421875 13.15625 6.1875 
Q 5.515625 13.8125 5.515625 26.8125 
Q 5.515625 40.234375 12.765625 48.109375 
Q 20.015625 56 32.328125 56 
Q 43.359375 56 49.78125 48.890625 
Q 56.203125 41.796875 56.203125 29.59375 
z
M 47.21875 32.234375 
Q 47.125 39.59375 43.09375 43.984375 
Q 39.0625 48.390625 32.421875 48.390625 
Q 24.90625 48.390625 20.390625 44.140625 
Q 15.875 39.890625 15.1875 32.171875 
z
" id="DejaVuSans-101"/>
      </defs>
      <use xlink:href="#DejaVuSans-65"/>
      <use x="68.408203" xlink:href="#DejaVuSans-110"/>
      <use x="131.787109" xlink:href="#DejaVuSans-122"/>
      <use x="184.277344" xlink:href="#DejaVuSans-97"/>
      <use x="245.556641" xlink:href="#DejaVuSans-104"/>
      <use x="308.935547" xlink:href="#DejaVuSans-108"/>
      <use x="336.71875" xlink:href="#DejaVuSans-32"/>
      <use x="368.505859" xlink:href="#DejaVuSans-65"/>
      <use x="436.914062" xlink:href="#DejaVuSans-114"/>
      <use x="478.027344" xlink:href="#DejaVuSans-116"/>
      <use x="517.236328" xlink:href="#DejaVuSans-105"/>
      <use x="545.019531" xlink:href="#DejaVuSans-107"/>
      <use x="599.304688" xlink:href="#DejaVuSans-101"/>
      <use x="660.828125" xlink:href="#DejaVuSans-108"/>
     </g>
    </g>
   </g>
   <g id="matplotlib.axis_2">
    <g id="ytick_1">
     <g id="line2d_10">
      <defs>
       <path d="M 0 0 
L -3.5 0 
" id="m1063586d72" style="stroke:#000000;stroke-width:0.8;"/>
      </defs>
      <g>
       <use style="stroke:#000000;stroke-width:0.8;" x="192.31" xlink:href="#m1063586d72" y="43.939943"/>
      </g>
     </g>
     <g id="text_11">
      <!-- Susanne Schwarz -->
      <g transform="translate(97.430312 47.739162)scale(0.1 -0.1)">
       <defs>
        <path d="M 53.515625 70.515625 
L 53.515625 60.890625 
Q 47.90625 63.578125 42.921875 64.890625 
Q 37.9375 66.21875 33.296875 66.21875 
Q 25.25 66.21875 20.875 63.09375 
Q 16.5 59.96875 16.5 54.203125 
Q 16.5 49.359375 19.40625 46.890625 
Q 22.3125 44.4375 30.421875 42.921875 
L 36.375 41.703125 
Q 47.40625 39.59375 52.65625 34.296875 
Q 57.90625 29 57.90625 20.125 
Q 57.90625 9.515625 50.796875 4.046875 
Q 43.703125 -1.421875 29.984375 -1.421875 
Q 24.8125 -1.421875 18.96875 -0.25 
Q 13.140625 0.921875 6.890625 3.21875 
L 6.890625 13.375 
Q 12.890625 10.015625 18.65625 8.296875 
Q 24.421875 6.59375 29.984375 6.59375 
Q 38.421875 6.59375 43.015625 9.90625 
Q 47.609375 13.234375 47.609375 19.390625 
Q 47.609375 24.75 44.3125 27.78125 
Q 41.015625 30.8125 33.5 32.328125 
L 27.484375 33.5 
Q 16.453125 35.6875 11.515625 40.375 
Q 6.59375 45.0625 6.59375 53.421875 
Q 6.59375 63.09375 13.40625 68.65625 
Q 20.21875 74.21875 32.171875 74.21875 
Q 37.3125 74.21875 42.625 73.28125 
Q 47.953125 72.359375 53.515625 70.515625 
z
" id="DejaVuSans-83"/>
        <path d="M 8.5 21.578125 
L 8.5 54.6875 
L 17.484375 54.6875 
L 17.484375 21.921875 
Q 17.484375 14.15625 20.5 10.265625 
Q 23.53125 6.390625 29.59375 6.390625 
Q 36.859375 6.390625 41.078125 11.03125 
Q 45.3125 15.671875 45.3125 23.6875 
L 45.3125 54.6875 
L 54.296875 54.6875 
L 54.296875 0 
L 45.3125 0 
L 45.3125 8.40625 
Q 42.046875 3.421875 37.71875 1 
Q 33.40625 -1.421875 27.6875 -1.421875 
Q 18.265625 -1.421875 13.375 4.4375 
Q 8.5 10.296875 8.5 21.578125 
z
M 31.109375 56 
z
" id="DejaVuSans-117"/>
        <path d="M 44.28125 53.078125 
L 44.28125 44.578125 
Q 40.484375 46.53125 36.375 47.5 
Q 32.28125 48.484375 27.875 48.484375 
Q 21.1875 48.484375 17.84375 46.4375 
Q 14.5 44.390625 14.5 40.28125 
Q 14.5 37.15625 16.890625 35.375 
Q 19.28125 33.59375 26.515625 31.984375 
L 29.59375 31.296875 
Q 39.15625 29.25 43.1875 25.515625 
Q 47.21875 21.78125 47.21875 15.09375 
Q 47.21875 7.46875 41.1875 3.015625 
Q 35.15625 -1.421875 24.609375 -1.421875 
Q 20.21875 -1.421875 15.453125 -0.5625 
Q 10.6875 0.296875 5.421875 2 
L 5.421875 11.28125 
Q 10.40625 8.6875 15.234375 7.390625 
Q 20.0625 6.109375 24.8125 6.109375 
Q 31.15625 6.109375 34.5625 8.28125 
Q 37.984375 10.453125 37.984375 14.40625 
Q 37.984375 18.0625 35.515625 20.015625 
Q 33.0625 21.96875 24.703125 23.78125 
L 21.578125 24.515625 
Q 13.234375 26.265625 9.515625 29.90625 
Q 5.8125 33.546875 5.8125 39.890625 
Q 5.8125 47.609375 11.28125 51.796875 
Q 16.75 56 26.8125 56 
Q 31.78125 56 36.171875 55.265625 
Q 40.578125 54.546875 44.28125 53.078125 
z
" id="DejaVuSans-115"/>
        <path d="M 48.78125 52.59375 
L 48.78125 44.1875 
Q 44.96875 46.296875 41.140625 47.34375 
Q 37.3125 48.390625 33.40625 48.390625 
Q 24.65625 48.390625 19.8125 42.84375 
Q 14.984375 37.3125 14.984375 27.296875 
Q 14.984375 17.28125 19.8125 11.734375 
Q 24.65625 6.203125 33.40625 6.203125 
Q 37.3125 6.203125 41.140625 7.25 
Q 44.96875 8.296875 48.78125 10.40625 
L 48.78125 2.09375 
Q 45.015625 0.34375 40.984375 -0.53125 
Q 36.96875 -1.421875 32.421875 -1.421875 
Q 20.0625 -1.421875 12.78125 6.34375 
Q 5.515625 14.109375 5.515625 27.296875 
Q 5.515625 40.671875 12.859375 48.328125 
Q 20.21875 56 33.015625 56 
Q 37.15625 56 41.109375 55.140625 
Q 45.0625 54.296875 48.78125 52.59375 
z
" id="DejaVuSans-99"/>
        <path d="M 4.203125 54.6875 
L 13.1875 54.6875 
L 24.421875 12.015625 
L 35.59375 54.6875 
L 46.1875 54.6875 
L 57.421875 12.015625 
L 68.609375 54.6875 
L 77.59375 54.6875 
L 63.28125 0 
L 52.6875 0 
L 40.921875 44.828125 
L 29.109375 0 
L 18.5 0 
z
" id="DejaVuSans-119"/>
       </defs>
       <use xlink:href="#DejaVuSans-83"/>
       <use x="63.476562" xlink:href="#DejaVuSans-117"/>
       <use x="126.855469" xlink:href="#DejaVuSans-115"/>
       <use x="178.955078" xlink:href="#DejaVuSans-97"/>
       <use x="240.234375" xlink:href="#DejaVuSans-110"/>
       <use x="303.613281" xlink:href="#DejaVuSans-110"/>
       <use x="366.992188" xlink:href="#DejaVuSans-101"/>
       <use x="428.515625" xlink:href="#DejaVuSans-32"/>
       <use x="460.302734" xlink:href="#DejaVuSans-83"/>
       <use x="523.779297" xlink:href="#DejaVuSans-99"/>
       <use x="578.759766" xlink:href="#DejaVuSans-104"/>
       <use x="642.138672" xlink:href="#DejaVuSans-119"/>
       <use x="723.925781" xlink:href="#DejaVuSans-97"/>
       <use x="785.205078" xlink:href="#DejaVuSans-114"/>
       <use x="826.318359" xlink:href="#DejaVuSans-122"/>
      </g>
     </g>
    </g>
    <g id="ytick_2">
     <g id="line2d_11">
      <g>
       <use style="stroke:#000000;stroke-width:0.8;" x="192.31" xlink:href="#m1063586d72" y="51.569205"/>
      </g>
     </g>
     <g id="text_12">
      <!-- Christian Rath -->
      <g transform="translate(114.439688 55.368423)scale(0.1 -0.1)">
       <defs>
        <path d="M 64.40625 67.28125 
L 64.40625 56.890625 
Q 59.421875 61.53125 53.78125 63.8125 
Q 48.140625 66.109375 41.796875 66.109375 
Q 29.296875 66.109375 22.65625 58.46875 
Q 16.015625 50.828125 16.015625 36.375 
Q 16.015625 21.96875 22.65625 14.328125 
Q 29.296875 6.6875 41.796875 6.6875 
Q 48.140625 6.6875 53.78125 8.984375 
Q 59.421875 11.28125 64.40625 15.921875 
L 64.40625 5.609375 
Q 59.234375 2.09375 53.4375 0.328125 
Q 47.65625 -1.421875 41.21875 -1.421875 
Q 24.65625 -1.421875 15.125 8.703125 
Q 5.609375 18.84375 5.609375 36.375 
Q 5.609375 53.953125 15.125 64.078125 
Q 24.65625 74.21875 41.21875 74.21875 
Q 47.75 74.21875 53.53125 72.484375 
Q 59.328125 70.75 64.40625 67.28125 
z
" id="DejaVuSans-67"/>
        <path d="M 44.390625 34.1875 
Q 47.5625 33.109375 50.5625 29.59375 
Q 53.5625 26.078125 56.59375 19.921875 
L 66.609375 0 
L 56 0 
L 46.6875 18.703125 
Q 43.0625 26.03125 39.671875 28.421875 
Q 36.28125 30.8125 30.421875 30.8125 
L 19.671875 30.8125 
L 19.671875 0 
L 9.8125 0 
L 9.8125 72.90625 
L 32.078125 72.90625 
Q 44.578125 72.90625 50.734375 67.671875 
Q 56.890625 62.453125 56.890625 51.90625 
Q 56.890625 45.015625 53.6875 40.46875 
Q 50.484375 35.9375 44.390625 34.1875 
z
M 19.671875 64.796875 
L 19.671875 38.921875 
L 32.078125 38.921875 
Q 39.203125 38.921875 42.84375 42.21875 
Q 46.484375 45.515625 46.484375 51.90625 
Q 46.484375 58.296875 42.84375 61.546875 
Q 39.203125 64.796875 32.078125 64.796875 
z
" id="DejaVuSans-82"/>
       </defs>
       <use xlink:href="#DejaVuSans-67"/>
       <use x="69.824219" xlink:href="#DejaVuSans-104"/>
       <use x="133.203125" xlink:href="#DejaVuSans-114"/>
       <use x="174.316406" xlink:href="#DejaVuSans-105"/>
       <use x="202.099609" xlink:href="#DejaVuSans-115"/>
       <use x="254.199219" xlink:href="#DejaVuSans-116"/>
       <use x="293.408203" xlink:href="#DejaVuSans-105"/>
       <use x="321.191406" xlink:href="#DejaVuSans-97"/>
       <use x="382.470703" xlink:href="#DejaVuSans-110"/>
       <use x="445.849609" xlink:href="#DejaVuSans-32"/>
       <use x="477.636719" xlink:href="#DejaVuSans-82"/>
       <use x="544.869141" xlink:href="#DejaVuSans-97"/>
       <use x="606.148438" xlink:href="#DejaVuSans-116"/>
       <use x="645.357422" xlink:href="#DejaVuSans-104"/>
      </g>
     </g>
    </g>
    <g id="ytick_3">
     <g id="line2d_12">
      <g>
       <use style="stroke:#000000;stroke-width:0.8;" x="192.31" xlink:href="#m1063586d72" y="59.198466"/>
      </g>
     </g>
     <g id="text_13">
      <!-- Maximilian Berkenheide -->
      <g transform="translate(65.324062 62.997685)scale(0.1 -0.1)">
       <defs>
        <path d="M 9.8125 72.90625 
L 24.515625 72.90625 
L 43.109375 23.296875 
L 61.8125 72.90625 
L 76.515625 72.90625 
L 76.515625 0 
L 66.890625 0 
L 66.890625 64.015625 
L 48.09375 14.015625 
L 38.1875 14.015625 
L 19.390625 64.015625 
L 19.390625 0 
L 9.8125 0 
z
" id="DejaVuSans-77"/>
        <path d="M 54.890625 54.6875 
L 35.109375 28.078125 
L 55.90625 0 
L 45.3125 0 
L 29.390625 21.484375 
L 13.484375 0 
L 2.875 0 
L 24.125 28.609375 
L 4.6875 54.6875 
L 15.28125 54.6875 
L 29.78125 35.203125 
L 44.28125 54.6875 
z
" id="DejaVuSans-120"/>
        <path d="M 52 44.1875 
Q 55.375 50.25 60.0625 53.125 
Q 64.75 56 71.09375 56 
Q 79.640625 56 84.28125 50.015625 
Q 88.921875 44.046875 88.921875 33.015625 
L 88.921875 0 
L 79.890625 0 
L 79.890625 32.71875 
Q 79.890625 40.578125 77.09375 44.375 
Q 74.3125 48.1875 68.609375 48.1875 
Q 61.625 48.1875 57.5625 43.546875 
Q 53.515625 38.921875 53.515625 30.90625 
L 53.515625 0 
L 44.484375 0 
L 44.484375 32.71875 
Q 44.484375 40.625 41.703125 44.40625 
Q 38.921875 48.1875 33.109375 48.1875 
Q 26.21875 48.1875 22.15625 43.53125 
Q 18.109375 38.875 18.109375 30.90625 
L 18.109375 0 
L 9.078125 0 
L 9.078125 54.6875 
L 18.109375 54.6875 
L 18.109375 46.1875 
Q 21.1875 51.21875 25.484375 53.609375 
Q 29.78125 56 35.6875 56 
Q 41.65625 56 45.828125 52.96875 
Q 50 49.953125 52 44.1875 
z
" id="DejaVuSans-109"/>
        <path d="M 19.671875 34.8125 
L 19.671875 8.109375 
L 35.5 8.109375 
Q 43.453125 8.109375 47.28125 11.40625 
Q 51.125 14.703125 51.125 21.484375 
Q 51.125 28.328125 47.28125 31.5625 
Q 43.453125 34.8125 35.5 34.8125 
z
M 19.671875 64.796875 
L 19.671875 42.828125 
L 34.28125 42.828125 
Q 41.5 42.828125 45.03125 45.53125 
Q 48.578125 48.25 48.578125 53.8125 
Q 48.578125 59.328125 45.03125 62.0625 
Q 41.5 64.796875 34.28125 64.796875 
z
M 9.8125 72.90625 
L 35.015625 72.90625 
Q 46.296875 72.90625 52.390625 68.21875 
Q 58.5 63.53125 58.5 54.890625 
Q 58.5 48.1875 55.375 44.234375 
Q 52.25 40.28125 46.1875 39.3125 
Q 53.46875 37.75 57.5 32.78125 
Q 61.53125 27.828125 61.53125 20.40625 
Q 61.53125 10.640625 54.890625 5.3125 
Q 48.25 0 35.984375 0 
L 9.8125 0 
z
" id="DejaVuSans-66"/>
        <path d="M 45.40625 46.390625 
L 45.40625 75.984375 
L 54.390625 75.984375 
L 54.390625 0 
L 45.40625 0 
L 45.40625 8.203125 
Q 42.578125 3.328125 38.25 0.953125 
Q 33.9375 -1.421875 27.875 -1.421875 
Q 17.96875 -1.421875 11.734375 6.484375 
Q 5.515625 14.40625 5.515625 27.296875 
Q 5.515625 40.1875 11.734375 48.09375 
Q 17.96875 56 27.875 56 
Q 33.9375 56 38.25 53.625 
Q 42.578125 51.265625 45.40625 46.390625 
z
M 14.796875 27.296875 
Q 14.796875 17.390625 18.875 11.75 
Q 22.953125 6.109375 30.078125 6.109375 
Q 37.203125 6.109375 41.296875 11.75 
Q 45.40625 17.390625 45.40625 27.296875 
Q 45.40625 37.203125 41.296875 42.84375 
Q 37.203125 48.484375 30.078125 48.484375 
Q 22.953125 48.484375 18.875 42.84375 
Q 14.796875 37.203125 14.796875 27.296875 
z
" id="DejaVuSans-100"/>
       </defs>
       <use xlink:href="#DejaVuSans-77"/>
       <use x="86.279297" xlink:href="#DejaVuSans-97"/>
       <use x="147.558594" xlink:href="#DejaVuSans-120"/>
       <use x="206.738281" xlink:href="#DejaVuSans-105"/>
       <use x="234.521484" xlink:href="#DejaVuSans-109"/>
       <use x="331.933594" xlink:href="#DejaVuSans-105"/>
       <use x="359.716797" xlink:href="#DejaVuSans-108"/>
       <use x="387.5" xlink:href="#DejaVuSans-105"/>
       <use x="415.283203" xlink:href="#DejaVuSans-97"/>
       <use x="476.5625" xlink:href="#DejaVuSans-110"/>
       <use x="539.941406" xlink:href="#DejaVuSans-32"/>
       <use x="571.728516" xlink:href="#DejaVuSans-66"/>
       <use x="640.332031" xlink:href="#DejaVuSans-101"/>
       <use x="701.855469" xlink:href="#DejaVuSans-114"/>
       <use x="742.96875" xlink:href="#DejaVuSans-107"/>
       <use x="797.253906" xlink:href="#DejaVuSans-101"/>
       <use x="858.777344" xlink:href="#DejaVuSans-110"/>
       <use x="922.15625" xlink:href="#DejaVuSans-104"/>
       <use x="985.535156" xlink:href="#DejaVuSans-101"/>
       <use x="1047.058594" xlink:href="#DejaVuSans-105"/>
       <use x="1074.841797" xlink:href="#DejaVuSans-100"/>
       <use x="1138.318359" xlink:href="#DejaVuSans-101"/>
      </g>
     </g>
    </g>
    <g id="ytick_4">
     <g id="line2d_13">
      <g>
       <use style="stroke:#000000;stroke-width:0.8;" x="192.31" xlink:href="#m1063586d72" y="66.827727"/>
      </g>
     </g>
     <g id="text_14">
      <!-- Malte Kreutzfeldt -->
      <g transform="translate(99.700625 70.626946)scale(0.1 -0.1)">
       <defs>
        <path d="M 9.8125 72.90625 
L 19.671875 72.90625 
L 19.671875 42.09375 
L 52.390625 72.90625 
L 65.09375 72.90625 
L 28.90625 38.921875 
L 67.671875 0 
L 54.6875 0 
L 19.671875 35.109375 
L 19.671875 0 
L 9.8125 0 
z
" id="DejaVuSans-75"/>
        <path d="M 37.109375 75.984375 
L 37.109375 68.5 
L 28.515625 68.5 
Q 23.6875 68.5 21.796875 66.546875 
Q 19.921875 64.59375 19.921875 59.515625 
L 19.921875 54.6875 
L 34.71875 54.6875 
L 34.71875 47.703125 
L 19.921875 47.703125 
L 19.921875 0 
L 10.890625 0 
L 10.890625 47.703125 
L 2.296875 47.703125 
L 2.296875 54.6875 
L 10.890625 54.6875 
L 10.890625 58.5 
Q 10.890625 67.625 15.140625 71.796875 
Q 19.390625 75.984375 28.609375 75.984375 
z
" id="DejaVuSans-102"/>
       </defs>
       <use xlink:href="#DejaVuSans-77"/>
       <use x="86.279297" xlink:href="#DejaVuSans-97"/>
       <use x="147.558594" xlink:href="#DejaVuSans-108"/>
       <use x="175.341797" xlink:href="#DejaVuSans-116"/>
       <use x="214.550781" xlink:href="#DejaVuSans-101"/>
       <use x="276.074219" xlink:href="#DejaVuSans-32"/>
       <use x="307.861328" xlink:href="#DejaVuSans-75"/>
       <use x="373.4375" xlink:href="#DejaVuSans-114"/>
       <use x="412.300781" xlink:href="#DejaVuSans-101"/>
       <use x="473.824219" xlink:href="#DejaVuSans-117"/>
       <use x="537.203125" xlink:href="#DejaVuSans-116"/>
       <use x="576.412109" xlink:href="#DejaVuSans-122"/>
       <use x="628.902344" xlink:href="#DejaVuSans-102"/>
       <use x="664.107422" xlink:href="#DejaVuSans-101"/>
       <use x="725.630859" xlink:href="#DejaVuSans-108"/>
       <use x="753.414062" xlink:href="#DejaVuSans-100"/>
       <use x="816.890625" xlink:href="#DejaVuSans-116"/>
      </g>
     </g>
    </g>
    <g id="ytick_5">
     <g id="line2d_14">
      <g>
       <use style="stroke:#000000;stroke-width:0.8;" x="192.31" xlink:href="#m1063586d72" y="74.456989"/>
      </g>
     </g>
     <g id="text_15">
      <!-- Author nicht bekannt -->
      <g transform="translate(79.575625 78.256207)scale(0.1 -0.1)">
       <defs>
        <path d="M 30.609375 48.390625 
Q 23.390625 48.390625 19.1875 42.75 
Q 14.984375 37.109375 14.984375 27.296875 
Q 14.984375 17.484375 19.15625 11.84375 
Q 23.34375 6.203125 30.609375 6.203125 
Q 37.796875 6.203125 41.984375 11.859375 
Q 46.1875 17.53125 46.1875 27.296875 
Q 46.1875 37.015625 41.984375 42.703125 
Q 37.796875 48.390625 30.609375 48.390625 
z
M 30.609375 56 
Q 42.328125 56 49.015625 48.375 
Q 55.71875 40.765625 55.71875 27.296875 
Q 55.71875 13.875 49.015625 6.21875 
Q 42.328125 -1.421875 30.609375 -1.421875 
Q 18.84375 -1.421875 12.171875 6.21875 
Q 5.515625 13.875 5.515625 27.296875 
Q 5.515625 40.765625 12.171875 48.375 
Q 18.84375 56 30.609375 56 
z
" id="DejaVuSans-111"/>
        <path d="M 48.6875 27.296875 
Q 48.6875 37.203125 44.609375 42.84375 
Q 40.53125 48.484375 33.40625 48.484375 
Q 26.265625 48.484375 22.1875 42.84375 
Q 18.109375 37.203125 18.109375 27.296875 
Q 18.109375 17.390625 22.1875 11.75 
Q 26.265625 6.109375 33.40625 6.109375 
Q 40.53125 6.109375 44.609375 11.75 
Q 48.6875 17.390625 48.6875 27.296875 
z
M 18.109375 46.390625 
Q 20.953125 51.265625 25.265625 53.625 
Q 29.59375 56 35.59375 56 
Q 45.5625 56 51.78125 48.09375 
Q 58.015625 40.1875 58.015625 27.296875 
Q 58.015625 14.40625 51.78125 6.484375 
Q 45.5625 -1.421875 35.59375 -1.421875 
Q 29.59375 -1.421875 25.265625 0.953125 
Q 20.953125 3.328125 18.109375 8.203125 
L 18.109375 0 
L 9.078125 0 
L 9.078125 75.984375 
L 18.109375 75.984375 
z
" id="DejaVuSans-98"/>
       </defs>
       <use xlink:href="#DejaVuSans-65"/>
       <use x="68.408203" xlink:href="#DejaVuSans-117"/>
       <use x="131.787109" xlink:href="#DejaVuSans-116"/>
       <use x="170.996094" xlink:href="#DejaVuSans-104"/>
       <use x="234.375" xlink:href="#DejaVuSans-111"/>
       <use x="295.556641" xlink:href="#DejaVuSans-114"/>
       <use x="336.669922" xlink:href="#DejaVuSans-32"/>
       <use x="368.457031" xlink:href="#DejaVuSans-110"/>
       <use x="431.835938" xlink:href="#DejaVuSans-105"/>
       <use x="459.619141" xlink:href="#DejaVuSans-99"/>
       <use x="514.599609" xlink:href="#DejaVuSans-104"/>
       <use x="577.978516" xlink:href="#DejaVuSans-116"/>
       <use x="617.1875" xlink:href="#DejaVuSans-32"/>
       <use x="648.974609" xlink:href="#DejaVuSans-98"/>
       <use x="712.451172" xlink:href="#DejaVuSans-101"/>
       <use x="773.974609" xlink:href="#DejaVuSans-107"/>
       <use x="830.134766" xlink:href="#DejaVuSans-97"/>
       <use x="891.414062" xlink:href="#DejaVuSans-110"/>
       <use x="954.792969" xlink:href="#DejaVuSans-110"/>
       <use x="1018.171875" xlink:href="#DejaVuSans-116"/>
      </g>
     </g>
    </g>
    <g id="ytick_6">
     <g id="line2d_15">
      <g>
       <use style="stroke:#000000;stroke-width:0.8;" x="192.31" xlink:href="#m1063586d72" y="82.08625"/>
      </g>
     </g>
     <g id="text_16">
      <!-- Andrew Müller -->
      <g transform="translate(113.602187 85.885469)scale(0.1 -0.1)">
       <defs>
        <path d="M 8.5 21.578125 
L 8.5 54.6875 
L 17.484375 54.6875 
L 17.484375 21.921875 
Q 17.484375 14.15625 20.5 10.265625 
Q 23.53125 6.390625 29.59375 6.390625 
Q 36.859375 6.390625 41.078125 11.03125 
Q 45.3125 15.671875 45.3125 23.6875 
L 45.3125 54.6875 
L 54.296875 54.6875 
L 54.296875 0 
L 45.3125 0 
L 45.3125 8.40625 
Q 42.046875 3.421875 37.71875 1 
Q 33.40625 -1.421875 27.6875 -1.421875 
Q 18.265625 -1.421875 13.375 4.4375 
Q 8.5 10.296875 8.5 21.578125 
z
M 31.109375 56 
z
M 35.59375 75.78125 
L 45.5 75.78125 
L 45.5 65.921875 
L 35.59375 65.921875 
z
M 16.5 75.78125 
L 26.40625 75.78125 
L 26.40625 65.921875 
L 16.5 65.921875 
z
" id="DejaVuSans-252"/>
       </defs>
       <use xlink:href="#DejaVuSans-65"/>
       <use x="68.408203" xlink:href="#DejaVuSans-110"/>
       <use x="131.787109" xlink:href="#DejaVuSans-100"/>
       <use x="195.263672" xlink:href="#DejaVuSans-114"/>
       <use x="234.126953" xlink:href="#DejaVuSans-101"/>
       <use x="295.650391" xlink:href="#DejaVuSans-119"/>
       <use x="377.4375" xlink:href="#DejaVuSans-32"/>
       <use x="409.224609" xlink:href="#DejaVuSans-77"/>
       <use x="495.503906" xlink:href="#DejaVuSans-252"/>
       <use x="558.882812" xlink:href="#DejaVuSans-108"/>
       <use x="586.666016" xlink:href="#DejaVuSans-108"/>
       <use x="614.449219" xlink:href="#DejaVuSans-101"/>
       <use x="675.972656" xlink:href="#DejaVuSans-114"/>
      </g>
     </g>
    </g>
    <g id="ytick_7">
     <g id="line2d_16">
      <g>
       <use style="stroke:#000000;stroke-width:0.8;" x="192.31" xlink:href="#m1063586d72" y="89.715511"/>
      </g>
     </g>
     <g id="text_17">
      <!-- Bernhard Clasen -->
      <g transform="translate(102.505313 93.51473)scale(0.1 -0.1)">
       <use xlink:href="#DejaVuSans-66"/>
       <use x="68.603516" xlink:href="#DejaVuSans-101"/>
       <use x="130.126953" xlink:href="#DejaVuSans-114"/>
       <use x="169.490234" xlink:href="#DejaVuSans-110"/>
       <use x="232.869141" xlink:href="#DejaVuSans-104"/>
       <use x="296.248047" xlink:href="#DejaVuSans-97"/>
       <use x="357.527344" xlink:href="#DejaVuSans-114"/>
       <use x="396.890625" xlink:href="#DejaVuSans-100"/>
       <use x="460.367188" xlink:href="#DejaVuSans-32"/>
       <use x="492.154297" xlink:href="#DejaVuSans-67"/>
       <use x="561.978516" xlink:href="#DejaVuSans-108"/>
       <use x="589.761719" xlink:href="#DejaVuSans-97"/>
       <use x="651.041016" xlink:href="#DejaVuSans-115"/>
       <use x="703.140625" xlink:href="#DejaVuSans-101"/>
       <use x="764.664062" xlink:href="#DejaVuSans-110"/>
      </g>
     </g>
    </g>
    <g id="ytick_8">
     <g id="line2d_17">
      <g>
       <use style="stroke:#000000;stroke-width:0.8;" x="192.31" xlink:href="#m1063586d72" y="97.344773"/>
      </g>
     </g>
     <g id="text_18">
      <!-- Ulrike Fokken -->
      <g transform="translate(118.3475 101.143991)scale(0.1 -0.1)">
       <defs>
        <path d="M 8.6875 72.90625 
L 18.609375 72.90625 
L 18.609375 28.609375 
Q 18.609375 16.890625 22.84375 11.734375 
Q 27.09375 6.59375 36.625 6.59375 
Q 46.09375 6.59375 50.34375 11.734375 
Q 54.59375 16.890625 54.59375 28.609375 
L 54.59375 72.90625 
L 64.5 72.90625 
L 64.5 27.390625 
Q 64.5 13.140625 57.4375 5.859375 
Q 50.390625 -1.421875 36.625 -1.421875 
Q 22.796875 -1.421875 15.734375 5.859375 
Q 8.6875 13.140625 8.6875 27.390625 
z
" id="DejaVuSans-85"/>
        <path d="M 9.8125 72.90625 
L 51.703125 72.90625 
L 51.703125 64.59375 
L 19.671875 64.59375 
L 19.671875 43.109375 
L 48.578125 43.109375 
L 48.578125 34.8125 
L 19.671875 34.8125 
L 19.671875 0 
L 9.8125 0 
z
" id="DejaVuSans-70"/>
       </defs>
       <use xlink:href="#DejaVuSans-85"/>
       <use x="73.193359" xlink:href="#DejaVuSans-108"/>
       <use x="100.976562" xlink:href="#DejaVuSans-114"/>
       <use x="142.089844" xlink:href="#DejaVuSans-105"/>
       <use x="169.873047" xlink:href="#DejaVuSans-107"/>
       <use x="224.158203" xlink:href="#DejaVuSans-101"/>
       <use x="285.681641" xlink:href="#DejaVuSans-32"/>
       <use x="317.46875" xlink:href="#DejaVuSans-70"/>
       <use x="371.363281" xlink:href="#DejaVuSans-111"/>
       <use x="432.544922" xlink:href="#DejaVuSans-107"/>
       <use x="490.455078" xlink:href="#DejaVuSans-107"/>
       <use x="544.740234" xlink:href="#DejaVuSans-101"/>
       <use x="606.263672" xlink:href="#DejaVuSans-110"/>
      </g>
     </g>
    </g>
    <g id="ytick_9">
     <g id="line2d_18">
      <g>
       <use style="stroke:#000000;stroke-width:0.8;" x="192.31" xlink:href="#m1063586d72" y="104.974034"/>
      </g>
     </g>
     <g id="text_19">
      <!-- Reimar Paul -->
      <g transform="translate(125.899062 108.773253)scale(0.1 -0.1)">
       <defs>
        <path d="M 19.671875 64.796875 
L 19.671875 37.40625 
L 32.078125 37.40625 
Q 38.96875 37.40625 42.71875 40.96875 
Q 46.484375 44.53125 46.484375 51.125 
Q 46.484375 57.671875 42.71875 61.234375 
Q 38.96875 64.796875 32.078125 64.796875 
z
M 9.8125 72.90625 
L 32.078125 72.90625 
Q 44.34375 72.90625 50.609375 67.359375 
Q 56.890625 61.8125 56.890625 51.125 
Q 56.890625 40.328125 50.609375 34.8125 
Q 44.34375 29.296875 32.078125 29.296875 
L 19.671875 29.296875 
L 19.671875 0 
L 9.8125 0 
z
" id="DejaVuSans-80"/>
       </defs>
       <use xlink:href="#DejaVuSans-82"/>
       <use x="64.982422" xlink:href="#DejaVuSans-101"/>
       <use x="126.505859" xlink:href="#DejaVuSans-105"/>
       <use x="154.289062" xlink:href="#DejaVuSans-109"/>
       <use x="251.701172" xlink:href="#DejaVuSans-97"/>
       <use x="312.980469" xlink:href="#DejaVuSans-114"/>
       <use x="354.09375" xlink:href="#DejaVuSans-32"/>
       <use x="385.880859" xlink:href="#DejaVuSans-80"/>
       <use x="441.683594" xlink:href="#DejaVuSans-97"/>
       <use x="502.962891" xlink:href="#DejaVuSans-117"/>
       <use x="566.341797" xlink:href="#DejaVuSans-108"/>
      </g>
     </g>
    </g>
    <g id="ytick_10">
     <g id="line2d_19">
      <g>
       <use style="stroke:#000000;stroke-width:0.8;" x="192.31" xlink:href="#m1063586d72" y="112.603295"/>
      </g>
     </g>
     <g id="text_20">
      <!-- Heike Holdinghausen -->
      <g transform="translate(79.36625 116.402514)scale(0.1 -0.1)">
       <defs>
        <path d="M 9.8125 72.90625 
L 19.671875 72.90625 
L 19.671875 43.015625 
L 55.515625 43.015625 
L 55.515625 72.90625 
L 65.375 72.90625 
L 65.375 0 
L 55.515625 0 
L 55.515625 34.71875 
L 19.671875 34.71875 
L 19.671875 0 
L 9.8125 0 
z
" id="DejaVuSans-72"/>
        <path d="M 45.40625 27.984375 
Q 45.40625 37.75 41.375 43.109375 
Q 37.359375 48.484375 30.078125 48.484375 
Q 22.859375 48.484375 18.828125 43.109375 
Q 14.796875 37.75 14.796875 27.984375 
Q 14.796875 18.265625 18.828125 12.890625 
Q 22.859375 7.515625 30.078125 7.515625 
Q 37.359375 7.515625 41.375 12.890625 
Q 45.40625 18.265625 45.40625 27.984375 
z
M 54.390625 6.78125 
Q 54.390625 -7.171875 48.1875 -13.984375 
Q 42 -20.796875 29.203125 -20.796875 
Q 24.46875 -20.796875 20.265625 -20.09375 
Q 16.0625 -19.390625 12.109375 -17.921875 
L 12.109375 -9.1875 
Q 16.0625 -11.328125 19.921875 -12.34375 
Q 23.78125 -13.375 27.78125 -13.375 
Q 36.625 -13.375 41.015625 -8.765625 
Q 45.40625 -4.15625 45.40625 5.171875 
L 45.40625 9.625 
Q 42.625 4.78125 38.28125 2.390625 
Q 33.9375 0 27.875 0 
Q 17.828125 0 11.671875 7.65625 
Q 5.515625 15.328125 5.515625 27.984375 
Q 5.515625 40.671875 11.671875 48.328125 
Q 17.828125 56 27.875 56 
Q 33.9375 56 38.28125 53.609375 
Q 42.625 51.21875 45.40625 46.390625 
L 45.40625 54.6875 
L 54.390625 54.6875 
z
" id="DejaVuSans-103"/>
       </defs>
       <use xlink:href="#DejaVuSans-72"/>
       <use x="75.195312" xlink:href="#DejaVuSans-101"/>
       <use x="136.71875" xlink:href="#DejaVuSans-105"/>
       <use x="164.501953" xlink:href="#DejaVuSans-107"/>
       <use x="218.787109" xlink:href="#DejaVuSans-101"/>
       <use x="280.310547" xlink:href="#DejaVuSans-32"/>
       <use x="312.097656" xlink:href="#DejaVuSans-72"/>
       <use x="387.292969" xlink:href="#DejaVuSans-111"/>
       <use x="448.474609" xlink:href="#DejaVuSans-108"/>
       <use x="476.257812" xlink:href="#DejaVuSans-100"/>
       <use x="539.734375" xlink:href="#DejaVuSans-105"/>
       <use x="567.517578" xlink:href="#DejaVuSans-110"/>
       <use x="630.896484" xlink:href="#DejaVuSans-103"/>
       <use x="694.373047" xlink:href="#DejaVuSans-104"/>
       <use x="757.751953" xlink:href="#DejaVuSans-97"/>
       <use x="819.03125" xlink:href="#DejaVuSans-117"/>
       <use x="882.410156" xlink:href="#DejaVuSans-115"/>
       <use x="934.509766" xlink:href="#DejaVuSans-101"/>
       <use x="996.033203" xlink:href="#DejaVuSans-110"/>
      </g>
     </g>
    </g>
    <g id="ytick_11">
     <g id="line2d_20">
      <g>
       <use style="stroke:#000000;stroke-width:0.8;" x="192.31" xlink:href="#m1063586d72" y="120.232557"/>
      </g>
     </g>
     <g id="text_21">
      <!-- Katharina Schipkowski -->
      <g transform="translate(73.06625 124.031776)scale(0.1 -0.1)">
       <defs>
        <path d="M 18.109375 8.203125 
L 18.109375 -20.796875 
L 9.078125 -20.796875 
L 9.078125 54.6875 
L 18.109375 54.6875 
L 18.109375 46.390625 
Q 20.953125 51.265625 25.265625 53.625 
Q 29.59375 56 35.59375 56 
Q 45.5625 56 51.78125 48.09375 
Q 58.015625 40.1875 58.015625 27.296875 
Q 58.015625 14.40625 51.78125 6.484375 
Q 45.5625 -1.421875 35.59375 -1.421875 
Q 29.59375 -1.421875 25.265625 0.953125 
Q 20.953125 3.328125 18.109375 8.203125 
z
M 48.6875 27.296875 
Q 48.6875 37.203125 44.609375 42.84375 
Q 40.53125 48.484375 33.40625 48.484375 
Q 26.265625 48.484375 22.1875 42.84375 
Q 18.109375 37.203125 18.109375 27.296875 
Q 18.109375 17.390625 22.1875 11.75 
Q 26.265625 6.109375 33.40625 6.109375 
Q 40.53125 6.109375 44.609375 11.75 
Q 48.6875 17.390625 48.6875 27.296875 
z
" id="DejaVuSans-112"/>
       </defs>
       <use xlink:href="#DejaVuSans-75"/>
       <use x="63.826172" xlink:href="#DejaVuSans-97"/>
       <use x="125.105469" xlink:href="#DejaVuSans-116"/>
       <use x="164.314453" xlink:href="#DejaVuSans-104"/>
       <use x="227.693359" xlink:href="#DejaVuSans-97"/>
       <use x="288.972656" xlink:href="#DejaVuSans-114"/>
       <use x="330.085938" xlink:href="#DejaVuSans-105"/>
       <use x="357.869141" xlink:href="#DejaVuSans-110"/>
       <use x="421.248047" xlink:href="#DejaVuSans-97"/>
       <use x="482.527344" xlink:href="#DejaVuSans-32"/>
       <use x="514.314453" xlink:href="#DejaVuSans-83"/>
       <use x="577.791016" xlink:href="#DejaVuSans-99"/>
       <use x="632.771484" xlink:href="#DejaVuSans-104"/>
       <use x="696.150391" xlink:href="#DejaVuSans-105"/>
       <use x="723.933594" xlink:href="#DejaVuSans-112"/>
       <use x="787.410156" xlink:href="#DejaVuSans-107"/>
       <use x="841.695312" xlink:href="#DejaVuSans-111"/>
       <use x="902.876953" xlink:href="#DejaVuSans-119"/>
       <use x="984.664062" xlink:href="#DejaVuSans-115"/>
       <use x="1036.763672" xlink:href="#DejaVuSans-107"/>
       <use x="1094.673828" xlink:href="#DejaVuSans-105"/>
      </g>
     </g>
    </g>
    <g id="ytick_12">
     <g id="line2d_21">
      <g>
       <use style="stroke:#000000;stroke-width:0.8;" x="192.31" xlink:href="#m1063586d72" y="127.861818"/>
      </g>
     </g>
     <g id="text_22">
      <!-- Jost Maurin -->
      <g transform="translate(129.613125 131.661037)scale(0.1 -0.1)">
       <defs>
        <path d="M 9.8125 72.90625 
L 19.671875 72.90625 
L 19.671875 5.078125 
Q 19.671875 -8.109375 14.671875 -14.0625 
Q 9.671875 -20.015625 -1.421875 -20.015625 
L -5.171875 -20.015625 
L -5.171875 -11.71875 
L -2.09375 -11.71875 
Q 4.4375 -11.71875 7.125 -8.046875 
Q 9.8125 -4.390625 9.8125 5.078125 
z
" id="DejaVuSans-74"/>
       </defs>
       <use xlink:href="#DejaVuSans-74"/>
       <use x="29.492188" xlink:href="#DejaVuSans-111"/>
       <use x="90.673828" xlink:href="#DejaVuSans-115"/>
       <use x="142.773438" xlink:href="#DejaVuSans-116"/>
       <use x="181.982422" xlink:href="#DejaVuSans-32"/>
       <use x="213.769531" xlink:href="#DejaVuSans-77"/>
       <use x="300.048828" xlink:href="#DejaVuSans-97"/>
       <use x="361.328125" xlink:href="#DejaVuSans-117"/>
       <use x="424.707031" xlink:href="#DejaVuSans-114"/>
       <use x="465.820312" xlink:href="#DejaVuSans-105"/>
       <use x="493.603516" xlink:href="#DejaVuSans-110"/>
      </g>
     </g>
    </g>
    <g id="ytick_13">
     <g id="line2d_22">
      <g>
       <use style="stroke:#000000;stroke-width:0.8;" x="192.31" xlink:href="#m1063586d72" y="135.49108"/>
      </g>
     </g>
     <g id="text_23">
      <!-- Manfred Ronzheimer -->
      <g transform="translate(81.65375 139.290298)scale(0.1 -0.1)">
       <use xlink:href="#DejaVuSans-77"/>
       <use x="86.279297" xlink:href="#DejaVuSans-97"/>
       <use x="147.558594" xlink:href="#DejaVuSans-110"/>
       <use x="210.9375" xlink:href="#DejaVuSans-102"/>
       <use x="246.142578" xlink:href="#DejaVuSans-114"/>
       <use x="285.005859" xlink:href="#DejaVuSans-101"/>
       <use x="346.529297" xlink:href="#DejaVuSans-100"/>
       <use x="410.005859" xlink:href="#DejaVuSans-32"/>
       <use x="441.792969" xlink:href="#DejaVuSans-82"/>
       <use x="506.775391" xlink:href="#DejaVuSans-111"/>
       <use x="567.957031" xlink:href="#DejaVuSans-110"/>
       <use x="631.335938" xlink:href="#DejaVuSans-122"/>
       <use x="683.826172" xlink:href="#DejaVuSans-104"/>
       <use x="747.205078" xlink:href="#DejaVuSans-101"/>
       <use x="808.728516" xlink:href="#DejaVuSans-105"/>
       <use x="836.511719" xlink:href="#DejaVuSans-109"/>
       <use x="933.923828" xlink:href="#DejaVuSans-101"/>
       <use x="995.447266" xlink:href="#DejaVuSans-114"/>
      </g>
     </g>
    </g>
    <g id="ytick_14">
     <g id="line2d_23">
      <g>
       <use style="stroke:#000000;stroke-width:0.8;" x="192.31" xlink:href="#m1063586d72" y="143.120341"/>
      </g>
     </g>
     <g id="text_24">
      <!-- Beate Willms -->
      <g transform="translate(119.969375 146.91956)scale(0.1 -0.1)">
       <defs>
        <path d="M 3.328125 72.90625 
L 13.28125 72.90625 
L 28.609375 11.28125 
L 43.890625 72.90625 
L 54.984375 72.90625 
L 70.3125 11.28125 
L 85.59375 72.90625 
L 95.609375 72.90625 
L 77.296875 0 
L 64.890625 0 
L 49.515625 63.28125 
L 33.984375 0 
L 21.578125 0 
z
" id="DejaVuSans-87"/>
       </defs>
       <use xlink:href="#DejaVuSans-66"/>
       <use x="68.603516" xlink:href="#DejaVuSans-101"/>
       <use x="130.126953" xlink:href="#DejaVuSans-97"/>
       <use x="191.40625" xlink:href="#DejaVuSans-116"/>
       <use x="230.615234" xlink:href="#DejaVuSans-101"/>
       <use x="292.138672" xlink:href="#DejaVuSans-32"/>
       <use x="323.925781" xlink:href="#DejaVuSans-87"/>
       <use x="420.552734" xlink:href="#DejaVuSans-105"/>
       <use x="448.335938" xlink:href="#DejaVuSans-108"/>
       <use x="476.119141" xlink:href="#DejaVuSans-108"/>
       <use x="503.902344" xlink:href="#DejaVuSans-109"/>
       <use x="601.314453" xlink:href="#DejaVuSans-115"/>
      </g>
     </g>
    </g>
    <g id="ytick_15">
     <g id="line2d_24">
      <g>
       <use style="stroke:#000000;stroke-width:0.8;" x="192.31" xlink:href="#m1063586d72" y="150.749602"/>
      </g>
     </g>
     <g id="text_25">
      <!-- Bernhard Pötter -->
      <g transform="translate(106.20375 154.548821)scale(0.1 -0.1)">
       <defs>
        <path d="M 30.609375 48.390625 
Q 23.390625 48.390625 19.1875 42.75 
Q 14.984375 37.109375 14.984375 27.296875 
Q 14.984375 17.484375 19.15625 11.84375 
Q 23.34375 6.203125 30.609375 6.203125 
Q 37.796875 6.203125 41.984375 11.859375 
Q 46.1875 17.53125 46.1875 27.296875 
Q 46.1875 37.015625 41.984375 42.703125 
Q 37.796875 48.390625 30.609375 48.390625 
z
M 30.609375 56 
Q 42.328125 56 49.015625 48.375 
Q 55.71875 40.765625 55.71875 27.296875 
Q 55.71875 13.875 49.015625 6.21875 
Q 42.328125 -1.421875 30.609375 -1.421875 
Q 18.84375 -1.421875 12.171875 6.21875 
Q 5.515625 13.875 5.515625 27.296875 
Q 5.515625 40.765625 12.171875 48.375 
Q 18.84375 56 30.609375 56 
z
M 35.21875 75.78125 
L 45.125 75.78125 
L 45.125 65.921875 
L 35.21875 65.921875 
z
M 16.125 75.78125 
L 26.03125 75.78125 
L 26.03125 65.921875 
L 16.125 65.921875 
z
" id="DejaVuSans-246"/>
       </defs>
       <use xlink:href="#DejaVuSans-66"/>
       <use x="68.603516" xlink:href="#DejaVuSans-101"/>
       <use x="130.126953" xlink:href="#DejaVuSans-114"/>
       <use x="169.490234" xlink:href="#DejaVuSans-110"/>
       <use x="232.869141" xlink:href="#DejaVuSans-104"/>
       <use x="296.248047" xlink:href="#DejaVuSans-97"/>
       <use x="357.527344" xlink:href="#DejaVuSans-114"/>
       <use x="396.890625" xlink:href="#DejaVuSans-100"/>
       <use x="460.367188" xlink:href="#DejaVuSans-32"/>
       <use x="492.154297" xlink:href="#DejaVuSans-80"/>
       <use x="548.832031" xlink:href="#DejaVuSans-246"/>
       <use x="610.013672" xlink:href="#DejaVuSans-116"/>
       <use x="649.222656" xlink:href="#DejaVuSans-116"/>
       <use x="688.431641" xlink:href="#DejaVuSans-101"/>
       <use x="749.955078" xlink:href="#DejaVuSans-114"/>
      </g>
     </g>
    </g>
    <g id="ytick_16">
     <g id="line2d_25">
      <g>
       <use style="stroke:#000000;stroke-width:0.8;" x="192.31" xlink:href="#m1063586d72" y="158.378864"/>
      </g>
     </g>
     <g id="text_26">
      <!-- Von unserer Kooperationspartnerin -->
      <g transform="translate(10.619375 162.178082)scale(0.1 -0.1)">
       <defs>
        <path d="M 28.609375 0 
L 0.78125 72.90625 
L 11.078125 72.90625 
L 34.1875 11.53125 
L 57.328125 72.90625 
L 67.578125 72.90625 
L 39.796875 0 
z
" id="DejaVuSans-86"/>
       </defs>
       <use xlink:href="#DejaVuSans-86"/>
       <use x="60.658203" xlink:href="#DejaVuSans-111"/>
       <use x="121.839844" xlink:href="#DejaVuSans-110"/>
       <use x="185.21875" xlink:href="#DejaVuSans-32"/>
       <use x="217.005859" xlink:href="#DejaVuSans-117"/>
       <use x="280.384766" xlink:href="#DejaVuSans-110"/>
       <use x="343.763672" xlink:href="#DejaVuSans-115"/>
       <use x="395.863281" xlink:href="#DejaVuSans-101"/>
       <use x="457.386719" xlink:href="#DejaVuSans-114"/>
       <use x="496.25" xlink:href="#DejaVuSans-101"/>
       <use x="557.773438" xlink:href="#DejaVuSans-114"/>
       <use x="598.886719" xlink:href="#DejaVuSans-32"/>
       <use x="630.673828" xlink:href="#DejaVuSans-75"/>
       <use x="691.25" xlink:href="#DejaVuSans-111"/>
       <use x="752.431641" xlink:href="#DejaVuSans-111"/>
       <use x="813.613281" xlink:href="#DejaVuSans-112"/>
       <use x="877.089844" xlink:href="#DejaVuSans-101"/>
       <use x="938.613281" xlink:href="#DejaVuSans-114"/>
       <use x="979.726562" xlink:href="#DejaVuSans-97"/>
       <use x="1041.005859" xlink:href="#DejaVuSans-116"/>
       <use x="1080.214844" xlink:href="#DejaVuSans-105"/>
       <use x="1107.998047" xlink:href="#DejaVuSans-111"/>
       <use x="1169.179688" xlink:href="#DejaVuSans-110"/>
       <use x="1232.558594" xlink:href="#DejaVuSans-115"/>
       <use x="1284.658203" xlink:href="#DejaVuSans-112"/>
       <use x="1348.134766" xlink:href="#DejaVuSans-97"/>
       <use x="1409.414062" xlink:href="#DejaVuSans-114"/>
       <use x="1450.527344" xlink:href="#DejaVuSans-116"/>
       <use x="1489.736328" xlink:href="#DejaVuSans-110"/>
       <use x="1553.115234" xlink:href="#DejaVuSans-101"/>
       <use x="1614.638672" xlink:href="#DejaVuSans-114"/>
       <use x="1655.751953" xlink:href="#DejaVuSans-105"/>
       <use x="1683.535156" xlink:href="#DejaVuSans-110"/>
      </g>
     </g>
    </g>
    <g id="ytick_17">
     <g id="line2d_26">
      <g>
       <use style="stroke:#000000;stroke-width:0.8;" x="192.31" xlink:href="#m1063586d72" y="166.008125"/>
      </g>
     </g>
     <g id="text_27">
      <!-- Nick Reimer -->
      <g transform="translate(125.149062 169.807344)scale(0.1 -0.1)">
       <defs>
        <path d="M 9.8125 72.90625 
L 23.09375 72.90625 
L 55.421875 11.921875 
L 55.421875 72.90625 
L 64.984375 72.90625 
L 64.984375 0 
L 51.703125 0 
L 19.390625 60.984375 
L 19.390625 0 
L 9.8125 0 
z
" id="DejaVuSans-78"/>
       </defs>
       <use xlink:href="#DejaVuSans-78"/>
       <use x="74.804688" xlink:href="#DejaVuSans-105"/>
       <use x="102.587891" xlink:href="#DejaVuSans-99"/>
       <use x="157.568359" xlink:href="#DejaVuSans-107"/>
       <use x="215.478516" xlink:href="#DejaVuSans-32"/>
       <use x="247.265625" xlink:href="#DejaVuSans-82"/>
       <use x="312.248047" xlink:href="#DejaVuSans-101"/>
       <use x="373.771484" xlink:href="#DejaVuSans-105"/>
       <use x="401.554688" xlink:href="#DejaVuSans-109"/>
       <use x="498.966797" xlink:href="#DejaVuSans-101"/>
       <use x="560.490234" xlink:href="#DejaVuSans-114"/>
      </g>
     </g>
    </g>
    <g id="ytick_18">
     <g id="line2d_27">
      <g>
       <use style="stroke:#000000;stroke-width:0.8;" x="192.31" xlink:href="#m1063586d72" y="173.637386"/>
      </g>
     </g>
     <g id="text_28">
      <!-- Daniel Zylbersztajn-Lewandowski -->
      <g transform="translate(18.250625 177.436605)scale(0.1 -0.1)">
       <defs>
        <path d="M 19.671875 64.796875 
L 19.671875 8.109375 
L 31.59375 8.109375 
Q 46.6875 8.109375 53.6875 14.9375 
Q 60.6875 21.78125 60.6875 36.53125 
Q 60.6875 51.171875 53.6875 57.984375 
Q 46.6875 64.796875 31.59375 64.796875 
z
M 9.8125 72.90625 
L 30.078125 72.90625 
Q 51.265625 72.90625 61.171875 64.09375 
Q 71.09375 55.28125 71.09375 36.53125 
Q 71.09375 17.671875 61.125 8.828125 
Q 51.171875 0 30.078125 0 
L 9.8125 0 
z
" id="DejaVuSans-68"/>
        <path d="M 5.609375 72.90625 
L 62.890625 72.90625 
L 62.890625 65.375 
L 16.796875 8.296875 
L 64.015625 8.296875 
L 64.015625 0 
L 4.5 0 
L 4.5 7.515625 
L 50.59375 64.59375 
L 5.609375 64.59375 
z
" id="DejaVuSans-90"/>
        <path d="M 32.171875 -5.078125 
Q 28.375 -14.84375 24.75 -17.8125 
Q 21.140625 -20.796875 15.09375 -20.796875 
L 7.90625 -20.796875 
L 7.90625 -13.28125 
L 13.1875 -13.28125 
Q 16.890625 -13.28125 18.9375 -11.515625 
Q 21 -9.765625 23.484375 -3.21875 
L 25.09375 0.875 
L 2.984375 54.6875 
L 12.5 54.6875 
L 29.59375 11.921875 
L 46.6875 54.6875 
L 56.203125 54.6875 
z
" id="DejaVuSans-121"/>
        <path d="M 9.421875 54.6875 
L 18.40625 54.6875 
L 18.40625 -0.984375 
Q 18.40625 -11.421875 14.421875 -16.109375 
Q 10.453125 -20.796875 1.609375 -20.796875 
L -1.8125 -20.796875 
L -1.8125 -13.1875 
L 0.59375 -13.1875 
Q 5.71875 -13.1875 7.5625 -10.8125 
Q 9.421875 -8.453125 9.421875 -0.984375 
z
M 9.421875 75.984375 
L 18.40625 75.984375 
L 18.40625 64.59375 
L 9.421875 64.59375 
z
" id="DejaVuSans-106"/>
        <path d="M 4.890625 31.390625 
L 31.203125 31.390625 
L 31.203125 23.390625 
L 4.890625 23.390625 
z
" id="DejaVuSans-45"/>
        <path d="M 9.8125 72.90625 
L 19.671875 72.90625 
L 19.671875 8.296875 
L 55.171875 8.296875 
L 55.171875 0 
L 9.8125 0 
z
" id="DejaVuSans-76"/>
       </defs>
       <use xlink:href="#DejaVuSans-68"/>
       <use x="77.001953" xlink:href="#DejaVuSans-97"/>
       <use x="138.28125" xlink:href="#DejaVuSans-110"/>
       <use x="201.660156" xlink:href="#DejaVuSans-105"/>
       <use x="229.443359" xlink:href="#DejaVuSans-101"/>
       <use x="290.966797" xlink:href="#DejaVuSans-108"/>
       <use x="318.75" xlink:href="#DejaVuSans-32"/>
       <use x="350.537109" xlink:href="#DejaVuSans-90"/>
       <use x="419.042969" xlink:href="#DejaVuSans-121"/>
       <use x="478.222656" xlink:href="#DejaVuSans-108"/>
       <use x="506.005859" xlink:href="#DejaVuSans-98"/>
       <use x="569.482422" xlink:href="#DejaVuSans-101"/>
       <use x="631.005859" xlink:href="#DejaVuSans-114"/>
       <use x="672.119141" xlink:href="#DejaVuSans-115"/>
       <use x="724.21875" xlink:href="#DejaVuSans-122"/>
       <use x="776.708984" xlink:href="#DejaVuSans-116"/>
       <use x="815.917969" xlink:href="#DejaVuSans-97"/>
       <use x="877.197266" xlink:href="#DejaVuSans-106"/>
       <use x="904.980469" xlink:href="#DejaVuSans-110"/>
       <use x="968.359375" xlink:href="#DejaVuSans-45"/>
       <use x="1004.443359" xlink:href="#DejaVuSans-76"/>
       <use x="1058.40625" xlink:href="#DejaVuSans-101"/>
       <use x="1119.929688" xlink:href="#DejaVuSans-119"/>
       <use x="1201.716797" xlink:href="#DejaVuSans-97"/>
       <use x="1262.996094" xlink:href="#DejaVuSans-110"/>
       <use x="1326.375" xlink:href="#DejaVuSans-100"/>
       <use x="1389.851562" xlink:href="#DejaVuSans-111"/>
       <use x="1451.033203" xlink:href="#DejaVuSans-119"/>
       <use x="1532.820312" xlink:href="#DejaVuSans-115"/>
       <use x="1584.919922" xlink:href="#DejaVuSans-107"/>
       <use x="1642.830078" xlink:href="#DejaVuSans-105"/>
      </g>
     </g>
    </g>
    <g id="ytick_19">
     <g id="line2d_28">
      <g>
       <use style="stroke:#000000;stroke-width:0.8;" x="192.31" xlink:href="#m1063586d72" y="181.266648"/>
      </g>
     </g>
     <g id="text_29">
      <!-- Andreas Ruhsert -->
      <g transform="translate(102.661563 185.065866)scale(0.1 -0.1)">
       <use xlink:href="#DejaVuSans-65"/>
       <use x="68.408203" xlink:href="#DejaVuSans-110"/>
       <use x="131.787109" xlink:href="#DejaVuSans-100"/>
       <use x="195.263672" xlink:href="#DejaVuSans-114"/>
       <use x="234.126953" xlink:href="#DejaVuSans-101"/>
       <use x="295.650391" xlink:href="#DejaVuSans-97"/>
       <use x="356.929688" xlink:href="#DejaVuSans-115"/>
       <use x="409.029297" xlink:href="#DejaVuSans-32"/>
       <use x="440.816406" xlink:href="#DejaVuSans-82"/>
       <use x="505.798828" xlink:href="#DejaVuSans-117"/>
       <use x="569.177734" xlink:href="#DejaVuSans-104"/>
       <use x="632.556641" xlink:href="#DejaVuSans-115"/>
       <use x="684.65625" xlink:href="#DejaVuSans-101"/>
       <use x="746.179688" xlink:href="#DejaVuSans-114"/>
       <use x="787.292969" xlink:href="#DejaVuSans-116"/>
      </g>
     </g>
    </g>
    <g id="ytick_20">
     <g id="line2d_29">
      <g>
       <use style="stroke:#000000;stroke-width:0.8;" x="192.31" xlink:href="#m1063586d72" y="188.895909"/>
      </g>
     </g>
     <g id="text_30">
      <!-- Anett Selle -->
      <g transform="translate(130.749063 192.695128)scale(0.1 -0.1)">
       <use xlink:href="#DejaVuSans-65"/>
       <use x="68.408203" xlink:href="#DejaVuSans-110"/>
       <use x="131.787109" xlink:href="#DejaVuSans-101"/>
       <use x="193.310547" xlink:href="#DejaVuSans-116"/>
       <use x="232.519531" xlink:href="#DejaVuSans-116"/>
       <use x="271.728516" xlink:href="#DejaVuSans-32"/>
       <use x="303.515625" xlink:href="#DejaVuSans-83"/>
       <use x="366.992188" xlink:href="#DejaVuSans-101"/>
       <use x="428.515625" xlink:href="#DejaVuSans-108"/>
       <use x="456.298828" xlink:href="#DejaVuSans-108"/>
       <use x="484.082031" xlink:href="#DejaVuSans-101"/>
      </g>
     </g>
    </g>
    <g id="ytick_21">
     <g id="line2d_30">
      <g>
       <use style="stroke:#000000;stroke-width:0.8;" x="192.31" xlink:href="#m1063586d72" y="196.52517"/>
      </g>
     </g>
     <g id="text_31">
      <!-- Xenia Balzereit -->
      <g transform="translate(110.42875 200.324389)scale(0.1 -0.1)">
       <defs>
        <path d="M 6.296875 72.90625 
L 16.890625 72.90625 
L 35.015625 45.796875 
L 53.21875 72.90625 
L 63.8125 72.90625 
L 40.375 37.890625 
L 65.375 0 
L 54.78125 0 
L 34.28125 31 
L 13.625 0 
L 2.984375 0 
L 29 38.921875 
z
" id="DejaVuSans-88"/>
       </defs>
       <use xlink:href="#DejaVuSans-88"/>
       <use x="64.005859" xlink:href="#DejaVuSans-101"/>
       <use x="125.529297" xlink:href="#DejaVuSans-110"/>
       <use x="188.908203" xlink:href="#DejaVuSans-105"/>
       <use x="216.691406" xlink:href="#DejaVuSans-97"/>
       <use x="277.970703" xlink:href="#DejaVuSans-32"/>
       <use x="309.757812" xlink:href="#DejaVuSans-66"/>
       <use x="378.361328" xlink:href="#DejaVuSans-97"/>
       <use x="439.640625" xlink:href="#DejaVuSans-108"/>
       <use x="467.423828" xlink:href="#DejaVuSans-122"/>
       <use x="519.914062" xlink:href="#DejaVuSans-101"/>
       <use x="581.4375" xlink:href="#DejaVuSans-114"/>
       <use x="620.300781" xlink:href="#DejaVuSans-101"/>
       <use x="681.824219" xlink:href="#DejaVuSans-105"/>
       <use x="709.607422" xlink:href="#DejaVuSans-116"/>
      </g>
     </g>
    </g>
    <g id="ytick_22">
     <g id="line2d_31">
      <g>
       <use style="stroke:#000000;stroke-width:0.8;" x="192.31" xlink:href="#m1063586d72" y="204.154432"/>
      </g>
     </g>
     <g id="text_32">
      <!-- Christiane Schröder  -->
      <g transform="translate(83.41625 207.953651)scale(0.1 -0.1)">
       <use xlink:href="#DejaVuSans-67"/>
       <use x="69.824219" xlink:href="#DejaVuSans-104"/>
       <use x="133.203125" xlink:href="#DejaVuSans-114"/>
       <use x="174.316406" xlink:href="#DejaVuSans-105"/>
       <use x="202.099609" xlink:href="#DejaVuSans-115"/>
       <use x="254.199219" xlink:href="#DejaVuSans-116"/>
       <use x="293.408203" xlink:href="#DejaVuSans-105"/>
       <use x="321.191406" xlink:href="#DejaVuSans-97"/>
       <use x="382.470703" xlink:href="#DejaVuSans-110"/>
       <use x="445.849609" xlink:href="#DejaVuSans-101"/>
       <use x="507.373047" xlink:href="#DejaVuSans-32"/>
       <use x="539.160156" xlink:href="#DejaVuSans-83"/>
       <use x="602.636719" xlink:href="#DejaVuSans-99"/>
       <use x="657.617188" xlink:href="#DejaVuSans-104"/>
       <use x="720.996094" xlink:href="#DejaVuSans-114"/>
       <use x="759.859375" xlink:href="#DejaVuSans-246"/>
       <use x="821.041016" xlink:href="#DejaVuSans-100"/>
       <use x="884.517578" xlink:href="#DejaVuSans-101"/>
       <use x="946.041016" xlink:href="#DejaVuSans-114"/>
       <use x="987.154297" xlink:href="#DejaVuSans-32"/>
      </g>
     </g>
    </g>
    <g id="ytick_23">
     <g id="line2d_32">
      <g>
       <use style="stroke:#000000;stroke-width:0.8;" x="192.31" xlink:href="#m1063586d72" y="211.783693"/>
      </g>
     </g>
     <g id="text_33">
      <!-- Niklas Franzen -->
      <g transform="translate(112.624062 215.582912)scale(0.1 -0.1)">
       <use xlink:href="#DejaVuSans-78"/>
       <use x="74.804688" xlink:href="#DejaVuSans-105"/>
       <use x="102.587891" xlink:href="#DejaVuSans-107"/>
       <use x="160.498047" xlink:href="#DejaVuSans-108"/>
       <use x="188.28125" xlink:href="#DejaVuSans-97"/>
       <use x="249.560547" xlink:href="#DejaVuSans-115"/>
       <use x="301.660156" xlink:href="#DejaVuSans-32"/>
       <use x="333.447266" xlink:href="#DejaVuSans-70"/>
       <use x="383.716797" xlink:href="#DejaVuSans-114"/>
       <use x="424.830078" xlink:href="#DejaVuSans-97"/>
       <use x="486.109375" xlink:href="#DejaVuSans-110"/>
       <use x="549.488281" xlink:href="#DejaVuSans-122"/>
       <use x="601.978516" xlink:href="#DejaVuSans-101"/>
       <use x="663.501953" xlink:href="#DejaVuSans-110"/>
      </g>
     </g>
    </g>
    <g id="ytick_24">
     <g id="line2d_33">
      <g>
       <use style="stroke:#000000;stroke-width:0.8;" x="192.31" xlink:href="#m1063586d72" y="219.412955"/>
      </g>
     </g>
     <g id="text_34">
      <!-- Marlene Halser -->
      <g transform="translate(109.942813 223.212173)scale(0.1 -0.1)">
       <use xlink:href="#DejaVuSans-77"/>
       <use x="86.279297" xlink:href="#DejaVuSans-97"/>
       <use x="147.558594" xlink:href="#DejaVuSans-114"/>
       <use x="188.671875" xlink:href="#DejaVuSans-108"/>
       <use x="216.455078" xlink:href="#DejaVuSans-101"/>
       <use x="277.978516" xlink:href="#DejaVuSans-110"/>
       <use x="341.357422" xlink:href="#DejaVuSans-101"/>
       <use x="402.880859" xlink:href="#DejaVuSans-32"/>
       <use x="434.667969" xlink:href="#DejaVuSans-72"/>
       <use x="509.863281" xlink:href="#DejaVuSans-97"/>
       <use x="571.142578" xlink:href="#DejaVuSans-108"/>
       <use x="598.925781" xlink:href="#DejaVuSans-115"/>
       <use x="651.025391" xlink:href="#DejaVuSans-101"/>
       <use x="712.548828" xlink:href="#DejaVuSans-114"/>
      </g>
     </g>
    </g>
    <g id="ytick_25">
     <g id="line2d_34">
      <g>
       <use style="stroke:#000000;stroke-width:0.8;" x="192.31" xlink:href="#m1063586d72" y="227.042216"/>
      </g>
     </g>
     <g id="text_35">
      <!-- Svenja Schulze -->
      <g transform="translate(109.76625 230.841435)scale(0.1 -0.1)">
       <defs>
        <path d="M 2.984375 54.6875 
L 12.5 54.6875 
L 29.59375 8.796875 
L 46.6875 54.6875 
L 56.203125 54.6875 
L 35.6875 0 
L 23.484375 0 
z
" id="DejaVuSans-118"/>
       </defs>
       <use xlink:href="#DejaVuSans-83"/>
       <use x="63.476562" xlink:href="#DejaVuSans-118"/>
       <use x="122.65625" xlink:href="#DejaVuSans-101"/>
       <use x="184.179688" xlink:href="#DejaVuSans-110"/>
       <use x="247.558594" xlink:href="#DejaVuSans-106"/>
       <use x="275.341797" xlink:href="#DejaVuSans-97"/>
       <use x="336.621094" xlink:href="#DejaVuSans-32"/>
       <use x="368.408203" xlink:href="#DejaVuSans-83"/>
       <use x="431.884766" xlink:href="#DejaVuSans-99"/>
       <use x="486.865234" xlink:href="#DejaVuSans-104"/>
       <use x="550.244141" xlink:href="#DejaVuSans-117"/>
       <use x="613.623047" xlink:href="#DejaVuSans-108"/>
       <use x="641.40625" xlink:href="#DejaVuSans-122"/>
       <use x="693.896484" xlink:href="#DejaVuSans-101"/>
      </g>
     </g>
    </g>
    <g id="ytick_26">
     <g id="line2d_35">
      <g>
       <use style="stroke:#000000;stroke-width:0.8;" x="192.31" xlink:href="#m1063586d72" y="234.671477"/>
      </g>
     </g>
     <g id="text_36">
      <!-- François Misser -->
      <g transform="translate(108.835 238.470696)scale(0.1 -0.1)">
       <defs>
        <path d="M 48.78125 52.59375 
L 48.78125 44.1875 
Q 44.96875 46.296875 41.140625 47.34375 
Q 37.3125 48.390625 33.40625 48.390625 
Q 24.65625 48.390625 19.8125 42.84375 
Q 14.984375 37.3125 14.984375 27.296875 
Q 14.984375 17.28125 19.8125 11.734375 
Q 24.65625 6.203125 33.40625 6.203125 
Q 37.3125 6.203125 41.140625 7.25 
Q 44.96875 8.296875 48.78125 10.40625 
L 48.78125 2.09375 
Q 45.015625 0.34375 40.984375 -0.53125 
Q 36.96875 -1.421875 32.421875 -1.421875 
Q 20.0625 -1.421875 12.78125 6.34375 
Q 5.515625 14.109375 5.515625 27.296875 
Q 5.515625 40.671875 12.859375 48.328125 
Q 20.21875 56 33.015625 56 
Q 37.15625 56 41.109375 55.140625 
Q 45.0625 54.296875 48.78125 52.59375 
z
M 36.109375 0 
Q 38.78125 -3.03125 40.09375 -5.59375 
Q 41.421875 -8.15625 41.421875 -10.5 
Q 41.421875 -14.84375 38.484375 -17.0625 
Q 35.5625 -19.28125 29.796875 -19.28125 
Q 27.5625 -19.28125 25.4375 -18.984375 
Q 23.3125 -18.703125 21.203125 -18.109375 
L 21.203125 -11.71875 
Q 22.875 -12.546875 24.671875 -12.90625 
Q 26.484375 -13.28125 28.78125 -13.28125 
Q 31.65625 -13.28125 33.125 -12.109375 
Q 34.59375 -10.9375 34.59375 -8.6875 
Q 34.59375 -7.234375 33.53125 -5.109375 
Q 32.484375 -2.984375 30.296875 0 
z
" id="DejaVuSans-231"/>
       </defs>
       <use xlink:href="#DejaVuSans-70"/>
       <use x="50.269531" xlink:href="#DejaVuSans-114"/>
       <use x="91.382812" xlink:href="#DejaVuSans-97"/>
       <use x="152.662109" xlink:href="#DejaVuSans-110"/>
       <use x="216.041016" xlink:href="#DejaVuSans-231"/>
       <use x="271.021484" xlink:href="#DejaVuSans-111"/>
       <use x="332.203125" xlink:href="#DejaVuSans-105"/>
       <use x="359.986328" xlink:href="#DejaVuSans-115"/>
       <use x="412.085938" xlink:href="#DejaVuSans-32"/>
       <use x="443.873047" xlink:href="#DejaVuSans-77"/>
       <use x="530.152344" xlink:href="#DejaVuSans-105"/>
       <use x="557.935547" xlink:href="#DejaVuSans-115"/>
       <use x="610.035156" xlink:href="#DejaVuSans-115"/>
       <use x="662.134766" xlink:href="#DejaVuSans-101"/>
       <use x="723.658203" xlink:href="#DejaVuSans-114"/>
      </g>
     </g>
    </g>
    <g id="ytick_27">
     <g id="line2d_36">
      <g>
       <use style="stroke:#000000;stroke-width:0.8;" x="192.31" xlink:href="#m1063586d72" y="242.300739"/>
      </g>
     </g>
     <g id="text_37">
      <!-- Christoph Schmidt-Lunau -->
      <g transform="translate(58.870937 246.099957)scale(0.1 -0.1)">
       <use xlink:href="#DejaVuSans-67"/>
       <use x="69.824219" xlink:href="#DejaVuSans-104"/>
       <use x="133.203125" xlink:href="#DejaVuSans-114"/>
       <use x="174.316406" xlink:href="#DejaVuSans-105"/>
       <use x="202.099609" xlink:href="#DejaVuSans-115"/>
       <use x="254.199219" xlink:href="#DejaVuSans-116"/>
       <use x="293.408203" xlink:href="#DejaVuSans-111"/>
       <use x="354.589844" xlink:href="#DejaVuSans-112"/>
       <use x="418.066406" xlink:href="#DejaVuSans-104"/>
       <use x="481.445312" xlink:href="#DejaVuSans-32"/>
       <use x="513.232422" xlink:href="#DejaVuSans-83"/>
       <use x="576.708984" xlink:href="#DejaVuSans-99"/>
       <use x="631.689453" xlink:href="#DejaVuSans-104"/>
       <use x="695.068359" xlink:href="#DejaVuSans-109"/>
       <use x="792.480469" xlink:href="#DejaVuSans-105"/>
       <use x="820.263672" xlink:href="#DejaVuSans-100"/>
       <use x="883.740234" xlink:href="#DejaVuSans-116"/>
       <use x="922.949219" xlink:href="#DejaVuSans-45"/>
       <use x="959.033203" xlink:href="#DejaVuSans-76"/>
       <use x="1012.996094" xlink:href="#DejaVuSans-117"/>
       <use x="1076.375" xlink:href="#DejaVuSans-110"/>
       <use x="1139.753906" xlink:href="#DejaVuSans-97"/>
       <use x="1201.033203" xlink:href="#DejaVuSans-117"/>
      </g>
     </g>
    </g>
    <g id="ytick_28">
     <g id="line2d_37">
      <g>
       <use style="stroke:#000000;stroke-width:0.8;" x="192.31" xlink:href="#m1063586d72" y="249.93"/>
      </g>
     </g>
     <g id="text_38">
      <!-- Hannes Koch -->
      <g transform="translate(120.433437 253.729219)scale(0.1 -0.1)">
       <use xlink:href="#DejaVuSans-72"/>
       <use x="75.195312" xlink:href="#DejaVuSans-97"/>
       <use x="136.474609" xlink:href="#DejaVuSans-110"/>
       <use x="199.853516" xlink:href="#DejaVuSans-110"/>
       <use x="263.232422" xlink:href="#DejaVuSans-101"/>
       <use x="324.755859" xlink:href="#DejaVuSans-115"/>
       <use x="376.855469" xlink:href="#DejaVuSans-32"/>
       <use x="408.642578" xlink:href="#DejaVuSans-75"/>
       <use x="469.21875" xlink:href="#DejaVuSans-111"/>
       <use x="530.400391" xlink:href="#DejaVuSans-99"/>
       <use x="585.380859" xlink:href="#DejaVuSans-104"/>
      </g>
     </g>
    </g>
    <g id="ytick_29">
     <g id="line2d_38">
      <g>
       <use style="stroke:#000000;stroke-width:0.8;" x="192.31" xlink:href="#m1063586d72" y="257.559261"/>
      </g>
     </g>
     <g id="text_39">
      <!-- Natalie Mayroth -->
      <g transform="translate(105.827187 261.35848)scale(0.1 -0.1)">
       <use xlink:href="#DejaVuSans-78"/>
       <use x="74.804688" xlink:href="#DejaVuSans-97"/>
       <use x="136.083984" xlink:href="#DejaVuSans-116"/>
       <use x="175.292969" xlink:href="#DejaVuSans-97"/>
       <use x="236.572266" xlink:href="#DejaVuSans-108"/>
       <use x="264.355469" xlink:href="#DejaVuSans-105"/>
       <use x="292.138672" xlink:href="#DejaVuSans-101"/>
       <use x="353.662109" xlink:href="#DejaVuSans-32"/>
       <use x="385.449219" xlink:href="#DejaVuSans-77"/>
       <use x="471.728516" xlink:href="#DejaVuSans-97"/>
       <use x="533.007812" xlink:href="#DejaVuSans-121"/>
       <use x="592.1875" xlink:href="#DejaVuSans-114"/>
       <use x="631.050781" xlink:href="#DejaVuSans-111"/>
       <use x="692.232422" xlink:href="#DejaVuSans-116"/>
       <use x="731.441406" xlink:href="#DejaVuSans-104"/>
      </g>
     </g>
    </g>
    <g id="ytick_30">
     <g id="line2d_39">
      <g>
       <use style="stroke:#000000;stroke-width:0.8;" x="192.31" xlink:href="#m1063586d72" y="265.188523"/>
      </g>
     </g>
     <g id="text_40">
      <!-- Reinhard Wolff -->
      <g transform="translate(112.377188 268.987741)scale(0.1 -0.1)">
       <use xlink:href="#DejaVuSans-82"/>
       <use x="64.982422" xlink:href="#DejaVuSans-101"/>
       <use x="126.505859" xlink:href="#DejaVuSans-105"/>
       <use x="154.289062" xlink:href="#DejaVuSans-110"/>
       <use x="217.667969" xlink:href="#DejaVuSans-104"/>
       <use x="281.046875" xlink:href="#DejaVuSans-97"/>
       <use x="342.326172" xlink:href="#DejaVuSans-114"/>
       <use x="381.689453" xlink:href="#DejaVuSans-100"/>
       <use x="445.166016" xlink:href="#DejaVuSans-32"/>
       <use x="476.953125" xlink:href="#DejaVuSans-87"/>
       <use x="569.955078" xlink:href="#DejaVuSans-111"/>
       <use x="631.136719" xlink:href="#DejaVuSans-108"/>
       <use x="658.919922" xlink:href="#DejaVuSans-102"/>
       <use x="694.125" xlink:href="#DejaVuSans-102"/>
      </g>
     </g>
    </g>
    <g id="ytick_31">
     <g id="line2d_40">
      <g>
       <use style="stroke:#000000;stroke-width:0.8;" x="192.31" xlink:href="#m1063586d72" y="272.817784"/>
      </g>
     </g>
     <g id="text_41">
      <!-- Tadzio Müller -->
      <g transform="translate(120.26625 276.617003)scale(0.1 -0.1)">
       <defs>
        <path d="M -0.296875 72.90625 
L 61.375 72.90625 
L 61.375 64.59375 
L 35.5 64.59375 
L 35.5 0 
L 25.59375 0 
L 25.59375 64.59375 
L -0.296875 64.59375 
z
" id="DejaVuSans-84"/>
       </defs>
       <use xlink:href="#DejaVuSans-84"/>
       <use x="44.583984" xlink:href="#DejaVuSans-97"/>
       <use x="105.863281" xlink:href="#DejaVuSans-100"/>
       <use x="169.339844" xlink:href="#DejaVuSans-122"/>
       <use x="221.830078" xlink:href="#DejaVuSans-105"/>
       <use x="249.613281" xlink:href="#DejaVuSans-111"/>
       <use x="310.794922" xlink:href="#DejaVuSans-32"/>
       <use x="342.582031" xlink:href="#DejaVuSans-77"/>
       <use x="428.861328" xlink:href="#DejaVuSans-252"/>
       <use x="492.240234" xlink:href="#DejaVuSans-108"/>
       <use x="520.023438" xlink:href="#DejaVuSans-108"/>
       <use x="547.806641" xlink:href="#DejaVuSans-101"/>
       <use x="609.330078" xlink:href="#DejaVuSans-114"/>
      </g>
     </g>
    </g>
    <g id="ytick_32">
     <g id="line2d_41">
      <g>
       <use style="stroke:#000000;stroke-width:0.8;" x="192.31" xlink:href="#m1063586d72" y="280.447045"/>
      </g>
     </g>
     <g id="text_42">
      <!-- Celine Weimar-Dittmar -->
      <g transform="translate(71.469375 284.246264)scale(0.1 -0.1)">
       <use xlink:href="#DejaVuSans-67"/>
       <use x="69.824219" xlink:href="#DejaVuSans-101"/>
       <use x="131.347656" xlink:href="#DejaVuSans-108"/>
       <use x="159.130859" xlink:href="#DejaVuSans-105"/>
       <use x="186.914062" xlink:href="#DejaVuSans-110"/>
       <use x="250.292969" xlink:href="#DejaVuSans-101"/>
       <use x="311.816406" xlink:href="#DejaVuSans-32"/>
       <use x="343.603516" xlink:href="#DejaVuSans-87"/>
       <use x="436.605469" xlink:href="#DejaVuSans-101"/>
       <use x="498.128906" xlink:href="#DejaVuSans-105"/>
       <use x="525.912109" xlink:href="#DejaVuSans-109"/>
       <use x="623.324219" xlink:href="#DejaVuSans-97"/>
       <use x="684.603516" xlink:href="#DejaVuSans-114"/>
       <use x="719.341797" xlink:href="#DejaVuSans-45"/>
       <use x="755.425781" xlink:href="#DejaVuSans-68"/>
       <use x="832.427734" xlink:href="#DejaVuSans-105"/>
       <use x="860.210938" xlink:href="#DejaVuSans-116"/>
       <use x="899.419922" xlink:href="#DejaVuSans-116"/>
       <use x="938.628906" xlink:href="#DejaVuSans-109"/>
       <use x="1036.041016" xlink:href="#DejaVuSans-97"/>
       <use x="1097.320312" xlink:href="#DejaVuSans-114"/>
      </g>
     </g>
    </g>
    <g id="ytick_33">
     <g id="line2d_42">
      <g>
       <use style="stroke:#000000;stroke-width:0.8;" x="192.31" xlink:href="#m1063586d72" y="288.076307"/>
      </g>
     </g>
     <g id="text_43">
      <!-- Anja Krüger -->
      <g transform="translate(126.42875 291.875526)scale(0.1 -0.1)">
       <use xlink:href="#DejaVuSans-65"/>
       <use x="68.408203" xlink:href="#DejaVuSans-110"/>
       <use x="131.787109" xlink:href="#DejaVuSans-106"/>
       <use x="159.570312" xlink:href="#DejaVuSans-97"/>
       <use x="220.849609" xlink:href="#DejaVuSans-32"/>
       <use x="252.636719" xlink:href="#DejaVuSans-75"/>
       <use x="318.212891" xlink:href="#DejaVuSans-114"/>
       <use x="359.326172" xlink:href="#DejaVuSans-252"/>
       <use x="422.705078" xlink:href="#DejaVuSans-103"/>
       <use x="486.181641" xlink:href="#DejaVuSans-101"/>
       <use x="547.705078" xlink:href="#DejaVuSans-114"/>
      </g>
     </g>
    </g>
   </g>
   <g id="patch_36">
    <path d="M 192.31 303.64 
L 192.31 28.37625 
" style="fill:none;stroke:#000000;stroke-linecap:square;stroke-linejoin:miter;stroke-width:0.8;"/>
   </g>
   <g id="patch_37">
    <path d="M 450 303.64 
L 450 28.37625 
" style="fill:none;stroke:#000000;stroke-linecap:square;stroke-linejoin:miter;stroke-width:0.8;"/>
   </g>
   <g id="patch_38">
    <path d="M 192.31 303.64 
L 450 303.64 
" style="fill:none;stroke:#000000;stroke-linecap:square;stroke-linejoin:miter;stroke-width:0.8;"/>
   </g>
   <g id="patch_39">
    <path d="M 192.31 28.37625 
L 450 28.37625 
" style="fill:none;stroke:#000000;stroke-linecap:square;stroke-linejoin:miter;stroke-width:0.8;"/>
   </g>
   <g id="text_44">
    <!-- Ressort Ökologie -->
    <g transform="translate(270.75875 22.37625)scale(0.12 -0.12)">
     <defs>
      <path d="M 39.40625 66.21875 
Q 28.65625 66.21875 22.328125 58.203125 
Q 16.015625 50.203125 16.015625 36.375 
Q 16.015625 22.609375 22.328125 14.59375 
Q 28.65625 6.59375 39.40625 6.59375 
Q 50.140625 6.59375 56.421875 14.59375 
Q 62.703125 22.609375 62.703125 36.375 
Q 62.703125 50.203125 56.421875 58.203125 
Q 50.140625 66.21875 39.40625 66.21875 
z
M 39.40625 74.21875 
Q 54.734375 74.21875 63.90625 63.9375 
Q 73.09375 53.65625 73.09375 36.375 
Q 73.09375 19.140625 63.90625 8.859375 
Q 54.734375 -1.421875 39.40625 -1.421875 
Q 24.03125 -1.421875 14.8125 8.828125 
Q 5.609375 19.09375 5.609375 36.375 
Q 5.609375 53.65625 14.8125 63.9375 
Q 24.03125 74.21875 39.40625 74.21875 
z
M 43.96875 91.09375 
L 53.875 91.09375 
L 53.875 81.1875 
L 43.96875 81.1875 
z
M 24.875 91.09375 
L 34.78125 91.09375 
L 34.78125 81.1875 
L 24.875 81.1875 
z
" id="DejaVuSans-214"/>
     </defs>
     <use xlink:href="#DejaVuSans-82"/>
     <use x="64.982422" xlink:href="#DejaVuSans-101"/>
     <use x="126.505859" xlink:href="#DejaVuSans-115"/>
     <use x="178.605469" xlink:href="#DejaVuSans-115"/>
     <use x="230.705078" xlink:href="#DejaVuSans-111"/>
     <use x="291.886719" xlink:href="#DejaVuSans-114"/>
     <use x="333" xlink:href="#DejaVuSans-116"/>
     <use x="372.208984" xlink:href="#DejaVuSans-32"/>
     <use x="403.996094" xlink:href="#DejaVuSans-214"/>
     <use x="482.707031" xlink:href="#DejaVuSans-107"/>
     <use x="536.992188" xlink:href="#DejaVuSans-111"/>
     <use x="598.173828" xlink:href="#DejaVuSans-108"/>
     <use x="625.957031" xlink:href="#DejaVuSans-111"/>
     <use x="687.138672" xlink:href="#DejaVuSans-103"/>
     <use x="750.615234" xlink:href="#DejaVuSans-105"/>
     <use x="778.398438" xlink:href="#DejaVuSans-101"/>
    </g>
   </g>
  </g>
 </g>
 <defs>
  <clipPath id="p4e16ee02bf">
   <rect height="275.26375" width="257.69" x="192.31" y="28.37625"/>
  </clipPath>
 </defs>
</svg>
