<?xml version="1.0" encoding="utf-8" standalone="no"?>
<!DOCTYPE svg PUBLIC "-//W3C//DTD SVG 1.1//EN"
  "http://www.w3.org/Graphics/SVG/1.1/DTD/svg11.dtd">
<!-- Created with matplotlib (https://matplotlib.org/) -->
<svg height="345.6pt" version="1.1" viewBox="0 0 460.8 345.6" width="460.8pt" xmlns="http://www.w3.org/2000/svg" xmlns:xlink="http://www.w3.org/1999/xlink">
 <metadata>
  <rdf:RDF xmlns:cc="http://creativecommons.org/ns#" xmlns:dc="http://purl.org/dc/elements/1.1/" xmlns:rdf="http://www.w3.org/1999/02/22-rdf-syntax-ns#">
   <cc:Work>
    <dc:type rdf:resource="http://purl.org/dc/dcmitype/StillImage"/>
    <dc:date>2021-01-13T12:16:58.040230</dc:date>
    <dc:format>image/svg+xml</dc:format>
    <dc:creator>
     <cc:Agent>
      <dc:title>Matplotlib v3.3.3, https://matplotlib.org/</dc:title>
     </cc:Agent>
    </dc:creator>
   </cc:Work>
  </rdf:RDF>
 </metadata>
 <defs>
  <style type="text/css">*{stroke-linecap:butt;stroke-linejoin:round;}</style>
 </defs>
 <g id="figure_1">
  <g id="patch_1">
   <path d="M 0 345.6 
L 460.8 345.6 
L 460.8 0 
L 0 0 
z
" style="fill:#ffffff;"/>
  </g>
  <g id="axes_1">
   <g id="patch_2">
    <path d="M 192.31 303.64 
L 450 303.64 
L 450 26.88 
L 192.31 26.88 
z
" style="fill:#ffffff;"/>
   </g>
   <g id="patch_3">
    <path clip-path="url(#pe72e042aea)" d="M 192.31 39.46 
L 216.851905 39.46 
L 216.851905 49.625657 
L 192.31 49.625657 
z
" style="fill:#1f77b4;"/>
   </g>
   <g id="patch_4">
    <path clip-path="url(#pe72e042aea)" d="M 192.31 52.167071 
L 216.851905 52.167071 
L 216.851905 62.332727 
L 192.31 62.332727 
z
" style="fill:#1f77b4;"/>
   </g>
   <g id="patch_5">
    <path clip-path="url(#pe72e042aea)" d="M 192.31 64.874141 
L 437.729048 64.874141 
L 437.729048 75.039798 
L 192.31 75.039798 
z
" style="fill:#1f77b4;"/>
   </g>
   <g id="patch_6">
    <path clip-path="url(#pe72e042aea)" d="M 192.31 77.581212 
L 216.851905 77.581212 
L 216.851905 87.746869 
L 192.31 87.746869 
z
" style="fill:#1f77b4;"/>
   </g>
   <g id="patch_7">
    <path clip-path="url(#pe72e042aea)" d="M 192.31 90.288283 
L 265.935714 90.288283 
L 265.935714 100.453939 
L 192.31 100.453939 
z
" style="fill:#1f77b4;"/>
   </g>
   <g id="patch_8">
    <path clip-path="url(#pe72e042aea)" d="M 192.31 102.995354 
L 216.851905 102.995354 
L 216.851905 113.16101 
L 192.31 113.16101 
z
" style="fill:#1f77b4;"/>
   </g>
   <g id="patch_9">
    <path clip-path="url(#pe72e042aea)" d="M 192.31 115.702424 
L 216.851905 115.702424 
L 216.851905 125.868081 
L 192.31 125.868081 
z
" style="fill:#1f77b4;"/>
   </g>
   <g id="patch_10">
    <path clip-path="url(#pe72e042aea)" d="M 192.31 128.409495 
L 265.935714 128.409495 
L 265.935714 138.575152 
L 192.31 138.575152 
z
" style="fill:#1f77b4;"/>
   </g>
   <g id="patch_11">
    <path clip-path="url(#pe72e042aea)" d="M 192.31 141.116566 
L 216.851905 141.116566 
L 216.851905 151.282222 
L 192.31 151.282222 
z
" style="fill:#1f77b4;"/>
   </g>
   <g id="patch_12">
    <path clip-path="url(#pe72e042aea)" d="M 192.31 153.823636 
L 315.019524 153.823636 
L 315.019524 163.989293 
L 192.31 163.989293 
z
" style="fill:#1f77b4;"/>
   </g>
   <g id="patch_13">
    <path clip-path="url(#pe72e042aea)" d="M 192.31 166.530707 
L 265.935714 166.530707 
L 265.935714 176.696364 
L 192.31 176.696364 
z
" style="fill:#1f77b4;"/>
   </g>
   <g id="patch_14">
    <path clip-path="url(#pe72e042aea)" d="M 192.31 179.237778 
L 216.851905 179.237778 
L 216.851905 189.403434 
L 192.31 189.403434 
z
" style="fill:#1f77b4;"/>
   </g>
   <g id="patch_15">
    <path clip-path="url(#pe72e042aea)" d="M 192.31 191.944848 
L 216.851905 191.944848 
L 216.851905 202.110505 
L 192.31 202.110505 
z
" style="fill:#1f77b4;"/>
   </g>
   <g id="patch_16">
    <path clip-path="url(#pe72e042aea)" d="M 192.31 204.651919 
L 216.851905 204.651919 
L 216.851905 214.817576 
L 192.31 214.817576 
z
" style="fill:#1f77b4;"/>
   </g>
   <g id="patch_17">
    <path clip-path="url(#pe72e042aea)" d="M 192.31 217.35899 
L 216.851905 217.35899 
L 216.851905 227.524646 
L 192.31 227.524646 
z
" style="fill:#1f77b4;"/>
   </g>
   <g id="patch_18">
    <path clip-path="url(#pe72e042aea)" d="M 192.31 230.066061 
L 216.851905 230.066061 
L 216.851905 240.231717 
L 192.31 240.231717 
z
" style="fill:#1f77b4;"/>
   </g>
   <g id="patch_19">
    <path clip-path="url(#pe72e042aea)" d="M 192.31 242.773131 
L 216.851905 242.773131 
L 216.851905 252.938788 
L 192.31 252.938788 
z
" style="fill:#1f77b4;"/>
   </g>
   <g id="patch_20">
    <path clip-path="url(#pe72e042aea)" d="M 192.31 255.480202 
L 216.851905 255.480202 
L 216.851905 265.645859 
L 192.31 265.645859 
z
" style="fill:#1f77b4;"/>
   </g>
   <g id="patch_21">
    <path clip-path="url(#pe72e042aea)" d="M 192.31 268.187273 
L 216.851905 268.187273 
L 216.851905 278.352929 
L 192.31 278.352929 
z
" style="fill:#1f77b4;"/>
   </g>
   <g id="patch_22">
    <path clip-path="url(#pe72e042aea)" d="M 192.31 280.894343 
L 216.851905 280.894343 
L 216.851905 291.06 
L 192.31 291.06 
z
" style="fill:#1f77b4;"/>
   </g>
   <g id="matplotlib.axis_1">
    <g id="xtick_1">
     <g id="line2d_1">
      <defs>
       <path d="M 0 0 
L 0 3.5 
" id="mf0798f6423" style="stroke:#000000;stroke-width:0.8;"/>
      </defs>
      <g>
       <use style="stroke:#000000;stroke-width:0.8;" x="192.31" xlink:href="#mf0798f6423" y="303.64"/>
      </g>
     </g>
     <g id="text_1">
      <!-- 0 -->
      <g transform="translate(189.12875 318.238437)scale(0.1 -0.1)">
       <defs>
        <path d="M 31.78125 66.40625 
Q 24.171875 66.40625 20.328125 58.90625 
Q 16.5 51.421875 16.5 36.375 
Q 16.5 21.390625 20.328125 13.890625 
Q 24.171875 6.390625 31.78125 6.390625 
Q 39.453125 6.390625 43.28125 13.890625 
Q 47.125 21.390625 47.125 36.375 
Q 47.125 51.421875 43.28125 58.90625 
Q 39.453125 66.40625 31.78125 66.40625 
z
M 31.78125 74.21875 
Q 44.046875 74.21875 50.515625 64.515625 
Q 56.984375 54.828125 56.984375 36.375 
Q 56.984375 17.96875 50.515625 8.265625 
Q 44.046875 -1.421875 31.78125 -1.421875 
Q 19.53125 -1.421875 13.0625 8.265625 
Q 6.59375 17.96875 6.59375 36.375 
Q 6.59375 54.828125 13.0625 64.515625 
Q 19.53125 74.21875 31.78125 74.21875 
z
" id="DejaVuSans-48"/>
       </defs>
       <use xlink:href="#DejaVuSans-48"/>
      </g>
     </g>
    </g>
    <g id="xtick_2">
     <g id="line2d_2">
      <g>
       <use style="stroke:#000000;stroke-width:0.8;" x="241.39381" xlink:href="#mf0798f6423" y="303.64"/>
      </g>
     </g>
     <g id="text_2">
      <!-- 2 -->
      <g transform="translate(238.21256 318.238437)scale(0.1 -0.1)">
       <defs>
        <path d="M 19.1875 8.296875 
L 53.609375 8.296875 
L 53.609375 0 
L 7.328125 0 
L 7.328125 8.296875 
Q 12.9375 14.109375 22.625 23.890625 
Q 32.328125 33.6875 34.8125 36.53125 
Q 39.546875 41.84375 41.421875 45.53125 
Q 43.3125 49.21875 43.3125 52.78125 
Q 43.3125 58.59375 39.234375 62.25 
Q 35.15625 65.921875 28.609375 65.921875 
Q 23.96875 65.921875 18.8125 64.3125 
Q 13.671875 62.703125 7.8125 59.421875 
L 7.8125 69.390625 
Q 13.765625 71.78125 18.9375 73 
Q 24.125 74.21875 28.421875 74.21875 
Q 39.75 74.21875 46.484375 68.546875 
Q 53.21875 62.890625 53.21875 53.421875 
Q 53.21875 48.921875 51.53125 44.890625 
Q 49.859375 40.875 45.40625 35.40625 
Q 44.1875 33.984375 37.640625 27.21875 
Q 31.109375 20.453125 19.1875 8.296875 
z
" id="DejaVuSans-50"/>
       </defs>
       <use xlink:href="#DejaVuSans-50"/>
      </g>
     </g>
    </g>
    <g id="xtick_3">
     <g id="line2d_3">
      <g>
       <use style="stroke:#000000;stroke-width:0.8;" x="290.477619" xlink:href="#mf0798f6423" y="303.64"/>
      </g>
     </g>
     <g id="text_3">
      <!-- 4 -->
      <g transform="translate(287.296369 318.238437)scale(0.1 -0.1)">
       <defs>
        <path d="M 37.796875 64.3125 
L 12.890625 25.390625 
L 37.796875 25.390625 
z
M 35.203125 72.90625 
L 47.609375 72.90625 
L 47.609375 25.390625 
L 58.015625 25.390625 
L 58.015625 17.1875 
L 47.609375 17.1875 
L 47.609375 0 
L 37.796875 0 
L 37.796875 17.1875 
L 4.890625 17.1875 
L 4.890625 26.703125 
z
" id="DejaVuSans-52"/>
       </defs>
       <use xlink:href="#DejaVuSans-52"/>
      </g>
     </g>
    </g>
    <g id="xtick_4">
     <g id="line2d_4">
      <g>
       <use style="stroke:#000000;stroke-width:0.8;" x="339.561429" xlink:href="#mf0798f6423" y="303.64"/>
      </g>
     </g>
     <g id="text_4">
      <!-- 6 -->
      <g transform="translate(336.380179 318.238437)scale(0.1 -0.1)">
       <defs>
        <path d="M 33.015625 40.375 
Q 26.375 40.375 22.484375 35.828125 
Q 18.609375 31.296875 18.609375 23.390625 
Q 18.609375 15.53125 22.484375 10.953125 
Q 26.375 6.390625 33.015625 6.390625 
Q 39.65625 6.390625 43.53125 10.953125 
Q 47.40625 15.53125 47.40625 23.390625 
Q 47.40625 31.296875 43.53125 35.828125 
Q 39.65625 40.375 33.015625 40.375 
z
M 52.59375 71.296875 
L 52.59375 62.3125 
Q 48.875 64.0625 45.09375 64.984375 
Q 41.3125 65.921875 37.59375 65.921875 
Q 27.828125 65.921875 22.671875 59.328125 
Q 17.53125 52.734375 16.796875 39.40625 
Q 19.671875 43.65625 24.015625 45.921875 
Q 28.375 48.1875 33.59375 48.1875 
Q 44.578125 48.1875 50.953125 41.515625 
Q 57.328125 34.859375 57.328125 23.390625 
Q 57.328125 12.15625 50.6875 5.359375 
Q 44.046875 -1.421875 33.015625 -1.421875 
Q 20.359375 -1.421875 13.671875 8.265625 
Q 6.984375 17.96875 6.984375 36.375 
Q 6.984375 53.65625 15.1875 63.9375 
Q 23.390625 74.21875 37.203125 74.21875 
Q 40.921875 74.21875 44.703125 73.484375 
Q 48.484375 72.75 52.59375 71.296875 
z
" id="DejaVuSans-54"/>
       </defs>
       <use xlink:href="#DejaVuSans-54"/>
      </g>
     </g>
    </g>
    <g id="xtick_5">
     <g id="line2d_5">
      <g>
       <use style="stroke:#000000;stroke-width:0.8;" x="388.645238" xlink:href="#mf0798f6423" y="303.64"/>
      </g>
     </g>
     <g id="text_5">
      <!-- 8 -->
      <g transform="translate(385.463988 318.238437)scale(0.1 -0.1)">
       <defs>
        <path d="M 31.78125 34.625 
Q 24.75 34.625 20.71875 30.859375 
Q 16.703125 27.09375 16.703125 20.515625 
Q 16.703125 13.921875 20.71875 10.15625 
Q 24.75 6.390625 31.78125 6.390625 
Q 38.8125 6.390625 42.859375 10.171875 
Q 46.921875 13.96875 46.921875 20.515625 
Q 46.921875 27.09375 42.890625 30.859375 
Q 38.875 34.625 31.78125 34.625 
z
M 21.921875 38.8125 
Q 15.578125 40.375 12.03125 44.71875 
Q 8.5 49.078125 8.5 55.328125 
Q 8.5 64.0625 14.71875 69.140625 
Q 20.953125 74.21875 31.78125 74.21875 
Q 42.671875 74.21875 48.875 69.140625 
Q 55.078125 64.0625 55.078125 55.328125 
Q 55.078125 49.078125 51.53125 44.71875 
Q 48 40.375 41.703125 38.8125 
Q 48.828125 37.15625 52.796875 32.3125 
Q 56.78125 27.484375 56.78125 20.515625 
Q 56.78125 9.90625 50.3125 4.234375 
Q 43.84375 -1.421875 31.78125 -1.421875 
Q 19.734375 -1.421875 13.25 4.234375 
Q 6.78125 9.90625 6.78125 20.515625 
Q 6.78125 27.484375 10.78125 32.3125 
Q 14.796875 37.15625 21.921875 38.8125 
z
M 18.3125 54.390625 
Q 18.3125 48.734375 21.84375 45.5625 
Q 25.390625 42.390625 31.78125 42.390625 
Q 38.140625 42.390625 41.71875 45.5625 
Q 45.3125 48.734375 45.3125 54.390625 
Q 45.3125 60.0625 41.71875 63.234375 
Q 38.140625 66.40625 31.78125 66.40625 
Q 25.390625 66.40625 21.84375 63.234375 
Q 18.3125 60.0625 18.3125 54.390625 
z
" id="DejaVuSans-56"/>
       </defs>
       <use xlink:href="#DejaVuSans-56"/>
      </g>
     </g>
    </g>
    <g id="xtick_6">
     <g id="line2d_6">
      <g>
       <use style="stroke:#000000;stroke-width:0.8;" x="437.729048" xlink:href="#mf0798f6423" y="303.64"/>
      </g>
     </g>
     <g id="text_6">
      <!-- 10 -->
      <g transform="translate(431.366548 318.238437)scale(0.1 -0.1)">
       <defs>
        <path d="M 12.40625 8.296875 
L 28.515625 8.296875 
L 28.515625 63.921875 
L 10.984375 60.40625 
L 10.984375 69.390625 
L 28.421875 72.90625 
L 38.28125 72.90625 
L 38.28125 8.296875 
L 54.390625 8.296875 
L 54.390625 0 
L 12.40625 0 
z
" id="DejaVuSans-49"/>
       </defs>
       <use xlink:href="#DejaVuSans-49"/>
       <use x="63.623047" xlink:href="#DejaVuSans-48"/>
      </g>
     </g>
    </g>
    <g id="text_7">
     <!-- Anzahl Artikel -->
     <g transform="translate(286.726094 331.916562)scale(0.1 -0.1)">
      <defs>
       <path d="M 34.1875 63.1875 
L 20.796875 26.90625 
L 47.609375 26.90625 
z
M 28.609375 72.90625 
L 39.796875 72.90625 
L 67.578125 0 
L 57.328125 0 
L 50.6875 18.703125 
L 17.828125 18.703125 
L 11.1875 0 
L 0.78125 0 
z
" id="DejaVuSans-65"/>
       <path d="M 54.890625 33.015625 
L 54.890625 0 
L 45.90625 0 
L 45.90625 32.71875 
Q 45.90625 40.484375 42.875 44.328125 
Q 39.84375 48.1875 33.796875 48.1875 
Q 26.515625 48.1875 22.3125 43.546875 
Q 18.109375 38.921875 18.109375 30.90625 
L 18.109375 0 
L 9.078125 0 
L 9.078125 54.6875 
L 18.109375 54.6875 
L 18.109375 46.1875 
Q 21.34375 51.125 25.703125 53.5625 
Q 30.078125 56 35.796875 56 
Q 45.21875 56 50.046875 50.171875 
Q 54.890625 44.34375 54.890625 33.015625 
z
" id="DejaVuSans-110"/>
       <path d="M 5.515625 54.6875 
L 48.1875 54.6875 
L 48.1875 46.484375 
L 14.40625 7.171875 
L 48.1875 7.171875 
L 48.1875 0 
L 4.296875 0 
L 4.296875 8.203125 
L 38.09375 47.515625 
L 5.515625 47.515625 
z
" id="DejaVuSans-122"/>
       <path d="M 34.28125 27.484375 
Q 23.390625 27.484375 19.1875 25 
Q 14.984375 22.515625 14.984375 16.5 
Q 14.984375 11.71875 18.140625 8.90625 
Q 21.296875 6.109375 26.703125 6.109375 
Q 34.1875 6.109375 38.703125 11.40625 
Q 43.21875 16.703125 43.21875 25.484375 
L 43.21875 27.484375 
z
M 52.203125 31.203125 
L 52.203125 0 
L 43.21875 0 
L 43.21875 8.296875 
Q 40.140625 3.328125 35.546875 0.953125 
Q 30.953125 -1.421875 24.3125 -1.421875 
Q 15.921875 -1.421875 10.953125 3.296875 
Q 6 8.015625 6 15.921875 
Q 6 25.140625 12.171875 29.828125 
Q 18.359375 34.515625 30.609375 34.515625 
L 43.21875 34.515625 
L 43.21875 35.40625 
Q 43.21875 41.609375 39.140625 45 
Q 35.0625 48.390625 27.6875 48.390625 
Q 23 48.390625 18.546875 47.265625 
Q 14.109375 46.140625 10.015625 43.890625 
L 10.015625 52.203125 
Q 14.9375 54.109375 19.578125 55.046875 
Q 24.21875 56 28.609375 56 
Q 40.484375 56 46.34375 49.84375 
Q 52.203125 43.703125 52.203125 31.203125 
z
" id="DejaVuSans-97"/>
       <path d="M 54.890625 33.015625 
L 54.890625 0 
L 45.90625 0 
L 45.90625 32.71875 
Q 45.90625 40.484375 42.875 44.328125 
Q 39.84375 48.1875 33.796875 48.1875 
Q 26.515625 48.1875 22.3125 43.546875 
Q 18.109375 38.921875 18.109375 30.90625 
L 18.109375 0 
L 9.078125 0 
L 9.078125 75.984375 
L 18.109375 75.984375 
L 18.109375 46.1875 
Q 21.34375 51.125 25.703125 53.5625 
Q 30.078125 56 35.796875 56 
Q 45.21875 56 50.046875 50.171875 
Q 54.890625 44.34375 54.890625 33.015625 
z
" id="DejaVuSans-104"/>
       <path d="M 9.421875 75.984375 
L 18.40625 75.984375 
L 18.40625 0 
L 9.421875 0 
z
" id="DejaVuSans-108"/>
       <path id="DejaVuSans-32"/>
       <path d="M 41.109375 46.296875 
Q 39.59375 47.171875 37.8125 47.578125 
Q 36.03125 48 33.890625 48 
Q 26.265625 48 22.1875 43.046875 
Q 18.109375 38.09375 18.109375 28.8125 
L 18.109375 0 
L 9.078125 0 
L 9.078125 54.6875 
L 18.109375 54.6875 
L 18.109375 46.1875 
Q 20.953125 51.171875 25.484375 53.578125 
Q 30.03125 56 36.53125 56 
Q 37.453125 56 38.578125 55.875 
Q 39.703125 55.765625 41.0625 55.515625 
z
" id="DejaVuSans-114"/>
       <path d="M 18.3125 70.21875 
L 18.3125 54.6875 
L 36.8125 54.6875 
L 36.8125 47.703125 
L 18.3125 47.703125 
L 18.3125 18.015625 
Q 18.3125 11.328125 20.140625 9.421875 
Q 21.96875 7.515625 27.59375 7.515625 
L 36.8125 7.515625 
L 36.8125 0 
L 27.59375 0 
Q 17.1875 0 13.234375 3.875 
Q 9.28125 7.765625 9.28125 18.015625 
L 9.28125 47.703125 
L 2.6875 47.703125 
L 2.6875 54.6875 
L 9.28125 54.6875 
L 9.28125 70.21875 
z
" id="DejaVuSans-116"/>
       <path d="M 9.421875 54.6875 
L 18.40625 54.6875 
L 18.40625 0 
L 9.421875 0 
z
M 9.421875 75.984375 
L 18.40625 75.984375 
L 18.40625 64.59375 
L 9.421875 64.59375 
z
" id="DejaVuSans-105"/>
       <path d="M 9.078125 75.984375 
L 18.109375 75.984375 
L 18.109375 31.109375 
L 44.921875 54.6875 
L 56.390625 54.6875 
L 27.390625 29.109375 
L 57.625 0 
L 45.90625 0 
L 18.109375 26.703125 
L 18.109375 0 
L 9.078125 0 
z
" id="DejaVuSans-107"/>
       <path d="M 56.203125 29.59375 
L 56.203125 25.203125 
L 14.890625 25.203125 
Q 15.484375 15.921875 20.484375 11.0625 
Q 25.484375 6.203125 34.421875 6.203125 
Q 39.59375 6.203125 44.453125 7.46875 
Q 49.3125 8.734375 54.109375 11.28125 
L 54.109375 2.78125 
Q 49.265625 0.734375 44.1875 -0.34375 
Q 39.109375 -1.421875 33.890625 -1.421875 
Q 20.796875 -1.421875 13.15625 6.1875 
Q 5.515625 13.8125 5.515625 26.8125 
Q 5.515625 40.234375 12.765625 48.109375 
Q 20.015625 56 32.328125 56 
Q 43.359375 56 49.78125 48.890625 
Q 56.203125 41.796875 56.203125 29.59375 
z
M 47.21875 32.234375 
Q 47.125 39.59375 43.09375 43.984375 
Q 39.0625 48.390625 32.421875 48.390625 
Q 24.90625 48.390625 20.390625 44.140625 
Q 15.875 39.890625 15.1875 32.171875 
z
" id="DejaVuSans-101"/>
      </defs>
      <use xlink:href="#DejaVuSans-65"/>
      <use x="68.408203" xlink:href="#DejaVuSans-110"/>
      <use x="131.787109" xlink:href="#DejaVuSans-122"/>
      <use x="184.277344" xlink:href="#DejaVuSans-97"/>
      <use x="245.556641" xlink:href="#DejaVuSans-104"/>
      <use x="308.935547" xlink:href="#DejaVuSans-108"/>
      <use x="336.71875" xlink:href="#DejaVuSans-32"/>
      <use x="368.505859" xlink:href="#DejaVuSans-65"/>
      <use x="436.914062" xlink:href="#DejaVuSans-114"/>
      <use x="478.027344" xlink:href="#DejaVuSans-116"/>
      <use x="517.236328" xlink:href="#DejaVuSans-105"/>
      <use x="545.019531" xlink:href="#DejaVuSans-107"/>
      <use x="599.304688" xlink:href="#DejaVuSans-101"/>
      <use x="660.828125" xlink:href="#DejaVuSans-108"/>
     </g>
    </g>
   </g>
   <g id="matplotlib.axis_2">
    <g id="ytick_1">
     <g id="line2d_7">
      <defs>
       <path d="M 0 0 
L -3.5 0 
" id="m85a2e4463b" style="stroke:#000000;stroke-width:0.8;"/>
      </defs>
      <g>
       <use style="stroke:#000000;stroke-width:0.8;" x="192.31" xlink:href="#m85a2e4463b" y="44.542828"/>
      </g>
     </g>
     <g id="text_8">
      <!-- Fabian Kretschmer -->
      <g transform="translate(92.005313 48.342047)scale(0.1 -0.1)">
       <defs>
        <path d="M 9.8125 72.90625 
L 51.703125 72.90625 
L 51.703125 64.59375 
L 19.671875 64.59375 
L 19.671875 43.109375 
L 48.578125 43.109375 
L 48.578125 34.8125 
L 19.671875 34.8125 
L 19.671875 0 
L 9.8125 0 
z
" id="DejaVuSans-70"/>
        <path d="M 48.6875 27.296875 
Q 48.6875 37.203125 44.609375 42.84375 
Q 40.53125 48.484375 33.40625 48.484375 
Q 26.265625 48.484375 22.1875 42.84375 
Q 18.109375 37.203125 18.109375 27.296875 
Q 18.109375 17.390625 22.1875 11.75 
Q 26.265625 6.109375 33.40625 6.109375 
Q 40.53125 6.109375 44.609375 11.75 
Q 48.6875 17.390625 48.6875 27.296875 
z
M 18.109375 46.390625 
Q 20.953125 51.265625 25.265625 53.625 
Q 29.59375 56 35.59375 56 
Q 45.5625 56 51.78125 48.09375 
Q 58.015625 40.1875 58.015625 27.296875 
Q 58.015625 14.40625 51.78125 6.484375 
Q 45.5625 -1.421875 35.59375 -1.421875 
Q 29.59375 -1.421875 25.265625 0.953125 
Q 20.953125 3.328125 18.109375 8.203125 
L 18.109375 0 
L 9.078125 0 
L 9.078125 75.984375 
L 18.109375 75.984375 
z
" id="DejaVuSans-98"/>
        <path d="M 9.8125 72.90625 
L 19.671875 72.90625 
L 19.671875 42.09375 
L 52.390625 72.90625 
L 65.09375 72.90625 
L 28.90625 38.921875 
L 67.671875 0 
L 54.6875 0 
L 19.671875 35.109375 
L 19.671875 0 
L 9.8125 0 
z
" id="DejaVuSans-75"/>
        <path d="M 44.28125 53.078125 
L 44.28125 44.578125 
Q 40.484375 46.53125 36.375 47.5 
Q 32.28125 48.484375 27.875 48.484375 
Q 21.1875 48.484375 17.84375 46.4375 
Q 14.5 44.390625 14.5 40.28125 
Q 14.5 37.15625 16.890625 35.375 
Q 19.28125 33.59375 26.515625 31.984375 
L 29.59375 31.296875 
Q 39.15625 29.25 43.1875 25.515625 
Q 47.21875 21.78125 47.21875 15.09375 
Q 47.21875 7.46875 41.1875 3.015625 
Q 35.15625 -1.421875 24.609375 -1.421875 
Q 20.21875 -1.421875 15.453125 -0.5625 
Q 10.6875 0.296875 5.421875 2 
L 5.421875 11.28125 
Q 10.40625 8.6875 15.234375 7.390625 
Q 20.0625 6.109375 24.8125 6.109375 
Q 31.15625 6.109375 34.5625 8.28125 
Q 37.984375 10.453125 37.984375 14.40625 
Q 37.984375 18.0625 35.515625 20.015625 
Q 33.0625 21.96875 24.703125 23.78125 
L 21.578125 24.515625 
Q 13.234375 26.265625 9.515625 29.90625 
Q 5.8125 33.546875 5.8125 39.890625 
Q 5.8125 47.609375 11.28125 51.796875 
Q 16.75 56 26.8125 56 
Q 31.78125 56 36.171875 55.265625 
Q 40.578125 54.546875 44.28125 53.078125 
z
" id="DejaVuSans-115"/>
        <path d="M 48.78125 52.59375 
L 48.78125 44.1875 
Q 44.96875 46.296875 41.140625 47.34375 
Q 37.3125 48.390625 33.40625 48.390625 
Q 24.65625 48.390625 19.8125 42.84375 
Q 14.984375 37.3125 14.984375 27.296875 
Q 14.984375 17.28125 19.8125 11.734375 
Q 24.65625 6.203125 33.40625 6.203125 
Q 37.3125 6.203125 41.140625 7.25 
Q 44.96875 8.296875 48.78125 10.40625 
L 48.78125 2.09375 
Q 45.015625 0.34375 40.984375 -0.53125 
Q 36.96875 -1.421875 32.421875 -1.421875 
Q 20.0625 -1.421875 12.78125 6.34375 
Q 5.515625 14.109375 5.515625 27.296875 
Q 5.515625 40.671875 12.859375 48.328125 
Q 20.21875 56 33.015625 56 
Q 37.15625 56 41.109375 55.140625 
Q 45.0625 54.296875 48.78125 52.59375 
z
" id="DejaVuSans-99"/>
        <path d="M 52 44.1875 
Q 55.375 50.25 60.0625 53.125 
Q 64.75 56 71.09375 56 
Q 79.640625 56 84.28125 50.015625 
Q 88.921875 44.046875 88.921875 33.015625 
L 88.921875 0 
L 79.890625 0 
L 79.890625 32.71875 
Q 79.890625 40.578125 77.09375 44.375 
Q 74.3125 48.1875 68.609375 48.1875 
Q 61.625 48.1875 57.5625 43.546875 
Q 53.515625 38.921875 53.515625 30.90625 
L 53.515625 0 
L 44.484375 0 
L 44.484375 32.71875 
Q 44.484375 40.625 41.703125 44.40625 
Q 38.921875 48.1875 33.109375 48.1875 
Q 26.21875 48.1875 22.15625 43.53125 
Q 18.109375 38.875 18.109375 30.90625 
L 18.109375 0 
L 9.078125 0 
L 9.078125 54.6875 
L 18.109375 54.6875 
L 18.109375 46.1875 
Q 21.1875 51.21875 25.484375 53.609375 
Q 29.78125 56 35.6875 56 
Q 41.65625 56 45.828125 52.96875 
Q 50 49.953125 52 44.1875 
z
" id="DejaVuSans-109"/>
       </defs>
       <use xlink:href="#DejaVuSans-70"/>
       <use x="48.394531" xlink:href="#DejaVuSans-97"/>
       <use x="109.673828" xlink:href="#DejaVuSans-98"/>
       <use x="173.150391" xlink:href="#DejaVuSans-105"/>
       <use x="200.933594" xlink:href="#DejaVuSans-97"/>
       <use x="262.212891" xlink:href="#DejaVuSans-110"/>
       <use x="325.591797" xlink:href="#DejaVuSans-32"/>
       <use x="357.378906" xlink:href="#DejaVuSans-75"/>
       <use x="422.955078" xlink:href="#DejaVuSans-114"/>
       <use x="461.818359" xlink:href="#DejaVuSans-101"/>
       <use x="523.341797" xlink:href="#DejaVuSans-116"/>
       <use x="562.550781" xlink:href="#DejaVuSans-115"/>
       <use x="614.650391" xlink:href="#DejaVuSans-99"/>
       <use x="669.630859" xlink:href="#DejaVuSans-104"/>
       <use x="733.009766" xlink:href="#DejaVuSans-109"/>
       <use x="830.421875" xlink:href="#DejaVuSans-101"/>
       <use x="891.945312" xlink:href="#DejaVuSans-114"/>
      </g>
     </g>
    </g>
    <g id="ytick_2">
     <g id="line2d_8">
      <g>
       <use style="stroke:#000000;stroke-width:0.8;" x="192.31" xlink:href="#m85a2e4463b" y="57.249899"/>
      </g>
     </g>
     <g id="text_9">
      <!-- Svenja Bergt -->
      <g transform="translate(121.249062 61.049118)scale(0.1 -0.1)">
       <defs>
        <path d="M 53.515625 70.515625 
L 53.515625 60.890625 
Q 47.90625 63.578125 42.921875 64.890625 
Q 37.9375 66.21875 33.296875 66.21875 
Q 25.25 66.21875 20.875 63.09375 
Q 16.5 59.96875 16.5 54.203125 
Q 16.5 49.359375 19.40625 46.890625 
Q 22.3125 44.4375 30.421875 42.921875 
L 36.375 41.703125 
Q 47.40625 39.59375 52.65625 34.296875 
Q 57.90625 29 57.90625 20.125 
Q 57.90625 9.515625 50.796875 4.046875 
Q 43.703125 -1.421875 29.984375 -1.421875 
Q 24.8125 -1.421875 18.96875 -0.25 
Q 13.140625 0.921875 6.890625 3.21875 
L 6.890625 13.375 
Q 12.890625 10.015625 18.65625 8.296875 
Q 24.421875 6.59375 29.984375 6.59375 
Q 38.421875 6.59375 43.015625 9.90625 
Q 47.609375 13.234375 47.609375 19.390625 
Q 47.609375 24.75 44.3125 27.78125 
Q 41.015625 30.8125 33.5 32.328125 
L 27.484375 33.5 
Q 16.453125 35.6875 11.515625 40.375 
Q 6.59375 45.0625 6.59375 53.421875 
Q 6.59375 63.09375 13.40625 68.65625 
Q 20.21875 74.21875 32.171875 74.21875 
Q 37.3125 74.21875 42.625 73.28125 
Q 47.953125 72.359375 53.515625 70.515625 
z
" id="DejaVuSans-83"/>
        <path d="M 2.984375 54.6875 
L 12.5 54.6875 
L 29.59375 8.796875 
L 46.6875 54.6875 
L 56.203125 54.6875 
L 35.6875 0 
L 23.484375 0 
z
" id="DejaVuSans-118"/>
        <path d="M 9.421875 54.6875 
L 18.40625 54.6875 
L 18.40625 -0.984375 
Q 18.40625 -11.421875 14.421875 -16.109375 
Q 10.453125 -20.796875 1.609375 -20.796875 
L -1.8125 -20.796875 
L -1.8125 -13.1875 
L 0.59375 -13.1875 
Q 5.71875 -13.1875 7.5625 -10.8125 
Q 9.421875 -8.453125 9.421875 -0.984375 
z
M 9.421875 75.984375 
L 18.40625 75.984375 
L 18.40625 64.59375 
L 9.421875 64.59375 
z
" id="DejaVuSans-106"/>
        <path d="M 19.671875 34.8125 
L 19.671875 8.109375 
L 35.5 8.109375 
Q 43.453125 8.109375 47.28125 11.40625 
Q 51.125 14.703125 51.125 21.484375 
Q 51.125 28.328125 47.28125 31.5625 
Q 43.453125 34.8125 35.5 34.8125 
z
M 19.671875 64.796875 
L 19.671875 42.828125 
L 34.28125 42.828125 
Q 41.5 42.828125 45.03125 45.53125 
Q 48.578125 48.25 48.578125 53.8125 
Q 48.578125 59.328125 45.03125 62.0625 
Q 41.5 64.796875 34.28125 64.796875 
z
M 9.8125 72.90625 
L 35.015625 72.90625 
Q 46.296875 72.90625 52.390625 68.21875 
Q 58.5 63.53125 58.5 54.890625 
Q 58.5 48.1875 55.375 44.234375 
Q 52.25 40.28125 46.1875 39.3125 
Q 53.46875 37.75 57.5 32.78125 
Q 61.53125 27.828125 61.53125 20.40625 
Q 61.53125 10.640625 54.890625 5.3125 
Q 48.25 0 35.984375 0 
L 9.8125 0 
z
" id="DejaVuSans-66"/>
        <path d="M 45.40625 27.984375 
Q 45.40625 37.75 41.375 43.109375 
Q 37.359375 48.484375 30.078125 48.484375 
Q 22.859375 48.484375 18.828125 43.109375 
Q 14.796875 37.75 14.796875 27.984375 
Q 14.796875 18.265625 18.828125 12.890625 
Q 22.859375 7.515625 30.078125 7.515625 
Q 37.359375 7.515625 41.375 12.890625 
Q 45.40625 18.265625 45.40625 27.984375 
z
M 54.390625 6.78125 
Q 54.390625 -7.171875 48.1875 -13.984375 
Q 42 -20.796875 29.203125 -20.796875 
Q 24.46875 -20.796875 20.265625 -20.09375 
Q 16.0625 -19.390625 12.109375 -17.921875 
L 12.109375 -9.1875 
Q 16.0625 -11.328125 19.921875 -12.34375 
Q 23.78125 -13.375 27.78125 -13.375 
Q 36.625 -13.375 41.015625 -8.765625 
Q 45.40625 -4.15625 45.40625 5.171875 
L 45.40625 9.625 
Q 42.625 4.78125 38.28125 2.390625 
Q 33.9375 0 27.875 0 
Q 17.828125 0 11.671875 7.65625 
Q 5.515625 15.328125 5.515625 27.984375 
Q 5.515625 40.671875 11.671875 48.328125 
Q 17.828125 56 27.875 56 
Q 33.9375 56 38.28125 53.609375 
Q 42.625 51.21875 45.40625 46.390625 
L 45.40625 54.6875 
L 54.390625 54.6875 
z
" id="DejaVuSans-103"/>
       </defs>
       <use xlink:href="#DejaVuSans-83"/>
       <use x="63.476562" xlink:href="#DejaVuSans-118"/>
       <use x="122.65625" xlink:href="#DejaVuSans-101"/>
       <use x="184.179688" xlink:href="#DejaVuSans-110"/>
       <use x="247.558594" xlink:href="#DejaVuSans-106"/>
       <use x="275.341797" xlink:href="#DejaVuSans-97"/>
       <use x="336.621094" xlink:href="#DejaVuSans-32"/>
       <use x="368.408203" xlink:href="#DejaVuSans-66"/>
       <use x="437.011719" xlink:href="#DejaVuSans-101"/>
       <use x="498.535156" xlink:href="#DejaVuSans-114"/>
       <use x="537.898438" xlink:href="#DejaVuSans-103"/>
       <use x="601.375" xlink:href="#DejaVuSans-116"/>
      </g>
     </g>
    </g>
    <g id="ytick_3">
     <g id="line2d_9">
      <g>
       <use style="stroke:#000000;stroke-width:0.8;" x="192.31" xlink:href="#m85a2e4463b" y="69.95697"/>
      </g>
     </g>
     <g id="text_10">
      <!-- Manfred Ronzheimer -->
      <g transform="translate(81.65375 73.756188)scale(0.1 -0.1)">
       <defs>
        <path d="M 9.8125 72.90625 
L 24.515625 72.90625 
L 43.109375 23.296875 
L 61.8125 72.90625 
L 76.515625 72.90625 
L 76.515625 0 
L 66.890625 0 
L 66.890625 64.015625 
L 48.09375 14.015625 
L 38.1875 14.015625 
L 19.390625 64.015625 
L 19.390625 0 
L 9.8125 0 
z
" id="DejaVuSans-77"/>
        <path d="M 37.109375 75.984375 
L 37.109375 68.5 
L 28.515625 68.5 
Q 23.6875 68.5 21.796875 66.546875 
Q 19.921875 64.59375 19.921875 59.515625 
L 19.921875 54.6875 
L 34.71875 54.6875 
L 34.71875 47.703125 
L 19.921875 47.703125 
L 19.921875 0 
L 10.890625 0 
L 10.890625 47.703125 
L 2.296875 47.703125 
L 2.296875 54.6875 
L 10.890625 54.6875 
L 10.890625 58.5 
Q 10.890625 67.625 15.140625 71.796875 
Q 19.390625 75.984375 28.609375 75.984375 
z
" id="DejaVuSans-102"/>
        <path d="M 45.40625 46.390625 
L 45.40625 75.984375 
L 54.390625 75.984375 
L 54.390625 0 
L 45.40625 0 
L 45.40625 8.203125 
Q 42.578125 3.328125 38.25 0.953125 
Q 33.9375 -1.421875 27.875 -1.421875 
Q 17.96875 -1.421875 11.734375 6.484375 
Q 5.515625 14.40625 5.515625 27.296875 
Q 5.515625 40.1875 11.734375 48.09375 
Q 17.96875 56 27.875 56 
Q 33.9375 56 38.25 53.625 
Q 42.578125 51.265625 45.40625 46.390625 
z
M 14.796875 27.296875 
Q 14.796875 17.390625 18.875 11.75 
Q 22.953125 6.109375 30.078125 6.109375 
Q 37.203125 6.109375 41.296875 11.75 
Q 45.40625 17.390625 45.40625 27.296875 
Q 45.40625 37.203125 41.296875 42.84375 
Q 37.203125 48.484375 30.078125 48.484375 
Q 22.953125 48.484375 18.875 42.84375 
Q 14.796875 37.203125 14.796875 27.296875 
z
" id="DejaVuSans-100"/>
        <path d="M 44.390625 34.1875 
Q 47.5625 33.109375 50.5625 29.59375 
Q 53.5625 26.078125 56.59375 19.921875 
L 66.609375 0 
L 56 0 
L 46.6875 18.703125 
Q 43.0625 26.03125 39.671875 28.421875 
Q 36.28125 30.8125 30.421875 30.8125 
L 19.671875 30.8125 
L 19.671875 0 
L 9.8125 0 
L 9.8125 72.90625 
L 32.078125 72.90625 
Q 44.578125 72.90625 50.734375 67.671875 
Q 56.890625 62.453125 56.890625 51.90625 
Q 56.890625 45.015625 53.6875 40.46875 
Q 50.484375 35.9375 44.390625 34.1875 
z
M 19.671875 64.796875 
L 19.671875 38.921875 
L 32.078125 38.921875 
Q 39.203125 38.921875 42.84375 42.21875 
Q 46.484375 45.515625 46.484375 51.90625 
Q 46.484375 58.296875 42.84375 61.546875 
Q 39.203125 64.796875 32.078125 64.796875 
z
" id="DejaVuSans-82"/>
        <path d="M 30.609375 48.390625 
Q 23.390625 48.390625 19.1875 42.75 
Q 14.984375 37.109375 14.984375 27.296875 
Q 14.984375 17.484375 19.15625 11.84375 
Q 23.34375 6.203125 30.609375 6.203125 
Q 37.796875 6.203125 41.984375 11.859375 
Q 46.1875 17.53125 46.1875 27.296875 
Q 46.1875 37.015625 41.984375 42.703125 
Q 37.796875 48.390625 30.609375 48.390625 
z
M 30.609375 56 
Q 42.328125 56 49.015625 48.375 
Q 55.71875 40.765625 55.71875 27.296875 
Q 55.71875 13.875 49.015625 6.21875 
Q 42.328125 -1.421875 30.609375 -1.421875 
Q 18.84375 -1.421875 12.171875 6.21875 
Q 5.515625 13.875 5.515625 27.296875 
Q 5.515625 40.765625 12.171875 48.375 
Q 18.84375 56 30.609375 56 
z
" id="DejaVuSans-111"/>
       </defs>
       <use xlink:href="#DejaVuSans-77"/>
       <use x="86.279297" xlink:href="#DejaVuSans-97"/>
       <use x="147.558594" xlink:href="#DejaVuSans-110"/>
       <use x="210.9375" xlink:href="#DejaVuSans-102"/>
       <use x="246.142578" xlink:href="#DejaVuSans-114"/>
       <use x="285.005859" xlink:href="#DejaVuSans-101"/>
       <use x="346.529297" xlink:href="#DejaVuSans-100"/>
       <use x="410.005859" xlink:href="#DejaVuSans-32"/>
       <use x="441.792969" xlink:href="#DejaVuSans-82"/>
       <use x="506.775391" xlink:href="#DejaVuSans-111"/>
       <use x="567.957031" xlink:href="#DejaVuSans-110"/>
       <use x="631.335938" xlink:href="#DejaVuSans-122"/>
       <use x="683.826172" xlink:href="#DejaVuSans-104"/>
       <use x="747.205078" xlink:href="#DejaVuSans-101"/>
       <use x="808.728516" xlink:href="#DejaVuSans-105"/>
       <use x="836.511719" xlink:href="#DejaVuSans-109"/>
       <use x="933.923828" xlink:href="#DejaVuSans-101"/>
       <use x="995.447266" xlink:href="#DejaVuSans-114"/>
      </g>
     </g>
    </g>
    <g id="ytick_4">
     <g id="line2d_10">
      <g>
       <use style="stroke:#000000;stroke-width:0.8;" x="192.31" xlink:href="#m85a2e4463b" y="82.66404"/>
      </g>
     </g>
     <g id="text_11">
      <!-- Andreas Ruhsert -->
      <g transform="translate(102.661563 86.463259)scale(0.1 -0.1)">
       <defs>
        <path d="M 8.5 21.578125 
L 8.5 54.6875 
L 17.484375 54.6875 
L 17.484375 21.921875 
Q 17.484375 14.15625 20.5 10.265625 
Q 23.53125 6.390625 29.59375 6.390625 
Q 36.859375 6.390625 41.078125 11.03125 
Q 45.3125 15.671875 45.3125 23.6875 
L 45.3125 54.6875 
L 54.296875 54.6875 
L 54.296875 0 
L 45.3125 0 
L 45.3125 8.40625 
Q 42.046875 3.421875 37.71875 1 
Q 33.40625 -1.421875 27.6875 -1.421875 
Q 18.265625 -1.421875 13.375 4.4375 
Q 8.5 10.296875 8.5 21.578125 
z
M 31.109375 56 
z
" id="DejaVuSans-117"/>
       </defs>
       <use xlink:href="#DejaVuSans-65"/>
       <use x="68.408203" xlink:href="#DejaVuSans-110"/>
       <use x="131.787109" xlink:href="#DejaVuSans-100"/>
       <use x="195.263672" xlink:href="#DejaVuSans-114"/>
       <use x="234.126953" xlink:href="#DejaVuSans-101"/>
       <use x="295.650391" xlink:href="#DejaVuSans-97"/>
       <use x="356.929688" xlink:href="#DejaVuSans-115"/>
       <use x="409.029297" xlink:href="#DejaVuSans-32"/>
       <use x="440.816406" xlink:href="#DejaVuSans-82"/>
       <use x="505.798828" xlink:href="#DejaVuSans-117"/>
       <use x="569.177734" xlink:href="#DejaVuSans-104"/>
       <use x="632.556641" xlink:href="#DejaVuSans-115"/>
       <use x="684.65625" xlink:href="#DejaVuSans-101"/>
       <use x="746.179688" xlink:href="#DejaVuSans-114"/>
       <use x="787.292969" xlink:href="#DejaVuSans-116"/>
      </g>
     </g>
    </g>
    <g id="ytick_5">
     <g id="line2d_11">
      <g>
       <use style="stroke:#000000;stroke-width:0.8;" x="192.31" xlink:href="#m85a2e4463b" y="95.371111"/>
      </g>
     </g>
     <g id="text_12">
      <!-- Von unserer Kooperationspartnerin -->
      <g transform="translate(10.619375 99.17033)scale(0.1 -0.1)">
       <defs>
        <path d="M 28.609375 0 
L 0.78125 72.90625 
L 11.078125 72.90625 
L 34.1875 11.53125 
L 57.328125 72.90625 
L 67.578125 72.90625 
L 39.796875 0 
z
" id="DejaVuSans-86"/>
        <path d="M 18.109375 8.203125 
L 18.109375 -20.796875 
L 9.078125 -20.796875 
L 9.078125 54.6875 
L 18.109375 54.6875 
L 18.109375 46.390625 
Q 20.953125 51.265625 25.265625 53.625 
Q 29.59375 56 35.59375 56 
Q 45.5625 56 51.78125 48.09375 
Q 58.015625 40.1875 58.015625 27.296875 
Q 58.015625 14.40625 51.78125 6.484375 
Q 45.5625 -1.421875 35.59375 -1.421875 
Q 29.59375 -1.421875 25.265625 0.953125 
Q 20.953125 3.328125 18.109375 8.203125 
z
M 48.6875 27.296875 
Q 48.6875 37.203125 44.609375 42.84375 
Q 40.53125 48.484375 33.40625 48.484375 
Q 26.265625 48.484375 22.1875 42.84375 
Q 18.109375 37.203125 18.109375 27.296875 
Q 18.109375 17.390625 22.1875 11.75 
Q 26.265625 6.109375 33.40625 6.109375 
Q 40.53125 6.109375 44.609375 11.75 
Q 48.6875 17.390625 48.6875 27.296875 
z
" id="DejaVuSans-112"/>
       </defs>
       <use xlink:href="#DejaVuSans-86"/>
       <use x="60.658203" xlink:href="#DejaVuSans-111"/>
       <use x="121.839844" xlink:href="#DejaVuSans-110"/>
       <use x="185.21875" xlink:href="#DejaVuSans-32"/>
       <use x="217.005859" xlink:href="#DejaVuSans-117"/>
       <use x="280.384766" xlink:href="#DejaVuSans-110"/>
       <use x="343.763672" xlink:href="#DejaVuSans-115"/>
       <use x="395.863281" xlink:href="#DejaVuSans-101"/>
       <use x="457.386719" xlink:href="#DejaVuSans-114"/>
       <use x="496.25" xlink:href="#DejaVuSans-101"/>
       <use x="557.773438" xlink:href="#DejaVuSans-114"/>
       <use x="598.886719" xlink:href="#DejaVuSans-32"/>
       <use x="630.673828" xlink:href="#DejaVuSans-75"/>
       <use x="691.25" xlink:href="#DejaVuSans-111"/>
       <use x="752.431641" xlink:href="#DejaVuSans-111"/>
       <use x="813.613281" xlink:href="#DejaVuSans-112"/>
       <use x="877.089844" xlink:href="#DejaVuSans-101"/>
       <use x="938.613281" xlink:href="#DejaVuSans-114"/>
       <use x="979.726562" xlink:href="#DejaVuSans-97"/>
       <use x="1041.005859" xlink:href="#DejaVuSans-116"/>
       <use x="1080.214844" xlink:href="#DejaVuSans-105"/>
       <use x="1107.998047" xlink:href="#DejaVuSans-111"/>
       <use x="1169.179688" xlink:href="#DejaVuSans-110"/>
       <use x="1232.558594" xlink:href="#DejaVuSans-115"/>
       <use x="1284.658203" xlink:href="#DejaVuSans-112"/>
       <use x="1348.134766" xlink:href="#DejaVuSans-97"/>
       <use x="1409.414062" xlink:href="#DejaVuSans-114"/>
       <use x="1450.527344" xlink:href="#DejaVuSans-116"/>
       <use x="1489.736328" xlink:href="#DejaVuSans-110"/>
       <use x="1553.115234" xlink:href="#DejaVuSans-101"/>
       <use x="1614.638672" xlink:href="#DejaVuSans-114"/>
       <use x="1655.751953" xlink:href="#DejaVuSans-105"/>
       <use x="1683.535156" xlink:href="#DejaVuSans-110"/>
      </g>
     </g>
    </g>
    <g id="ytick_6">
     <g id="line2d_12">
      <g>
       <use style="stroke:#000000;stroke-width:0.8;" x="192.31" xlink:href="#m85a2e4463b" y="108.078182"/>
      </g>
     </g>
     <g id="text_13">
      <!-- Anders Levermann -->
      <g transform="translate(91.030312 111.877401)scale(0.1 -0.1)">
       <defs>
        <path d="M 9.8125 72.90625 
L 19.671875 72.90625 
L 19.671875 8.296875 
L 55.171875 8.296875 
L 55.171875 0 
L 9.8125 0 
z
" id="DejaVuSans-76"/>
       </defs>
       <use xlink:href="#DejaVuSans-65"/>
       <use x="68.408203" xlink:href="#DejaVuSans-110"/>
       <use x="131.787109" xlink:href="#DejaVuSans-100"/>
       <use x="195.263672" xlink:href="#DejaVuSans-101"/>
       <use x="256.787109" xlink:href="#DejaVuSans-114"/>
       <use x="297.900391" xlink:href="#DejaVuSans-115"/>
       <use x="350" xlink:href="#DejaVuSans-32"/>
       <use x="381.787109" xlink:href="#DejaVuSans-76"/>
       <use x="435.75" xlink:href="#DejaVuSans-101"/>
       <use x="497.273438" xlink:href="#DejaVuSans-118"/>
       <use x="556.453125" xlink:href="#DejaVuSans-101"/>
       <use x="617.976562" xlink:href="#DejaVuSans-114"/>
       <use x="657.339844" xlink:href="#DejaVuSans-109"/>
       <use x="754.751953" xlink:href="#DejaVuSans-97"/>
       <use x="816.03125" xlink:href="#DejaVuSans-110"/>
       <use x="879.410156" xlink:href="#DejaVuSans-110"/>
      </g>
     </g>
    </g>
    <g id="ytick_7">
     <g id="line2d_13">
      <g>
       <use style="stroke:#000000;stroke-width:0.8;" x="192.31" xlink:href="#m85a2e4463b" y="120.785253"/>
      </g>
     </g>
     <g id="text_14">
      <!-- Hanna Gersmann -->
      <g transform="translate(97.914687 124.584471)scale(0.1 -0.1)">
       <defs>
        <path d="M 9.8125 72.90625 
L 19.671875 72.90625 
L 19.671875 43.015625 
L 55.515625 43.015625 
L 55.515625 72.90625 
L 65.375 72.90625 
L 65.375 0 
L 55.515625 0 
L 55.515625 34.71875 
L 19.671875 34.71875 
L 19.671875 0 
L 9.8125 0 
z
" id="DejaVuSans-72"/>
        <path d="M 59.515625 10.40625 
L 59.515625 29.984375 
L 43.40625 29.984375 
L 43.40625 38.09375 
L 69.28125 38.09375 
L 69.28125 6.78125 
Q 63.578125 2.734375 56.6875 0.65625 
Q 49.8125 -1.421875 42 -1.421875 
Q 24.90625 -1.421875 15.25 8.5625 
Q 5.609375 18.5625 5.609375 36.375 
Q 5.609375 54.25 15.25 64.234375 
Q 24.90625 74.21875 42 74.21875 
Q 49.125 74.21875 55.546875 72.453125 
Q 61.96875 70.703125 67.390625 67.28125 
L 67.390625 56.78125 
Q 61.921875 61.421875 55.765625 63.765625 
Q 49.609375 66.109375 42.828125 66.109375 
Q 29.4375 66.109375 22.71875 58.640625 
Q 16.015625 51.171875 16.015625 36.375 
Q 16.015625 21.625 22.71875 14.15625 
Q 29.4375 6.6875 42.828125 6.6875 
Q 48.046875 6.6875 52.140625 7.59375 
Q 56.25 8.5 59.515625 10.40625 
z
" id="DejaVuSans-71"/>
       </defs>
       <use xlink:href="#DejaVuSans-72"/>
       <use x="75.195312" xlink:href="#DejaVuSans-97"/>
       <use x="136.474609" xlink:href="#DejaVuSans-110"/>
       <use x="199.853516" xlink:href="#DejaVuSans-110"/>
       <use x="263.232422" xlink:href="#DejaVuSans-97"/>
       <use x="324.511719" xlink:href="#DejaVuSans-32"/>
       <use x="356.298828" xlink:href="#DejaVuSans-71"/>
       <use x="433.789062" xlink:href="#DejaVuSans-101"/>
       <use x="495.3125" xlink:href="#DejaVuSans-114"/>
       <use x="536.425781" xlink:href="#DejaVuSans-115"/>
       <use x="588.525391" xlink:href="#DejaVuSans-109"/>
       <use x="685.9375" xlink:href="#DejaVuSans-97"/>
       <use x="747.216797" xlink:href="#DejaVuSans-110"/>
       <use x="810.595703" xlink:href="#DejaVuSans-110"/>
      </g>
     </g>
    </g>
    <g id="ytick_8">
     <g id="line2d_14">
      <g>
       <use style="stroke:#000000;stroke-width:0.8;" x="192.31" xlink:href="#m85a2e4463b" y="133.492323"/>
      </g>
     </g>
     <g id="text_15">
      <!-- Jost Maurin -->
      <g transform="translate(129.613125 137.291542)scale(0.1 -0.1)">
       <defs>
        <path d="M 9.8125 72.90625 
L 19.671875 72.90625 
L 19.671875 5.078125 
Q 19.671875 -8.109375 14.671875 -14.0625 
Q 9.671875 -20.015625 -1.421875 -20.015625 
L -5.171875 -20.015625 
L -5.171875 -11.71875 
L -2.09375 -11.71875 
Q 4.4375 -11.71875 7.125 -8.046875 
Q 9.8125 -4.390625 9.8125 5.078125 
z
" id="DejaVuSans-74"/>
       </defs>
       <use xlink:href="#DejaVuSans-74"/>
       <use x="29.492188" xlink:href="#DejaVuSans-111"/>
       <use x="90.673828" xlink:href="#DejaVuSans-115"/>
       <use x="142.773438" xlink:href="#DejaVuSans-116"/>
       <use x="181.982422" xlink:href="#DejaVuSans-32"/>
       <use x="213.769531" xlink:href="#DejaVuSans-77"/>
       <use x="300.048828" xlink:href="#DejaVuSans-97"/>
       <use x="361.328125" xlink:href="#DejaVuSans-117"/>
       <use x="424.707031" xlink:href="#DejaVuSans-114"/>
       <use x="465.820312" xlink:href="#DejaVuSans-105"/>
       <use x="493.603516" xlink:href="#DejaVuSans-110"/>
      </g>
     </g>
    </g>
    <g id="ytick_9">
     <g id="line2d_15">
      <g>
       <use style="stroke:#000000;stroke-width:0.8;" x="192.31" xlink:href="#m85a2e4463b" y="146.199394"/>
      </g>
     </g>
     <g id="text_16">
      <!-- Reinhard Wolff -->
      <g transform="translate(112.377188 149.998613)scale(0.1 -0.1)">
       <defs>
        <path d="M 3.328125 72.90625 
L 13.28125 72.90625 
L 28.609375 11.28125 
L 43.890625 72.90625 
L 54.984375 72.90625 
L 70.3125 11.28125 
L 85.59375 72.90625 
L 95.609375 72.90625 
L 77.296875 0 
L 64.890625 0 
L 49.515625 63.28125 
L 33.984375 0 
L 21.578125 0 
z
" id="DejaVuSans-87"/>
       </defs>
       <use xlink:href="#DejaVuSans-82"/>
       <use x="64.982422" xlink:href="#DejaVuSans-101"/>
       <use x="126.505859" xlink:href="#DejaVuSans-105"/>
       <use x="154.289062" xlink:href="#DejaVuSans-110"/>
       <use x="217.667969" xlink:href="#DejaVuSans-104"/>
       <use x="281.046875" xlink:href="#DejaVuSans-97"/>
       <use x="342.326172" xlink:href="#DejaVuSans-114"/>
       <use x="381.689453" xlink:href="#DejaVuSans-100"/>
       <use x="445.166016" xlink:href="#DejaVuSans-32"/>
       <use x="476.953125" xlink:href="#DejaVuSans-87"/>
       <use x="569.955078" xlink:href="#DejaVuSans-111"/>
       <use x="631.136719" xlink:href="#DejaVuSans-108"/>
       <use x="658.919922" xlink:href="#DejaVuSans-102"/>
       <use x="694.125" xlink:href="#DejaVuSans-102"/>
      </g>
     </g>
    </g>
    <g id="ytick_10">
     <g id="line2d_16">
      <g>
       <use style="stroke:#000000;stroke-width:0.8;" x="192.31" xlink:href="#m85a2e4463b" y="158.906465"/>
      </g>
     </g>
     <g id="text_17">
      <!-- Maximilian Berkenheide -->
      <g transform="translate(65.324062 162.705683)scale(0.1 -0.1)">
       <defs>
        <path d="M 54.890625 54.6875 
L 35.109375 28.078125 
L 55.90625 0 
L 45.3125 0 
L 29.390625 21.484375 
L 13.484375 0 
L 2.875 0 
L 24.125 28.609375 
L 4.6875 54.6875 
L 15.28125 54.6875 
L 29.78125 35.203125 
L 44.28125 54.6875 
z
" id="DejaVuSans-120"/>
       </defs>
       <use xlink:href="#DejaVuSans-77"/>
       <use x="86.279297" xlink:href="#DejaVuSans-97"/>
       <use x="147.558594" xlink:href="#DejaVuSans-120"/>
       <use x="206.738281" xlink:href="#DejaVuSans-105"/>
       <use x="234.521484" xlink:href="#DejaVuSans-109"/>
       <use x="331.933594" xlink:href="#DejaVuSans-105"/>
       <use x="359.716797" xlink:href="#DejaVuSans-108"/>
       <use x="387.5" xlink:href="#DejaVuSans-105"/>
       <use x="415.283203" xlink:href="#DejaVuSans-97"/>
       <use x="476.5625" xlink:href="#DejaVuSans-110"/>
       <use x="539.941406" xlink:href="#DejaVuSans-32"/>
       <use x="571.728516" xlink:href="#DejaVuSans-66"/>
       <use x="640.332031" xlink:href="#DejaVuSans-101"/>
       <use x="701.855469" xlink:href="#DejaVuSans-114"/>
       <use x="742.96875" xlink:href="#DejaVuSans-107"/>
       <use x="797.253906" xlink:href="#DejaVuSans-101"/>
       <use x="858.777344" xlink:href="#DejaVuSans-110"/>
       <use x="922.15625" xlink:href="#DejaVuSans-104"/>
       <use x="985.535156" xlink:href="#DejaVuSans-101"/>
       <use x="1047.058594" xlink:href="#DejaVuSans-105"/>
       <use x="1074.841797" xlink:href="#DejaVuSans-100"/>
       <use x="1138.318359" xlink:href="#DejaVuSans-101"/>
      </g>
     </g>
    </g>
    <g id="ytick_11">
     <g id="line2d_17">
      <g>
       <use style="stroke:#000000;stroke-width:0.8;" x="192.31" xlink:href="#m85a2e4463b" y="171.613535"/>
      </g>
     </g>
     <g id="text_18">
      <!-- Lena Wrba -->
      <g transform="translate(132.09125 175.412754)scale(0.1 -0.1)">
       <use xlink:href="#DejaVuSans-76"/>
       <use x="53.962891" xlink:href="#DejaVuSans-101"/>
       <use x="115.486328" xlink:href="#DejaVuSans-110"/>
       <use x="178.865234" xlink:href="#DejaVuSans-97"/>
       <use x="240.144531" xlink:href="#DejaVuSans-32"/>
       <use x="271.931641" xlink:href="#DejaVuSans-87"/>
       <use x="366.308594" xlink:href="#DejaVuSans-114"/>
       <use x="407.421875" xlink:href="#DejaVuSans-98"/>
       <use x="470.898438" xlink:href="#DejaVuSans-97"/>
      </g>
     </g>
    </g>
    <g id="ytick_12">
     <g id="line2d_18">
      <g>
       <use style="stroke:#000000;stroke-width:0.8;" x="192.31" xlink:href="#m85a2e4463b" y="184.320606"/>
      </g>
     </g>
     <g id="text_19">
      <!-- Klaus-Peter Görlitzer -->
      <g transform="translate(82.54125 188.119825)scale(0.1 -0.1)">
       <defs>
        <path d="M 4.890625 31.390625 
L 31.203125 31.390625 
L 31.203125 23.390625 
L 4.890625 23.390625 
z
" id="DejaVuSans-45"/>
        <path d="M 19.671875 64.796875 
L 19.671875 37.40625 
L 32.078125 37.40625 
Q 38.96875 37.40625 42.71875 40.96875 
Q 46.484375 44.53125 46.484375 51.125 
Q 46.484375 57.671875 42.71875 61.234375 
Q 38.96875 64.796875 32.078125 64.796875 
z
M 9.8125 72.90625 
L 32.078125 72.90625 
Q 44.34375 72.90625 50.609375 67.359375 
Q 56.890625 61.8125 56.890625 51.125 
Q 56.890625 40.328125 50.609375 34.8125 
Q 44.34375 29.296875 32.078125 29.296875 
L 19.671875 29.296875 
L 19.671875 0 
L 9.8125 0 
z
" id="DejaVuSans-80"/>
        <path d="M 30.609375 48.390625 
Q 23.390625 48.390625 19.1875 42.75 
Q 14.984375 37.109375 14.984375 27.296875 
Q 14.984375 17.484375 19.15625 11.84375 
Q 23.34375 6.203125 30.609375 6.203125 
Q 37.796875 6.203125 41.984375 11.859375 
Q 46.1875 17.53125 46.1875 27.296875 
Q 46.1875 37.015625 41.984375 42.703125 
Q 37.796875 48.390625 30.609375 48.390625 
z
M 30.609375 56 
Q 42.328125 56 49.015625 48.375 
Q 55.71875 40.765625 55.71875 27.296875 
Q 55.71875 13.875 49.015625 6.21875 
Q 42.328125 -1.421875 30.609375 -1.421875 
Q 18.84375 -1.421875 12.171875 6.21875 
Q 5.515625 13.875 5.515625 27.296875 
Q 5.515625 40.765625 12.171875 48.375 
Q 18.84375 56 30.609375 56 
z
M 35.21875 75.78125 
L 45.125 75.78125 
L 45.125 65.921875 
L 35.21875 65.921875 
z
M 16.125 75.78125 
L 26.03125 75.78125 
L 26.03125 65.921875 
L 16.125 65.921875 
z
" id="DejaVuSans-246"/>
       </defs>
       <use xlink:href="#DejaVuSans-75"/>
       <use x="65.576172" xlink:href="#DejaVuSans-108"/>
       <use x="93.359375" xlink:href="#DejaVuSans-97"/>
       <use x="154.638672" xlink:href="#DejaVuSans-117"/>
       <use x="218.017578" xlink:href="#DejaVuSans-115"/>
       <use x="270.117188" xlink:href="#DejaVuSans-45"/>
       <use x="306.201172" xlink:href="#DejaVuSans-80"/>
       <use x="362.878906" xlink:href="#DejaVuSans-101"/>
       <use x="424.402344" xlink:href="#DejaVuSans-116"/>
       <use x="463.611328" xlink:href="#DejaVuSans-101"/>
       <use x="525.134766" xlink:href="#DejaVuSans-114"/>
       <use x="566.248047" xlink:href="#DejaVuSans-32"/>
       <use x="598.035156" xlink:href="#DejaVuSans-71"/>
       <use x="675.525391" xlink:href="#DejaVuSans-246"/>
       <use x="736.707031" xlink:href="#DejaVuSans-114"/>
       <use x="777.820312" xlink:href="#DejaVuSans-108"/>
       <use x="805.603516" xlink:href="#DejaVuSans-105"/>
       <use x="833.386719" xlink:href="#DejaVuSans-116"/>
       <use x="872.595703" xlink:href="#DejaVuSans-122"/>
       <use x="925.085938" xlink:href="#DejaVuSans-101"/>
       <use x="986.609375" xlink:href="#DejaVuSans-114"/>
      </g>
     </g>
    </g>
    <g id="ytick_13">
     <g id="line2d_19">
      <g>
       <use style="stroke:#000000;stroke-width:0.8;" x="192.31" xlink:href="#m85a2e4463b" y="197.027677"/>
      </g>
     </g>
     <g id="text_20">
      <!-- Felix Lee -->
      <g transform="translate(141.599063 200.826896)scale(0.1 -0.1)">
       <use xlink:href="#DejaVuSans-70"/>
       <use x="52.019531" xlink:href="#DejaVuSans-101"/>
       <use x="113.542969" xlink:href="#DejaVuSans-108"/>
       <use x="141.326172" xlink:href="#DejaVuSans-105"/>
       <use x="169.109375" xlink:href="#DejaVuSans-120"/>
       <use x="228.289062" xlink:href="#DejaVuSans-32"/>
       <use x="260.076172" xlink:href="#DejaVuSans-76"/>
       <use x="314.039062" xlink:href="#DejaVuSans-101"/>
       <use x="375.5625" xlink:href="#DejaVuSans-101"/>
      </g>
     </g>
    </g>
    <g id="ytick_14">
     <g id="line2d_20">
      <g>
       <use style="stroke:#000000;stroke-width:0.8;" x="192.31" xlink:href="#m85a2e4463b" y="209.734747"/>
      </g>
     </g>
     <g id="text_21">
      <!-- Ingo Arzt -->
      <g transform="translate(140.256875 213.533966)scale(0.1 -0.1)">
       <defs>
        <path d="M 9.8125 72.90625 
L 19.671875 72.90625 
L 19.671875 0 
L 9.8125 0 
z
" id="DejaVuSans-73"/>
       </defs>
       <use xlink:href="#DejaVuSans-73"/>
       <use x="29.492188" xlink:href="#DejaVuSans-110"/>
       <use x="92.871094" xlink:href="#DejaVuSans-103"/>
       <use x="156.347656" xlink:href="#DejaVuSans-111"/>
       <use x="217.529297" xlink:href="#DejaVuSans-32"/>
       <use x="249.316406" xlink:href="#DejaVuSans-65"/>
       <use x="317.724609" xlink:href="#DejaVuSans-114"/>
       <use x="358.837891" xlink:href="#DejaVuSans-122"/>
       <use x="411.328125" xlink:href="#DejaVuSans-116"/>
      </g>
     </g>
    </g>
    <g id="ytick_15">
     <g id="line2d_21">
      <g>
       <use style="stroke:#000000;stroke-width:0.8;" x="192.31" xlink:href="#m85a2e4463b" y="222.441818"/>
      </g>
     </g>
     <g id="text_22">
      <!-- Stefanie Uhrig -->
      <g transform="translate(113.899062 226.241037)scale(0.1 -0.1)">
       <defs>
        <path d="M 8.6875 72.90625 
L 18.609375 72.90625 
L 18.609375 28.609375 
Q 18.609375 16.890625 22.84375 11.734375 
Q 27.09375 6.59375 36.625 6.59375 
Q 46.09375 6.59375 50.34375 11.734375 
Q 54.59375 16.890625 54.59375 28.609375 
L 54.59375 72.90625 
L 64.5 72.90625 
L 64.5 27.390625 
Q 64.5 13.140625 57.4375 5.859375 
Q 50.390625 -1.421875 36.625 -1.421875 
Q 22.796875 -1.421875 15.734375 5.859375 
Q 8.6875 13.140625 8.6875 27.390625 
z
" id="DejaVuSans-85"/>
       </defs>
       <use xlink:href="#DejaVuSans-83"/>
       <use x="63.476562" xlink:href="#DejaVuSans-116"/>
       <use x="102.685547" xlink:href="#DejaVuSans-101"/>
       <use x="164.208984" xlink:href="#DejaVuSans-102"/>
       <use x="199.414062" xlink:href="#DejaVuSans-97"/>
       <use x="260.693359" xlink:href="#DejaVuSans-110"/>
       <use x="324.072266" xlink:href="#DejaVuSans-105"/>
       <use x="351.855469" xlink:href="#DejaVuSans-101"/>
       <use x="413.378906" xlink:href="#DejaVuSans-32"/>
       <use x="445.166016" xlink:href="#DejaVuSans-85"/>
       <use x="518.359375" xlink:href="#DejaVuSans-104"/>
       <use x="581.738281" xlink:href="#DejaVuSans-114"/>
       <use x="622.851562" xlink:href="#DejaVuSans-105"/>
       <use x="650.634766" xlink:href="#DejaVuSans-103"/>
      </g>
     </g>
    </g>
    <g id="ytick_16">
     <g id="line2d_22">
      <g>
       <use style="stroke:#000000;stroke-width:0.8;" x="192.31" xlink:href="#m85a2e4463b" y="235.148889"/>
      </g>
     </g>
     <g id="text_23">
      <!-- Stefan Schaaf -->
      <g transform="translate(115.763125 238.948108)scale(0.1 -0.1)">
       <use xlink:href="#DejaVuSans-83"/>
       <use x="63.476562" xlink:href="#DejaVuSans-116"/>
       <use x="102.685547" xlink:href="#DejaVuSans-101"/>
       <use x="164.208984" xlink:href="#DejaVuSans-102"/>
       <use x="199.414062" xlink:href="#DejaVuSans-97"/>
       <use x="260.693359" xlink:href="#DejaVuSans-110"/>
       <use x="324.072266" xlink:href="#DejaVuSans-32"/>
       <use x="355.859375" xlink:href="#DejaVuSans-83"/>
       <use x="419.335938" xlink:href="#DejaVuSans-99"/>
       <use x="474.316406" xlink:href="#DejaVuSans-104"/>
       <use x="537.695312" xlink:href="#DejaVuSans-97"/>
       <use x="598.974609" xlink:href="#DejaVuSans-97"/>
       <use x="660.253906" xlink:href="#DejaVuSans-102"/>
      </g>
     </g>
    </g>
    <g id="ytick_17">
     <g id="line2d_23">
      <g>
       <use style="stroke:#000000;stroke-width:0.8;" x="192.31" xlink:href="#m85a2e4463b" y="247.85596"/>
      </g>
     </g>
     <g id="text_24">
      <!-- Marcia Dunn -->
      <g transform="translate(122.3725 251.655178)scale(0.1 -0.1)">
       <defs>
        <path d="M 19.671875 64.796875 
L 19.671875 8.109375 
L 31.59375 8.109375 
Q 46.6875 8.109375 53.6875 14.9375 
Q 60.6875 21.78125 60.6875 36.53125 
Q 60.6875 51.171875 53.6875 57.984375 
Q 46.6875 64.796875 31.59375 64.796875 
z
M 9.8125 72.90625 
L 30.078125 72.90625 
Q 51.265625 72.90625 61.171875 64.09375 
Q 71.09375 55.28125 71.09375 36.53125 
Q 71.09375 17.671875 61.125 8.828125 
Q 51.171875 0 30.078125 0 
L 9.8125 0 
z
" id="DejaVuSans-68"/>
       </defs>
       <use xlink:href="#DejaVuSans-77"/>
       <use x="86.279297" xlink:href="#DejaVuSans-97"/>
       <use x="147.558594" xlink:href="#DejaVuSans-114"/>
       <use x="186.421875" xlink:href="#DejaVuSans-99"/>
       <use x="241.402344" xlink:href="#DejaVuSans-105"/>
       <use x="269.185547" xlink:href="#DejaVuSans-97"/>
       <use x="330.464844" xlink:href="#DejaVuSans-32"/>
       <use x="362.251953" xlink:href="#DejaVuSans-68"/>
       <use x="439.253906" xlink:href="#DejaVuSans-117"/>
       <use x="502.632812" xlink:href="#DejaVuSans-110"/>
       <use x="566.011719" xlink:href="#DejaVuSans-110"/>
      </g>
     </g>
    </g>
    <g id="ytick_18">
     <g id="line2d_24">
      <g>
       <use style="stroke:#000000;stroke-width:0.8;" x="192.31" xlink:href="#m85a2e4463b" y="260.56303"/>
      </g>
     </g>
     <g id="text_25">
      <!-- Kathrin Burger -->
      <g transform="translate(112.389687 264.362249)scale(0.1 -0.1)">
       <use xlink:href="#DejaVuSans-75"/>
       <use x="63.826172" xlink:href="#DejaVuSans-97"/>
       <use x="125.105469" xlink:href="#DejaVuSans-116"/>
       <use x="164.314453" xlink:href="#DejaVuSans-104"/>
       <use x="227.693359" xlink:href="#DejaVuSans-114"/>
       <use x="268.806641" xlink:href="#DejaVuSans-105"/>
       <use x="296.589844" xlink:href="#DejaVuSans-110"/>
       <use x="359.96875" xlink:href="#DejaVuSans-32"/>
       <use x="391.755859" xlink:href="#DejaVuSans-66"/>
       <use x="460.359375" xlink:href="#DejaVuSans-117"/>
       <use x="523.738281" xlink:href="#DejaVuSans-114"/>
       <use x="563.101562" xlink:href="#DejaVuSans-103"/>
       <use x="626.578125" xlink:href="#DejaVuSans-101"/>
       <use x="688.101562" xlink:href="#DejaVuSans-114"/>
      </g>
     </g>
    </g>
    <g id="ytick_19">
     <g id="line2d_25">
      <g>
       <use style="stroke:#000000;stroke-width:0.8;" x="192.31" xlink:href="#m85a2e4463b" y="273.270101"/>
      </g>
     </g>
     <g id="text_26">
      <!-- Gudrun Fischer -->
      <g transform="translate(109.7975 277.06932)scale(0.1 -0.1)">
       <use xlink:href="#DejaVuSans-71"/>
       <use x="77.490234" xlink:href="#DejaVuSans-117"/>
       <use x="140.869141" xlink:href="#DejaVuSans-100"/>
       <use x="204.345703" xlink:href="#DejaVuSans-114"/>
       <use x="245.458984" xlink:href="#DejaVuSans-117"/>
       <use x="308.837891" xlink:href="#DejaVuSans-110"/>
       <use x="372.216797" xlink:href="#DejaVuSans-32"/>
       <use x="404.003906" xlink:href="#DejaVuSans-70"/>
       <use x="454.273438" xlink:href="#DejaVuSans-105"/>
       <use x="482.056641" xlink:href="#DejaVuSans-115"/>
       <use x="534.15625" xlink:href="#DejaVuSans-99"/>
       <use x="589.136719" xlink:href="#DejaVuSans-104"/>
       <use x="652.515625" xlink:href="#DejaVuSans-101"/>
       <use x="714.039062" xlink:href="#DejaVuSans-114"/>
      </g>
     </g>
    </g>
    <g id="ytick_20">
     <g id="line2d_26">
      <g>
       <use style="stroke:#000000;stroke-width:0.8;" x="192.31" xlink:href="#m85a2e4463b" y="285.977172"/>
      </g>
     </g>
     <g id="text_27">
      <!-- Malte Kreutzfeldt -->
      <g transform="translate(99.700625 289.77639)scale(0.1 -0.1)">
       <use xlink:href="#DejaVuSans-77"/>
       <use x="86.279297" xlink:href="#DejaVuSans-97"/>
       <use x="147.558594" xlink:href="#DejaVuSans-108"/>
       <use x="175.341797" xlink:href="#DejaVuSans-116"/>
       <use x="214.550781" xlink:href="#DejaVuSans-101"/>
       <use x="276.074219" xlink:href="#DejaVuSans-32"/>
       <use x="307.861328" xlink:href="#DejaVuSans-75"/>
       <use x="373.4375" xlink:href="#DejaVuSans-114"/>
       <use x="412.300781" xlink:href="#DejaVuSans-101"/>
       <use x="473.824219" xlink:href="#DejaVuSans-117"/>
       <use x="537.203125" xlink:href="#DejaVuSans-116"/>
       <use x="576.412109" xlink:href="#DejaVuSans-122"/>
       <use x="628.902344" xlink:href="#DejaVuSans-102"/>
       <use x="664.107422" xlink:href="#DejaVuSans-101"/>
       <use x="725.630859" xlink:href="#DejaVuSans-108"/>
       <use x="753.414062" xlink:href="#DejaVuSans-100"/>
       <use x="816.890625" xlink:href="#DejaVuSans-116"/>
      </g>
     </g>
    </g>
   </g>
   <g id="patch_23">
    <path d="M 192.31 303.64 
L 192.31 26.88 
" style="fill:none;stroke:#000000;stroke-linecap:square;stroke-linejoin:miter;stroke-width:0.8;"/>
   </g>
   <g id="patch_24">
    <path d="M 450 303.64 
L 450 26.88 
" style="fill:none;stroke:#000000;stroke-linecap:square;stroke-linejoin:miter;stroke-width:0.8;"/>
   </g>
   <g id="patch_25">
    <path d="M 192.31 303.64 
L 450 303.64 
" style="fill:none;stroke:#000000;stroke-linecap:square;stroke-linejoin:miter;stroke-width:0.8;"/>
   </g>
   <g id="patch_26">
    <path d="M 192.31 26.88 
L 450 26.88 
" style="fill:none;stroke:#000000;stroke-linecap:square;stroke-linejoin:miter;stroke-width:0.8;"/>
   </g>
   <g id="text_28">
    <!-- Ressort Wissenschaft -->
    <g transform="translate(257.4425 20.88)scale(0.12 -0.12)">
     <use xlink:href="#DejaVuSans-82"/>
     <use x="64.982422" xlink:href="#DejaVuSans-101"/>
     <use x="126.505859" xlink:href="#DejaVuSans-115"/>
     <use x="178.605469" xlink:href="#DejaVuSans-115"/>
     <use x="230.705078" xlink:href="#DejaVuSans-111"/>
     <use x="291.886719" xlink:href="#DejaVuSans-114"/>
     <use x="333" xlink:href="#DejaVuSans-116"/>
     <use x="372.208984" xlink:href="#DejaVuSans-32"/>
     <use x="403.996094" xlink:href="#DejaVuSans-87"/>
     <use x="500.623047" xlink:href="#DejaVuSans-105"/>
     <use x="528.40625" xlink:href="#DejaVuSans-115"/>
     <use x="580.505859" xlink:href="#DejaVuSans-115"/>
     <use x="632.605469" xlink:href="#DejaVuSans-101"/>
     <use x="694.128906" xlink:href="#DejaVuSans-110"/>
     <use x="757.507812" xlink:href="#DejaVuSans-115"/>
     <use x="809.607422" xlink:href="#DejaVuSans-99"/>
     <use x="864.587891" xlink:href="#DejaVuSans-104"/>
     <use x="927.966797" xlink:href="#DejaVuSans-97"/>
     <use x="989.246094" xlink:href="#DejaVuSans-102"/>
     <use x="1022.701172" xlink:href="#DejaVuSans-116"/>
    </g>
   </g>
  </g>
 </g>
 <defs>
  <clipPath id="pe72e042aea">
   <rect height="276.76" width="257.69" x="192.31" y="26.88"/>
  </clipPath>
 </defs>
</svg>
