<?xml version="1.0" encoding="utf-8" standalone="no"?>
<!DOCTYPE svg PUBLIC "-//W3C//DTD SVG 1.1//EN"
  "http://www.w3.org/Graphics/SVG/1.1/DTD/svg11.dtd">
<!-- Created with matplotlib (https://matplotlib.org/) -->
<svg height="345.6pt" version="1.1" viewBox="0 0 460.8 345.6" width="460.8pt" xmlns="http://www.w3.org/2000/svg" xmlns:xlink="http://www.w3.org/1999/xlink">
 <metadata>
  <rdf:RDF xmlns:cc="http://creativecommons.org/ns#" xmlns:dc="http://purl.org/dc/elements/1.1/" xmlns:rdf="http://www.w3.org/1999/02/22-rdf-syntax-ns#">
   <cc:Work>
    <dc:type rdf:resource="http://purl.org/dc/dcmitype/StillImage"/>
    <dc:date>2021-01-13T12:17:16.038159</dc:date>
    <dc:format>image/svg+xml</dc:format>
    <dc:creator>
     <cc:Agent>
      <dc:title>Matplotlib v3.3.3, https://matplotlib.org/</dc:title>
     </cc:Agent>
    </dc:creator>
   </cc:Work>
  </rdf:RDF>
 </metadata>
 <defs>
  <style type="text/css">*{stroke-linecap:butt;stroke-linejoin:round;}</style>
 </defs>
 <g id="figure_1">
  <g id="patch_1">
   <path d="M 0 345.6 
L 460.8 345.6 
L 460.8 0 
L 0 0 
z
" style="fill:#ffffff;"/>
  </g>
  <g id="axes_1">
   <g id="patch_2">
    <path d="M 185.11 303.64 
L 450 303.64 
L 450 26.88 
L 185.11 26.88 
z
" style="fill:#ffffff;"/>
   </g>
   <g id="patch_3">
    <path clip-path="url(#p837e9349fa)" d="M 185.11 39.46 
L 227.156032 39.46 
L 227.156032 45.995065 
L 185.11 45.995065 
z
" style="fill:#1f77b4;"/>
   </g>
   <g id="patch_4">
    <path clip-path="url(#p837e9349fa)" d="M 185.11 47.628831 
L 195.621508 47.628831 
L 195.621508 54.163896 
L 185.11 54.163896 
z
" style="fill:#1f77b4;"/>
   </g>
   <g id="patch_5">
    <path clip-path="url(#p837e9349fa)" d="M 185.11 55.797662 
L 227.156032 55.797662 
L 227.156032 62.332727 
L 185.11 62.332727 
z
" style="fill:#1f77b4;"/>
   </g>
   <g id="patch_6">
    <path clip-path="url(#p837e9349fa)" d="M 185.11 63.966494 
L 195.621508 63.966494 
L 195.621508 70.501558 
L 185.11 70.501558 
z
" style="fill:#1f77b4;"/>
   </g>
   <g id="patch_7">
    <path clip-path="url(#p837e9349fa)" d="M 185.11 72.135325 
L 195.621508 72.135325 
L 195.621508 78.67039 
L 185.11 78.67039 
z
" style="fill:#1f77b4;"/>
   </g>
   <g id="patch_8">
    <path clip-path="url(#p837e9349fa)" d="M 185.11 80.304156 
L 195.621508 80.304156 
L 195.621508 86.839221 
L 185.11 86.839221 
z
" style="fill:#1f77b4;"/>
   </g>
   <g id="patch_9">
    <path clip-path="url(#p837e9349fa)" d="M 185.11 88.472987 
L 206.133016 88.472987 
L 206.133016 95.008052 
L 185.11 95.008052 
z
" style="fill:#1f77b4;"/>
   </g>
   <g id="patch_10">
    <path clip-path="url(#p837e9349fa)" d="M 185.11 96.641818 
L 195.621508 96.641818 
L 195.621508 103.176883 
L 185.11 103.176883 
z
" style="fill:#1f77b4;"/>
   </g>
   <g id="patch_11">
    <path clip-path="url(#p837e9349fa)" d="M 185.11 104.810649 
L 195.621508 104.810649 
L 195.621508 111.345714 
L 185.11 111.345714 
z
" style="fill:#1f77b4;"/>
   </g>
   <g id="patch_12">
    <path clip-path="url(#p837e9349fa)" d="M 185.11 112.979481 
L 195.621508 112.979481 
L 195.621508 119.514545 
L 185.11 119.514545 
z
" style="fill:#1f77b4;"/>
   </g>
   <g id="patch_13">
    <path clip-path="url(#p837e9349fa)" d="M 185.11 121.148312 
L 195.621508 121.148312 
L 195.621508 127.683377 
L 185.11 127.683377 
z
" style="fill:#1f77b4;"/>
   </g>
   <g id="patch_14">
    <path clip-path="url(#p837e9349fa)" d="M 185.11 129.317143 
L 227.156032 129.317143 
L 227.156032 135.852208 
L 185.11 135.852208 
z
" style="fill:#1f77b4;"/>
   </g>
   <g id="patch_15">
    <path clip-path="url(#p837e9349fa)" d="M 185.11 137.485974 
L 195.621508 137.485974 
L 195.621508 144.021039 
L 185.11 144.021039 
z
" style="fill:#1f77b4;"/>
   </g>
   <g id="patch_16">
    <path clip-path="url(#p837e9349fa)" d="M 185.11 145.654805 
L 195.621508 145.654805 
L 195.621508 152.18987 
L 185.11 152.18987 
z
" style="fill:#1f77b4;"/>
   </g>
   <g id="patch_17">
    <path clip-path="url(#p837e9349fa)" d="M 185.11 153.823636 
L 437.38619 153.823636 
L 437.38619 160.358701 
L 185.11 160.358701 
z
" style="fill:#1f77b4;"/>
   </g>
   <g id="patch_18">
    <path clip-path="url(#p837e9349fa)" d="M 185.11 161.992468 
L 216.644524 161.992468 
L 216.644524 168.527532 
L 185.11 168.527532 
z
" style="fill:#1f77b4;"/>
   </g>
   <g id="patch_19">
    <path clip-path="url(#p837e9349fa)" d="M 185.11 170.161299 
L 195.621508 170.161299 
L 195.621508 176.696364 
L 185.11 176.696364 
z
" style="fill:#1f77b4;"/>
   </g>
   <g id="patch_20">
    <path clip-path="url(#p837e9349fa)" d="M 185.11 178.33013 
L 195.621508 178.33013 
L 195.621508 184.865195 
L 185.11 184.865195 
z
" style="fill:#1f77b4;"/>
   </g>
   <g id="patch_21">
    <path clip-path="url(#p837e9349fa)" d="M 185.11 186.498961 
L 206.133016 186.498961 
L 206.133016 193.034026 
L 185.11 193.034026 
z
" style="fill:#1f77b4;"/>
   </g>
   <g id="patch_22">
    <path clip-path="url(#p837e9349fa)" d="M 185.11 194.667792 
L 195.621508 194.667792 
L 195.621508 201.202857 
L 185.11 201.202857 
z
" style="fill:#1f77b4;"/>
   </g>
   <g id="patch_23">
    <path clip-path="url(#p837e9349fa)" d="M 185.11 202.836623 
L 195.621508 202.836623 
L 195.621508 209.371688 
L 185.11 209.371688 
z
" style="fill:#1f77b4;"/>
   </g>
   <g id="patch_24">
    <path clip-path="url(#p837e9349fa)" d="M 185.11 211.005455 
L 195.621508 211.005455 
L 195.621508 217.540519 
L 185.11 217.540519 
z
" style="fill:#1f77b4;"/>
   </g>
   <g id="patch_25">
    <path clip-path="url(#p837e9349fa)" d="M 185.11 219.174286 
L 195.621508 219.174286 
L 195.621508 225.709351 
L 185.11 225.709351 
z
" style="fill:#1f77b4;"/>
   </g>
   <g id="patch_26">
    <path clip-path="url(#p837e9349fa)" d="M 185.11 227.343117 
L 195.621508 227.343117 
L 195.621508 233.878182 
L 185.11 233.878182 
z
" style="fill:#1f77b4;"/>
   </g>
   <g id="patch_27">
    <path clip-path="url(#p837e9349fa)" d="M 185.11 235.511948 
L 195.621508 235.511948 
L 195.621508 242.047013 
L 185.11 242.047013 
z
" style="fill:#1f77b4;"/>
   </g>
   <g id="patch_28">
    <path clip-path="url(#p837e9349fa)" d="M 185.11 243.680779 
L 195.621508 243.680779 
L 195.621508 250.215844 
L 185.11 250.215844 
z
" style="fill:#1f77b4;"/>
   </g>
   <g id="patch_29">
    <path clip-path="url(#p837e9349fa)" d="M 185.11 251.84961 
L 195.621508 251.84961 
L 195.621508 258.384675 
L 185.11 258.384675 
z
" style="fill:#1f77b4;"/>
   </g>
   <g id="patch_30">
    <path clip-path="url(#p837e9349fa)" d="M 185.11 260.018442 
L 195.621508 260.018442 
L 195.621508 266.553506 
L 185.11 266.553506 
z
" style="fill:#1f77b4;"/>
   </g>
   <g id="patch_31">
    <path clip-path="url(#p837e9349fa)" d="M 185.11 268.187273 
L 195.621508 268.187273 
L 195.621508 274.722338 
L 185.11 274.722338 
z
" style="fill:#1f77b4;"/>
   </g>
   <g id="patch_32">
    <path clip-path="url(#p837e9349fa)" d="M 185.11 276.356104 
L 195.621508 276.356104 
L 195.621508 282.891169 
L 185.11 282.891169 
z
" style="fill:#1f77b4;"/>
   </g>
   <g id="patch_33">
    <path clip-path="url(#p837e9349fa)" d="M 185.11 284.524935 
L 195.621508 284.524935 
L 195.621508 291.06 
L 185.11 291.06 
z
" style="fill:#1f77b4;"/>
   </g>
   <g id="matplotlib.axis_1">
    <g id="xtick_1">
     <g id="line2d_1">
      <defs>
       <path d="M 0 0 
L 0 3.5 
" id="m12f55b02d9" style="stroke:#000000;stroke-width:0.8;"/>
      </defs>
      <g>
       <use style="stroke:#000000;stroke-width:0.8;" x="185.11" xlink:href="#m12f55b02d9" y="303.64"/>
      </g>
     </g>
     <g id="text_1">
      <!-- 0 -->
      <g transform="translate(181.92875 318.238437)scale(0.1 -0.1)">
       <defs>
        <path d="M 31.78125 66.40625 
Q 24.171875 66.40625 20.328125 58.90625 
Q 16.5 51.421875 16.5 36.375 
Q 16.5 21.390625 20.328125 13.890625 
Q 24.171875 6.390625 31.78125 6.390625 
Q 39.453125 6.390625 43.28125 13.890625 
Q 47.125 21.390625 47.125 36.375 
Q 47.125 51.421875 43.28125 58.90625 
Q 39.453125 66.40625 31.78125 66.40625 
z
M 31.78125 74.21875 
Q 44.046875 74.21875 50.515625 64.515625 
Q 56.984375 54.828125 56.984375 36.375 
Q 56.984375 17.96875 50.515625 8.265625 
Q 44.046875 -1.421875 31.78125 -1.421875 
Q 19.53125 -1.421875 13.0625 8.265625 
Q 6.59375 17.96875 6.59375 36.375 
Q 6.59375 54.828125 13.0625 64.515625 
Q 19.53125 74.21875 31.78125 74.21875 
z
" id="DejaVuSans-48"/>
       </defs>
       <use xlink:href="#DejaVuSans-48"/>
      </g>
     </g>
    </g>
    <g id="xtick_2">
     <g id="line2d_2">
      <g>
       <use style="stroke:#000000;stroke-width:0.8;" x="216.644524" xlink:href="#m12f55b02d9" y="303.64"/>
      </g>
     </g>
     <g id="text_2">
      <!-- 3 -->
      <g transform="translate(213.463274 318.238437)scale(0.1 -0.1)">
       <defs>
        <path d="M 40.578125 39.3125 
Q 47.65625 37.796875 51.625 33 
Q 55.609375 28.21875 55.609375 21.1875 
Q 55.609375 10.40625 48.1875 4.484375 
Q 40.765625 -1.421875 27.09375 -1.421875 
Q 22.515625 -1.421875 17.65625 -0.515625 
Q 12.796875 0.390625 7.625 2.203125 
L 7.625 11.71875 
Q 11.71875 9.328125 16.59375 8.109375 
Q 21.484375 6.890625 26.8125 6.890625 
Q 36.078125 6.890625 40.9375 10.546875 
Q 45.796875 14.203125 45.796875 21.1875 
Q 45.796875 27.640625 41.28125 31.265625 
Q 36.765625 34.90625 28.71875 34.90625 
L 20.21875 34.90625 
L 20.21875 43.015625 
L 29.109375 43.015625 
Q 36.375 43.015625 40.234375 45.921875 
Q 44.09375 48.828125 44.09375 54.296875 
Q 44.09375 59.90625 40.109375 62.90625 
Q 36.140625 65.921875 28.71875 65.921875 
Q 24.65625 65.921875 20.015625 65.03125 
Q 15.375 64.15625 9.8125 62.3125 
L 9.8125 71.09375 
Q 15.4375 72.65625 20.34375 73.4375 
Q 25.25 74.21875 29.59375 74.21875 
Q 40.828125 74.21875 47.359375 69.109375 
Q 53.90625 64.015625 53.90625 55.328125 
Q 53.90625 49.265625 50.4375 45.09375 
Q 46.96875 40.921875 40.578125 39.3125 
z
" id="DejaVuSans-51"/>
       </defs>
       <use xlink:href="#DejaVuSans-51"/>
      </g>
     </g>
    </g>
    <g id="xtick_3">
     <g id="line2d_3">
      <g>
       <use style="stroke:#000000;stroke-width:0.8;" x="248.179048" xlink:href="#m12f55b02d9" y="303.64"/>
      </g>
     </g>
     <g id="text_3">
      <!-- 6 -->
      <g transform="translate(244.997798 318.238437)scale(0.1 -0.1)">
       <defs>
        <path d="M 33.015625 40.375 
Q 26.375 40.375 22.484375 35.828125 
Q 18.609375 31.296875 18.609375 23.390625 
Q 18.609375 15.53125 22.484375 10.953125 
Q 26.375 6.390625 33.015625 6.390625 
Q 39.65625 6.390625 43.53125 10.953125 
Q 47.40625 15.53125 47.40625 23.390625 
Q 47.40625 31.296875 43.53125 35.828125 
Q 39.65625 40.375 33.015625 40.375 
z
M 52.59375 71.296875 
L 52.59375 62.3125 
Q 48.875 64.0625 45.09375 64.984375 
Q 41.3125 65.921875 37.59375 65.921875 
Q 27.828125 65.921875 22.671875 59.328125 
Q 17.53125 52.734375 16.796875 39.40625 
Q 19.671875 43.65625 24.015625 45.921875 
Q 28.375 48.1875 33.59375 48.1875 
Q 44.578125 48.1875 50.953125 41.515625 
Q 57.328125 34.859375 57.328125 23.390625 
Q 57.328125 12.15625 50.6875 5.359375 
Q 44.046875 -1.421875 33.015625 -1.421875 
Q 20.359375 -1.421875 13.671875 8.265625 
Q 6.984375 17.96875 6.984375 36.375 
Q 6.984375 53.65625 15.1875 63.9375 
Q 23.390625 74.21875 37.203125 74.21875 
Q 40.921875 74.21875 44.703125 73.484375 
Q 48.484375 72.75 52.59375 71.296875 
z
" id="DejaVuSans-54"/>
       </defs>
       <use xlink:href="#DejaVuSans-54"/>
      </g>
     </g>
    </g>
    <g id="xtick_4">
     <g id="line2d_4">
      <g>
       <use style="stroke:#000000;stroke-width:0.8;" x="279.713571" xlink:href="#m12f55b02d9" y="303.64"/>
      </g>
     </g>
     <g id="text_4">
      <!-- 9 -->
      <g transform="translate(276.532321 318.238437)scale(0.1 -0.1)">
       <defs>
        <path d="M 10.984375 1.515625 
L 10.984375 10.5 
Q 14.703125 8.734375 18.5 7.8125 
Q 22.3125 6.890625 25.984375 6.890625 
Q 35.75 6.890625 40.890625 13.453125 
Q 46.046875 20.015625 46.78125 33.40625 
Q 43.953125 29.203125 39.59375 26.953125 
Q 35.25 24.703125 29.984375 24.703125 
Q 19.046875 24.703125 12.671875 31.3125 
Q 6.296875 37.9375 6.296875 49.421875 
Q 6.296875 60.640625 12.9375 67.421875 
Q 19.578125 74.21875 30.609375 74.21875 
Q 43.265625 74.21875 49.921875 64.515625 
Q 56.59375 54.828125 56.59375 36.375 
Q 56.59375 19.140625 48.40625 8.859375 
Q 40.234375 -1.421875 26.421875 -1.421875 
Q 22.703125 -1.421875 18.890625 -0.6875 
Q 15.09375 0.046875 10.984375 1.515625 
z
M 30.609375 32.421875 
Q 37.25 32.421875 41.125 36.953125 
Q 45.015625 41.5 45.015625 49.421875 
Q 45.015625 57.28125 41.125 61.84375 
Q 37.25 66.40625 30.609375 66.40625 
Q 23.96875 66.40625 20.09375 61.84375 
Q 16.21875 57.28125 16.21875 49.421875 
Q 16.21875 41.5 20.09375 36.953125 
Q 23.96875 32.421875 30.609375 32.421875 
z
" id="DejaVuSans-57"/>
       </defs>
       <use xlink:href="#DejaVuSans-57"/>
      </g>
     </g>
    </g>
    <g id="xtick_5">
     <g id="line2d_5">
      <g>
       <use style="stroke:#000000;stroke-width:0.8;" x="311.248095" xlink:href="#m12f55b02d9" y="303.64"/>
      </g>
     </g>
     <g id="text_5">
      <!-- 12 -->
      <g transform="translate(304.885595 318.238437)scale(0.1 -0.1)">
       <defs>
        <path d="M 12.40625 8.296875 
L 28.515625 8.296875 
L 28.515625 63.921875 
L 10.984375 60.40625 
L 10.984375 69.390625 
L 28.421875 72.90625 
L 38.28125 72.90625 
L 38.28125 8.296875 
L 54.390625 8.296875 
L 54.390625 0 
L 12.40625 0 
z
" id="DejaVuSans-49"/>
        <path d="M 19.1875 8.296875 
L 53.609375 8.296875 
L 53.609375 0 
L 7.328125 0 
L 7.328125 8.296875 
Q 12.9375 14.109375 22.625 23.890625 
Q 32.328125 33.6875 34.8125 36.53125 
Q 39.546875 41.84375 41.421875 45.53125 
Q 43.3125 49.21875 43.3125 52.78125 
Q 43.3125 58.59375 39.234375 62.25 
Q 35.15625 65.921875 28.609375 65.921875 
Q 23.96875 65.921875 18.8125 64.3125 
Q 13.671875 62.703125 7.8125 59.421875 
L 7.8125 69.390625 
Q 13.765625 71.78125 18.9375 73 
Q 24.125 74.21875 28.421875 74.21875 
Q 39.75 74.21875 46.484375 68.546875 
Q 53.21875 62.890625 53.21875 53.421875 
Q 53.21875 48.921875 51.53125 44.890625 
Q 49.859375 40.875 45.40625 35.40625 
Q 44.1875 33.984375 37.640625 27.21875 
Q 31.109375 20.453125 19.1875 8.296875 
z
" id="DejaVuSans-50"/>
       </defs>
       <use xlink:href="#DejaVuSans-49"/>
       <use x="63.623047" xlink:href="#DejaVuSans-50"/>
      </g>
     </g>
    </g>
    <g id="xtick_6">
     <g id="line2d_6">
      <g>
       <use style="stroke:#000000;stroke-width:0.8;" x="342.782619" xlink:href="#m12f55b02d9" y="303.64"/>
      </g>
     </g>
     <g id="text_6">
      <!-- 15 -->
      <g transform="translate(336.420119 318.238437)scale(0.1 -0.1)">
       <defs>
        <path d="M 10.796875 72.90625 
L 49.515625 72.90625 
L 49.515625 64.59375 
L 19.828125 64.59375 
L 19.828125 46.734375 
Q 21.96875 47.46875 24.109375 47.828125 
Q 26.265625 48.1875 28.421875 48.1875 
Q 40.625 48.1875 47.75 41.5 
Q 54.890625 34.8125 54.890625 23.390625 
Q 54.890625 11.625 47.5625 5.09375 
Q 40.234375 -1.421875 26.90625 -1.421875 
Q 22.3125 -1.421875 17.546875 -0.640625 
Q 12.796875 0.140625 7.71875 1.703125 
L 7.71875 11.625 
Q 12.109375 9.234375 16.796875 8.0625 
Q 21.484375 6.890625 26.703125 6.890625 
Q 35.15625 6.890625 40.078125 11.328125 
Q 45.015625 15.765625 45.015625 23.390625 
Q 45.015625 31 40.078125 35.4375 
Q 35.15625 39.890625 26.703125 39.890625 
Q 22.75 39.890625 18.8125 39.015625 
Q 14.890625 38.140625 10.796875 36.28125 
z
" id="DejaVuSans-53"/>
       </defs>
       <use xlink:href="#DejaVuSans-49"/>
       <use x="63.623047" xlink:href="#DejaVuSans-53"/>
      </g>
     </g>
    </g>
    <g id="xtick_7">
     <g id="line2d_7">
      <g>
       <use style="stroke:#000000;stroke-width:0.8;" x="374.317143" xlink:href="#m12f55b02d9" y="303.64"/>
      </g>
     </g>
     <g id="text_7">
      <!-- 18 -->
      <g transform="translate(367.954643 318.238437)scale(0.1 -0.1)">
       <defs>
        <path d="M 31.78125 34.625 
Q 24.75 34.625 20.71875 30.859375 
Q 16.703125 27.09375 16.703125 20.515625 
Q 16.703125 13.921875 20.71875 10.15625 
Q 24.75 6.390625 31.78125 6.390625 
Q 38.8125 6.390625 42.859375 10.171875 
Q 46.921875 13.96875 46.921875 20.515625 
Q 46.921875 27.09375 42.890625 30.859375 
Q 38.875 34.625 31.78125 34.625 
z
M 21.921875 38.8125 
Q 15.578125 40.375 12.03125 44.71875 
Q 8.5 49.078125 8.5 55.328125 
Q 8.5 64.0625 14.71875 69.140625 
Q 20.953125 74.21875 31.78125 74.21875 
Q 42.671875 74.21875 48.875 69.140625 
Q 55.078125 64.0625 55.078125 55.328125 
Q 55.078125 49.078125 51.53125 44.71875 
Q 48 40.375 41.703125 38.8125 
Q 48.828125 37.15625 52.796875 32.3125 
Q 56.78125 27.484375 56.78125 20.515625 
Q 56.78125 9.90625 50.3125 4.234375 
Q 43.84375 -1.421875 31.78125 -1.421875 
Q 19.734375 -1.421875 13.25 4.234375 
Q 6.78125 9.90625 6.78125 20.515625 
Q 6.78125 27.484375 10.78125 32.3125 
Q 14.796875 37.15625 21.921875 38.8125 
z
M 18.3125 54.390625 
Q 18.3125 48.734375 21.84375 45.5625 
Q 25.390625 42.390625 31.78125 42.390625 
Q 38.140625 42.390625 41.71875 45.5625 
Q 45.3125 48.734375 45.3125 54.390625 
Q 45.3125 60.0625 41.71875 63.234375 
Q 38.140625 66.40625 31.78125 66.40625 
Q 25.390625 66.40625 21.84375 63.234375 
Q 18.3125 60.0625 18.3125 54.390625 
z
" id="DejaVuSans-56"/>
       </defs>
       <use xlink:href="#DejaVuSans-49"/>
       <use x="63.623047" xlink:href="#DejaVuSans-56"/>
      </g>
     </g>
    </g>
    <g id="xtick_8">
     <g id="line2d_8">
      <g>
       <use style="stroke:#000000;stroke-width:0.8;" x="405.851667" xlink:href="#m12f55b02d9" y="303.64"/>
      </g>
     </g>
     <g id="text_8">
      <!-- 21 -->
      <g transform="translate(399.489167 318.238437)scale(0.1 -0.1)">
       <use xlink:href="#DejaVuSans-50"/>
       <use x="63.623047" xlink:href="#DejaVuSans-49"/>
      </g>
     </g>
    </g>
    <g id="xtick_9">
     <g id="line2d_9">
      <g>
       <use style="stroke:#000000;stroke-width:0.8;" x="437.38619" xlink:href="#m12f55b02d9" y="303.64"/>
      </g>
     </g>
     <g id="text_9">
      <!-- 24 -->
      <g transform="translate(431.02369 318.238437)scale(0.1 -0.1)">
       <defs>
        <path d="M 37.796875 64.3125 
L 12.890625 25.390625 
L 37.796875 25.390625 
z
M 35.203125 72.90625 
L 47.609375 72.90625 
L 47.609375 25.390625 
L 58.015625 25.390625 
L 58.015625 17.1875 
L 47.609375 17.1875 
L 47.609375 0 
L 37.796875 0 
L 37.796875 17.1875 
L 4.890625 17.1875 
L 4.890625 26.703125 
z
" id="DejaVuSans-52"/>
       </defs>
       <use xlink:href="#DejaVuSans-50"/>
       <use x="63.623047" xlink:href="#DejaVuSans-52"/>
      </g>
     </g>
    </g>
    <g id="text_10">
     <!-- Anzahl Artikel -->
     <g transform="translate(283.126094 331.916562)scale(0.1 -0.1)">
      <defs>
       <path d="M 34.1875 63.1875 
L 20.796875 26.90625 
L 47.609375 26.90625 
z
M 28.609375 72.90625 
L 39.796875 72.90625 
L 67.578125 0 
L 57.328125 0 
L 50.6875 18.703125 
L 17.828125 18.703125 
L 11.1875 0 
L 0.78125 0 
z
" id="DejaVuSans-65"/>
       <path d="M 54.890625 33.015625 
L 54.890625 0 
L 45.90625 0 
L 45.90625 32.71875 
Q 45.90625 40.484375 42.875 44.328125 
Q 39.84375 48.1875 33.796875 48.1875 
Q 26.515625 48.1875 22.3125 43.546875 
Q 18.109375 38.921875 18.109375 30.90625 
L 18.109375 0 
L 9.078125 0 
L 9.078125 54.6875 
L 18.109375 54.6875 
L 18.109375 46.1875 
Q 21.34375 51.125 25.703125 53.5625 
Q 30.078125 56 35.796875 56 
Q 45.21875 56 50.046875 50.171875 
Q 54.890625 44.34375 54.890625 33.015625 
z
" id="DejaVuSans-110"/>
       <path d="M 5.515625 54.6875 
L 48.1875 54.6875 
L 48.1875 46.484375 
L 14.40625 7.171875 
L 48.1875 7.171875 
L 48.1875 0 
L 4.296875 0 
L 4.296875 8.203125 
L 38.09375 47.515625 
L 5.515625 47.515625 
z
" id="DejaVuSans-122"/>
       <path d="M 34.28125 27.484375 
Q 23.390625 27.484375 19.1875 25 
Q 14.984375 22.515625 14.984375 16.5 
Q 14.984375 11.71875 18.140625 8.90625 
Q 21.296875 6.109375 26.703125 6.109375 
Q 34.1875 6.109375 38.703125 11.40625 
Q 43.21875 16.703125 43.21875 25.484375 
L 43.21875 27.484375 
z
M 52.203125 31.203125 
L 52.203125 0 
L 43.21875 0 
L 43.21875 8.296875 
Q 40.140625 3.328125 35.546875 0.953125 
Q 30.953125 -1.421875 24.3125 -1.421875 
Q 15.921875 -1.421875 10.953125 3.296875 
Q 6 8.015625 6 15.921875 
Q 6 25.140625 12.171875 29.828125 
Q 18.359375 34.515625 30.609375 34.515625 
L 43.21875 34.515625 
L 43.21875 35.40625 
Q 43.21875 41.609375 39.140625 45 
Q 35.0625 48.390625 27.6875 48.390625 
Q 23 48.390625 18.546875 47.265625 
Q 14.109375 46.140625 10.015625 43.890625 
L 10.015625 52.203125 
Q 14.9375 54.109375 19.578125 55.046875 
Q 24.21875 56 28.609375 56 
Q 40.484375 56 46.34375 49.84375 
Q 52.203125 43.703125 52.203125 31.203125 
z
" id="DejaVuSans-97"/>
       <path d="M 54.890625 33.015625 
L 54.890625 0 
L 45.90625 0 
L 45.90625 32.71875 
Q 45.90625 40.484375 42.875 44.328125 
Q 39.84375 48.1875 33.796875 48.1875 
Q 26.515625 48.1875 22.3125 43.546875 
Q 18.109375 38.921875 18.109375 30.90625 
L 18.109375 0 
L 9.078125 0 
L 9.078125 75.984375 
L 18.109375 75.984375 
L 18.109375 46.1875 
Q 21.34375 51.125 25.703125 53.5625 
Q 30.078125 56 35.796875 56 
Q 45.21875 56 50.046875 50.171875 
Q 54.890625 44.34375 54.890625 33.015625 
z
" id="DejaVuSans-104"/>
       <path d="M 9.421875 75.984375 
L 18.40625 75.984375 
L 18.40625 0 
L 9.421875 0 
z
" id="DejaVuSans-108"/>
       <path id="DejaVuSans-32"/>
       <path d="M 41.109375 46.296875 
Q 39.59375 47.171875 37.8125 47.578125 
Q 36.03125 48 33.890625 48 
Q 26.265625 48 22.1875 43.046875 
Q 18.109375 38.09375 18.109375 28.8125 
L 18.109375 0 
L 9.078125 0 
L 9.078125 54.6875 
L 18.109375 54.6875 
L 18.109375 46.1875 
Q 20.953125 51.171875 25.484375 53.578125 
Q 30.03125 56 36.53125 56 
Q 37.453125 56 38.578125 55.875 
Q 39.703125 55.765625 41.0625 55.515625 
z
" id="DejaVuSans-114"/>
       <path d="M 18.3125 70.21875 
L 18.3125 54.6875 
L 36.8125 54.6875 
L 36.8125 47.703125 
L 18.3125 47.703125 
L 18.3125 18.015625 
Q 18.3125 11.328125 20.140625 9.421875 
Q 21.96875 7.515625 27.59375 7.515625 
L 36.8125 7.515625 
L 36.8125 0 
L 27.59375 0 
Q 17.1875 0 13.234375 3.875 
Q 9.28125 7.765625 9.28125 18.015625 
L 9.28125 47.703125 
L 2.6875 47.703125 
L 2.6875 54.6875 
L 9.28125 54.6875 
L 9.28125 70.21875 
z
" id="DejaVuSans-116"/>
       <path d="M 9.421875 54.6875 
L 18.40625 54.6875 
L 18.40625 0 
L 9.421875 0 
z
M 9.421875 75.984375 
L 18.40625 75.984375 
L 18.40625 64.59375 
L 9.421875 64.59375 
z
" id="DejaVuSans-105"/>
       <path d="M 9.078125 75.984375 
L 18.109375 75.984375 
L 18.109375 31.109375 
L 44.921875 54.6875 
L 56.390625 54.6875 
L 27.390625 29.109375 
L 57.625 0 
L 45.90625 0 
L 18.109375 26.703125 
L 18.109375 0 
L 9.078125 0 
z
" id="DejaVuSans-107"/>
       <path d="M 56.203125 29.59375 
L 56.203125 25.203125 
L 14.890625 25.203125 
Q 15.484375 15.921875 20.484375 11.0625 
Q 25.484375 6.203125 34.421875 6.203125 
Q 39.59375 6.203125 44.453125 7.46875 
Q 49.3125 8.734375 54.109375 11.28125 
L 54.109375 2.78125 
Q 49.265625 0.734375 44.1875 -0.34375 
Q 39.109375 -1.421875 33.890625 -1.421875 
Q 20.796875 -1.421875 13.15625 6.1875 
Q 5.515625 13.8125 5.515625 26.8125 
Q 5.515625 40.234375 12.765625 48.109375 
Q 20.015625 56 32.328125 56 
Q 43.359375 56 49.78125 48.890625 
Q 56.203125 41.796875 56.203125 29.59375 
z
M 47.21875 32.234375 
Q 47.125 39.59375 43.09375 43.984375 
Q 39.0625 48.390625 32.421875 48.390625 
Q 24.90625 48.390625 20.390625 44.140625 
Q 15.875 39.890625 15.1875 32.171875 
z
" id="DejaVuSans-101"/>
      </defs>
      <use xlink:href="#DejaVuSans-65"/>
      <use x="68.408203" xlink:href="#DejaVuSans-110"/>
      <use x="131.787109" xlink:href="#DejaVuSans-122"/>
      <use x="184.277344" xlink:href="#DejaVuSans-97"/>
      <use x="245.556641" xlink:href="#DejaVuSans-104"/>
      <use x="308.935547" xlink:href="#DejaVuSans-108"/>
      <use x="336.71875" xlink:href="#DejaVuSans-32"/>
      <use x="368.505859" xlink:href="#DejaVuSans-65"/>
      <use x="436.914062" xlink:href="#DejaVuSans-114"/>
      <use x="478.027344" xlink:href="#DejaVuSans-116"/>
      <use x="517.236328" xlink:href="#DejaVuSans-105"/>
      <use x="545.019531" xlink:href="#DejaVuSans-107"/>
      <use x="599.304688" xlink:href="#DejaVuSans-101"/>
      <use x="660.828125" xlink:href="#DejaVuSans-108"/>
     </g>
    </g>
   </g>
   <g id="matplotlib.axis_2">
    <g id="ytick_1">
     <g id="line2d_10">
      <defs>
       <path d="M 0 0 
L -3.5 0 
" id="m2f29244d2b" style="stroke:#000000;stroke-width:0.8;"/>
      </defs>
      <g>
       <use style="stroke:#000000;stroke-width:0.8;" x="185.11" xlink:href="#m2f29244d2b" y="42.727532"/>
      </g>
     </g>
     <g id="text_11">
      <!-- Ingo Arzt -->
      <g transform="translate(133.056875 46.526751)scale(0.1 -0.1)">
       <defs>
        <path d="M 9.8125 72.90625 
L 19.671875 72.90625 
L 19.671875 0 
L 9.8125 0 
z
" id="DejaVuSans-73"/>
        <path d="M 45.40625 27.984375 
Q 45.40625 37.75 41.375 43.109375 
Q 37.359375 48.484375 30.078125 48.484375 
Q 22.859375 48.484375 18.828125 43.109375 
Q 14.796875 37.75 14.796875 27.984375 
Q 14.796875 18.265625 18.828125 12.890625 
Q 22.859375 7.515625 30.078125 7.515625 
Q 37.359375 7.515625 41.375 12.890625 
Q 45.40625 18.265625 45.40625 27.984375 
z
M 54.390625 6.78125 
Q 54.390625 -7.171875 48.1875 -13.984375 
Q 42 -20.796875 29.203125 -20.796875 
Q 24.46875 -20.796875 20.265625 -20.09375 
Q 16.0625 -19.390625 12.109375 -17.921875 
L 12.109375 -9.1875 
Q 16.0625 -11.328125 19.921875 -12.34375 
Q 23.78125 -13.375 27.78125 -13.375 
Q 36.625 -13.375 41.015625 -8.765625 
Q 45.40625 -4.15625 45.40625 5.171875 
L 45.40625 9.625 
Q 42.625 4.78125 38.28125 2.390625 
Q 33.9375 0 27.875 0 
Q 17.828125 0 11.671875 7.65625 
Q 5.515625 15.328125 5.515625 27.984375 
Q 5.515625 40.671875 11.671875 48.328125 
Q 17.828125 56 27.875 56 
Q 33.9375 56 38.28125 53.609375 
Q 42.625 51.21875 45.40625 46.390625 
L 45.40625 54.6875 
L 54.390625 54.6875 
z
" id="DejaVuSans-103"/>
        <path d="M 30.609375 48.390625 
Q 23.390625 48.390625 19.1875 42.75 
Q 14.984375 37.109375 14.984375 27.296875 
Q 14.984375 17.484375 19.15625 11.84375 
Q 23.34375 6.203125 30.609375 6.203125 
Q 37.796875 6.203125 41.984375 11.859375 
Q 46.1875 17.53125 46.1875 27.296875 
Q 46.1875 37.015625 41.984375 42.703125 
Q 37.796875 48.390625 30.609375 48.390625 
z
M 30.609375 56 
Q 42.328125 56 49.015625 48.375 
Q 55.71875 40.765625 55.71875 27.296875 
Q 55.71875 13.875 49.015625 6.21875 
Q 42.328125 -1.421875 30.609375 -1.421875 
Q 18.84375 -1.421875 12.171875 6.21875 
Q 5.515625 13.875 5.515625 27.296875 
Q 5.515625 40.765625 12.171875 48.375 
Q 18.84375 56 30.609375 56 
z
" id="DejaVuSans-111"/>
       </defs>
       <use xlink:href="#DejaVuSans-73"/>
       <use x="29.492188" xlink:href="#DejaVuSans-110"/>
       <use x="92.871094" xlink:href="#DejaVuSans-103"/>
       <use x="156.347656" xlink:href="#DejaVuSans-111"/>
       <use x="217.529297" xlink:href="#DejaVuSans-32"/>
       <use x="249.316406" xlink:href="#DejaVuSans-65"/>
       <use x="317.724609" xlink:href="#DejaVuSans-114"/>
       <use x="358.837891" xlink:href="#DejaVuSans-122"/>
       <use x="411.328125" xlink:href="#DejaVuSans-116"/>
      </g>
     </g>
    </g>
    <g id="ytick_2">
     <g id="line2d_11">
      <g>
       <use style="stroke:#000000;stroke-width:0.8;" x="185.11" xlink:href="#m2f29244d2b" y="50.896364"/>
      </g>
     </g>
     <g id="text_12">
      <!-- Andreas Lob-Huedepohl -->
      <g transform="translate(58.461563 54.695582)scale(0.1 -0.1)">
       <defs>
        <path d="M 45.40625 46.390625 
L 45.40625 75.984375 
L 54.390625 75.984375 
L 54.390625 0 
L 45.40625 0 
L 45.40625 8.203125 
Q 42.578125 3.328125 38.25 0.953125 
Q 33.9375 -1.421875 27.875 -1.421875 
Q 17.96875 -1.421875 11.734375 6.484375 
Q 5.515625 14.40625 5.515625 27.296875 
Q 5.515625 40.1875 11.734375 48.09375 
Q 17.96875 56 27.875 56 
Q 33.9375 56 38.25 53.625 
Q 42.578125 51.265625 45.40625 46.390625 
z
M 14.796875 27.296875 
Q 14.796875 17.390625 18.875 11.75 
Q 22.953125 6.109375 30.078125 6.109375 
Q 37.203125 6.109375 41.296875 11.75 
Q 45.40625 17.390625 45.40625 27.296875 
Q 45.40625 37.203125 41.296875 42.84375 
Q 37.203125 48.484375 30.078125 48.484375 
Q 22.953125 48.484375 18.875 42.84375 
Q 14.796875 37.203125 14.796875 27.296875 
z
" id="DejaVuSans-100"/>
        <path d="M 44.28125 53.078125 
L 44.28125 44.578125 
Q 40.484375 46.53125 36.375 47.5 
Q 32.28125 48.484375 27.875 48.484375 
Q 21.1875 48.484375 17.84375 46.4375 
Q 14.5 44.390625 14.5 40.28125 
Q 14.5 37.15625 16.890625 35.375 
Q 19.28125 33.59375 26.515625 31.984375 
L 29.59375 31.296875 
Q 39.15625 29.25 43.1875 25.515625 
Q 47.21875 21.78125 47.21875 15.09375 
Q 47.21875 7.46875 41.1875 3.015625 
Q 35.15625 -1.421875 24.609375 -1.421875 
Q 20.21875 -1.421875 15.453125 -0.5625 
Q 10.6875 0.296875 5.421875 2 
L 5.421875 11.28125 
Q 10.40625 8.6875 15.234375 7.390625 
Q 20.0625 6.109375 24.8125 6.109375 
Q 31.15625 6.109375 34.5625 8.28125 
Q 37.984375 10.453125 37.984375 14.40625 
Q 37.984375 18.0625 35.515625 20.015625 
Q 33.0625 21.96875 24.703125 23.78125 
L 21.578125 24.515625 
Q 13.234375 26.265625 9.515625 29.90625 
Q 5.8125 33.546875 5.8125 39.890625 
Q 5.8125 47.609375 11.28125 51.796875 
Q 16.75 56 26.8125 56 
Q 31.78125 56 36.171875 55.265625 
Q 40.578125 54.546875 44.28125 53.078125 
z
" id="DejaVuSans-115"/>
        <path d="M 9.8125 72.90625 
L 19.671875 72.90625 
L 19.671875 8.296875 
L 55.171875 8.296875 
L 55.171875 0 
L 9.8125 0 
z
" id="DejaVuSans-76"/>
        <path d="M 48.6875 27.296875 
Q 48.6875 37.203125 44.609375 42.84375 
Q 40.53125 48.484375 33.40625 48.484375 
Q 26.265625 48.484375 22.1875 42.84375 
Q 18.109375 37.203125 18.109375 27.296875 
Q 18.109375 17.390625 22.1875 11.75 
Q 26.265625 6.109375 33.40625 6.109375 
Q 40.53125 6.109375 44.609375 11.75 
Q 48.6875 17.390625 48.6875 27.296875 
z
M 18.109375 46.390625 
Q 20.953125 51.265625 25.265625 53.625 
Q 29.59375 56 35.59375 56 
Q 45.5625 56 51.78125 48.09375 
Q 58.015625 40.1875 58.015625 27.296875 
Q 58.015625 14.40625 51.78125 6.484375 
Q 45.5625 -1.421875 35.59375 -1.421875 
Q 29.59375 -1.421875 25.265625 0.953125 
Q 20.953125 3.328125 18.109375 8.203125 
L 18.109375 0 
L 9.078125 0 
L 9.078125 75.984375 
L 18.109375 75.984375 
z
" id="DejaVuSans-98"/>
        <path d="M 4.890625 31.390625 
L 31.203125 31.390625 
L 31.203125 23.390625 
L 4.890625 23.390625 
z
" id="DejaVuSans-45"/>
        <path d="M 9.8125 72.90625 
L 19.671875 72.90625 
L 19.671875 43.015625 
L 55.515625 43.015625 
L 55.515625 72.90625 
L 65.375 72.90625 
L 65.375 0 
L 55.515625 0 
L 55.515625 34.71875 
L 19.671875 34.71875 
L 19.671875 0 
L 9.8125 0 
z
" id="DejaVuSans-72"/>
        <path d="M 8.5 21.578125 
L 8.5 54.6875 
L 17.484375 54.6875 
L 17.484375 21.921875 
Q 17.484375 14.15625 20.5 10.265625 
Q 23.53125 6.390625 29.59375 6.390625 
Q 36.859375 6.390625 41.078125 11.03125 
Q 45.3125 15.671875 45.3125 23.6875 
L 45.3125 54.6875 
L 54.296875 54.6875 
L 54.296875 0 
L 45.3125 0 
L 45.3125 8.40625 
Q 42.046875 3.421875 37.71875 1 
Q 33.40625 -1.421875 27.6875 -1.421875 
Q 18.265625 -1.421875 13.375 4.4375 
Q 8.5 10.296875 8.5 21.578125 
z
M 31.109375 56 
z
" id="DejaVuSans-117"/>
        <path d="M 18.109375 8.203125 
L 18.109375 -20.796875 
L 9.078125 -20.796875 
L 9.078125 54.6875 
L 18.109375 54.6875 
L 18.109375 46.390625 
Q 20.953125 51.265625 25.265625 53.625 
Q 29.59375 56 35.59375 56 
Q 45.5625 56 51.78125 48.09375 
Q 58.015625 40.1875 58.015625 27.296875 
Q 58.015625 14.40625 51.78125 6.484375 
Q 45.5625 -1.421875 35.59375 -1.421875 
Q 29.59375 -1.421875 25.265625 0.953125 
Q 20.953125 3.328125 18.109375 8.203125 
z
M 48.6875 27.296875 
Q 48.6875 37.203125 44.609375 42.84375 
Q 40.53125 48.484375 33.40625 48.484375 
Q 26.265625 48.484375 22.1875 42.84375 
Q 18.109375 37.203125 18.109375 27.296875 
Q 18.109375 17.390625 22.1875 11.75 
Q 26.265625 6.109375 33.40625 6.109375 
Q 40.53125 6.109375 44.609375 11.75 
Q 48.6875 17.390625 48.6875 27.296875 
z
" id="DejaVuSans-112"/>
       </defs>
       <use xlink:href="#DejaVuSans-65"/>
       <use x="68.408203" xlink:href="#DejaVuSans-110"/>
       <use x="131.787109" xlink:href="#DejaVuSans-100"/>
       <use x="195.263672" xlink:href="#DejaVuSans-114"/>
       <use x="234.126953" xlink:href="#DejaVuSans-101"/>
       <use x="295.650391" xlink:href="#DejaVuSans-97"/>
       <use x="356.929688" xlink:href="#DejaVuSans-115"/>
       <use x="409.029297" xlink:href="#DejaVuSans-32"/>
       <use x="440.816406" xlink:href="#DejaVuSans-76"/>
       <use x="494.779297" xlink:href="#DejaVuSans-111"/>
       <use x="555.960938" xlink:href="#DejaVuSans-98"/>
       <use x="619.4375" xlink:href="#DejaVuSans-45"/>
       <use x="655.521484" xlink:href="#DejaVuSans-72"/>
       <use x="730.716797" xlink:href="#DejaVuSans-117"/>
       <use x="794.095703" xlink:href="#DejaVuSans-101"/>
       <use x="855.619141" xlink:href="#DejaVuSans-100"/>
       <use x="919.095703" xlink:href="#DejaVuSans-101"/>
       <use x="980.619141" xlink:href="#DejaVuSans-112"/>
       <use x="1044.095703" xlink:href="#DejaVuSans-111"/>
       <use x="1105.277344" xlink:href="#DejaVuSans-104"/>
       <use x="1168.65625" xlink:href="#DejaVuSans-108"/>
      </g>
     </g>
    </g>
    <g id="ytick_3">
     <g id="line2d_12">
      <g>
       <use style="stroke:#000000;stroke-width:0.8;" x="185.11" xlink:href="#m2f29244d2b" y="59.065195"/>
      </g>
     </g>
     <g id="text_13">
      <!-- Die Homeschooling-Revolution  -->
      <g transform="translate(21.4975 62.864414)scale(0.1 -0.1)">
       <defs>
        <path d="M 19.671875 64.796875 
L 19.671875 8.109375 
L 31.59375 8.109375 
Q 46.6875 8.109375 53.6875 14.9375 
Q 60.6875 21.78125 60.6875 36.53125 
Q 60.6875 51.171875 53.6875 57.984375 
Q 46.6875 64.796875 31.59375 64.796875 
z
M 9.8125 72.90625 
L 30.078125 72.90625 
Q 51.265625 72.90625 61.171875 64.09375 
Q 71.09375 55.28125 71.09375 36.53125 
Q 71.09375 17.671875 61.125 8.828125 
Q 51.171875 0 30.078125 0 
L 9.8125 0 
z
" id="DejaVuSans-68"/>
        <path d="M 52 44.1875 
Q 55.375 50.25 60.0625 53.125 
Q 64.75 56 71.09375 56 
Q 79.640625 56 84.28125 50.015625 
Q 88.921875 44.046875 88.921875 33.015625 
L 88.921875 0 
L 79.890625 0 
L 79.890625 32.71875 
Q 79.890625 40.578125 77.09375 44.375 
Q 74.3125 48.1875 68.609375 48.1875 
Q 61.625 48.1875 57.5625 43.546875 
Q 53.515625 38.921875 53.515625 30.90625 
L 53.515625 0 
L 44.484375 0 
L 44.484375 32.71875 
Q 44.484375 40.625 41.703125 44.40625 
Q 38.921875 48.1875 33.109375 48.1875 
Q 26.21875 48.1875 22.15625 43.53125 
Q 18.109375 38.875 18.109375 30.90625 
L 18.109375 0 
L 9.078125 0 
L 9.078125 54.6875 
L 18.109375 54.6875 
L 18.109375 46.1875 
Q 21.1875 51.21875 25.484375 53.609375 
Q 29.78125 56 35.6875 56 
Q 41.65625 56 45.828125 52.96875 
Q 50 49.953125 52 44.1875 
z
" id="DejaVuSans-109"/>
        <path d="M 48.78125 52.59375 
L 48.78125 44.1875 
Q 44.96875 46.296875 41.140625 47.34375 
Q 37.3125 48.390625 33.40625 48.390625 
Q 24.65625 48.390625 19.8125 42.84375 
Q 14.984375 37.3125 14.984375 27.296875 
Q 14.984375 17.28125 19.8125 11.734375 
Q 24.65625 6.203125 33.40625 6.203125 
Q 37.3125 6.203125 41.140625 7.25 
Q 44.96875 8.296875 48.78125 10.40625 
L 48.78125 2.09375 
Q 45.015625 0.34375 40.984375 -0.53125 
Q 36.96875 -1.421875 32.421875 -1.421875 
Q 20.0625 -1.421875 12.78125 6.34375 
Q 5.515625 14.109375 5.515625 27.296875 
Q 5.515625 40.671875 12.859375 48.328125 
Q 20.21875 56 33.015625 56 
Q 37.15625 56 41.109375 55.140625 
Q 45.0625 54.296875 48.78125 52.59375 
z
" id="DejaVuSans-99"/>
        <path d="M 44.390625 34.1875 
Q 47.5625 33.109375 50.5625 29.59375 
Q 53.5625 26.078125 56.59375 19.921875 
L 66.609375 0 
L 56 0 
L 46.6875 18.703125 
Q 43.0625 26.03125 39.671875 28.421875 
Q 36.28125 30.8125 30.421875 30.8125 
L 19.671875 30.8125 
L 19.671875 0 
L 9.8125 0 
L 9.8125 72.90625 
L 32.078125 72.90625 
Q 44.578125 72.90625 50.734375 67.671875 
Q 56.890625 62.453125 56.890625 51.90625 
Q 56.890625 45.015625 53.6875 40.46875 
Q 50.484375 35.9375 44.390625 34.1875 
z
M 19.671875 64.796875 
L 19.671875 38.921875 
L 32.078125 38.921875 
Q 39.203125 38.921875 42.84375 42.21875 
Q 46.484375 45.515625 46.484375 51.90625 
Q 46.484375 58.296875 42.84375 61.546875 
Q 39.203125 64.796875 32.078125 64.796875 
z
" id="DejaVuSans-82"/>
        <path d="M 2.984375 54.6875 
L 12.5 54.6875 
L 29.59375 8.796875 
L 46.6875 54.6875 
L 56.203125 54.6875 
L 35.6875 0 
L 23.484375 0 
z
" id="DejaVuSans-118"/>
       </defs>
       <use xlink:href="#DejaVuSans-68"/>
       <use x="77.001953" xlink:href="#DejaVuSans-105"/>
       <use x="104.785156" xlink:href="#DejaVuSans-101"/>
       <use x="166.308594" xlink:href="#DejaVuSans-32"/>
       <use x="198.095703" xlink:href="#DejaVuSans-72"/>
       <use x="273.291016" xlink:href="#DejaVuSans-111"/>
       <use x="334.472656" xlink:href="#DejaVuSans-109"/>
       <use x="431.884766" xlink:href="#DejaVuSans-101"/>
       <use x="493.408203" xlink:href="#DejaVuSans-115"/>
       <use x="545.507812" xlink:href="#DejaVuSans-99"/>
       <use x="600.488281" xlink:href="#DejaVuSans-104"/>
       <use x="663.867188" xlink:href="#DejaVuSans-111"/>
       <use x="725.048828" xlink:href="#DejaVuSans-111"/>
       <use x="786.230469" xlink:href="#DejaVuSans-108"/>
       <use x="814.013672" xlink:href="#DejaVuSans-105"/>
       <use x="841.796875" xlink:href="#DejaVuSans-110"/>
       <use x="905.175781" xlink:href="#DejaVuSans-103"/>
       <use x="968.652344" xlink:href="#DejaVuSans-45"/>
       <use x="1004.736328" xlink:href="#DejaVuSans-82"/>
       <use x="1069.71875" xlink:href="#DejaVuSans-101"/>
       <use x="1131.242188" xlink:href="#DejaVuSans-118"/>
       <use x="1190.421875" xlink:href="#DejaVuSans-111"/>
       <use x="1251.603516" xlink:href="#DejaVuSans-108"/>
       <use x="1279.386719" xlink:href="#DejaVuSans-117"/>
       <use x="1342.765625" xlink:href="#DejaVuSans-116"/>
       <use x="1381.974609" xlink:href="#DejaVuSans-105"/>
       <use x="1409.757812" xlink:href="#DejaVuSans-111"/>
       <use x="1470.939453" xlink:href="#DejaVuSans-110"/>
       <use x="1534.318359" xlink:href="#DejaVuSans-32"/>
      </g>
     </g>
    </g>
    <g id="ytick_4">
     <g id="line2d_13">
      <g>
       <use style="stroke:#000000;stroke-width:0.8;" x="185.11" xlink:href="#m2f29244d2b" y="67.234026"/>
      </g>
     </g>
     <g id="text_14">
      <!-- Hartmut Hengel -->
      <g transform="translate(97.963125 71.033245)scale(0.1 -0.1)">
       <use xlink:href="#DejaVuSans-72"/>
       <use x="75.195312" xlink:href="#DejaVuSans-97"/>
       <use x="136.474609" xlink:href="#DejaVuSans-114"/>
       <use x="177.587891" xlink:href="#DejaVuSans-116"/>
       <use x="216.796875" xlink:href="#DejaVuSans-109"/>
       <use x="314.208984" xlink:href="#DejaVuSans-117"/>
       <use x="377.587891" xlink:href="#DejaVuSans-116"/>
       <use x="416.796875" xlink:href="#DejaVuSans-32"/>
       <use x="448.583984" xlink:href="#DejaVuSans-72"/>
       <use x="523.779297" xlink:href="#DejaVuSans-101"/>
       <use x="585.302734" xlink:href="#DejaVuSans-110"/>
       <use x="648.681641" xlink:href="#DejaVuSans-103"/>
       <use x="712.158203" xlink:href="#DejaVuSans-101"/>
       <use x="773.681641" xlink:href="#DejaVuSans-108"/>
      </g>
     </g>
    </g>
    <g id="ytick_5">
     <g id="line2d_14">
      <g>
       <use style="stroke:#000000;stroke-width:0.8;" x="185.11" xlink:href="#m2f29244d2b" y="75.402857"/>
      </g>
     </g>
     <g id="text_15">
      <!-- Paul Wrusch -->
      <g transform="translate(117.177188 79.202076)scale(0.1 -0.1)">
       <defs>
        <path d="M 19.671875 64.796875 
L 19.671875 37.40625 
L 32.078125 37.40625 
Q 38.96875 37.40625 42.71875 40.96875 
Q 46.484375 44.53125 46.484375 51.125 
Q 46.484375 57.671875 42.71875 61.234375 
Q 38.96875 64.796875 32.078125 64.796875 
z
M 9.8125 72.90625 
L 32.078125 72.90625 
Q 44.34375 72.90625 50.609375 67.359375 
Q 56.890625 61.8125 56.890625 51.125 
Q 56.890625 40.328125 50.609375 34.8125 
Q 44.34375 29.296875 32.078125 29.296875 
L 19.671875 29.296875 
L 19.671875 0 
L 9.8125 0 
z
" id="DejaVuSans-80"/>
        <path d="M 3.328125 72.90625 
L 13.28125 72.90625 
L 28.609375 11.28125 
L 43.890625 72.90625 
L 54.984375 72.90625 
L 70.3125 11.28125 
L 85.59375 72.90625 
L 95.609375 72.90625 
L 77.296875 0 
L 64.890625 0 
L 49.515625 63.28125 
L 33.984375 0 
L 21.578125 0 
z
" id="DejaVuSans-87"/>
       </defs>
       <use xlink:href="#DejaVuSans-80"/>
       <use x="55.802734" xlink:href="#DejaVuSans-97"/>
       <use x="117.082031" xlink:href="#DejaVuSans-117"/>
       <use x="180.460938" xlink:href="#DejaVuSans-108"/>
       <use x="208.244141" xlink:href="#DejaVuSans-32"/>
       <use x="240.03125" xlink:href="#DejaVuSans-87"/>
       <use x="334.408203" xlink:href="#DejaVuSans-114"/>
       <use x="375.521484" xlink:href="#DejaVuSans-117"/>
       <use x="438.900391" xlink:href="#DejaVuSans-115"/>
       <use x="491" xlink:href="#DejaVuSans-99"/>
       <use x="545.980469" xlink:href="#DejaVuSans-104"/>
      </g>
     </g>
    </g>
    <g id="ytick_6">
     <g id="line2d_15">
      <g>
       <use style="stroke:#000000;stroke-width:0.8;" x="185.11" xlink:href="#m2f29244d2b" y="83.571688"/>
      </g>
     </g>
     <g id="text_16">
      <!-- Fabian Kretschmer -->
      <g transform="translate(84.805313 87.370907)scale(0.1 -0.1)">
       <defs>
        <path d="M 9.8125 72.90625 
L 51.703125 72.90625 
L 51.703125 64.59375 
L 19.671875 64.59375 
L 19.671875 43.109375 
L 48.578125 43.109375 
L 48.578125 34.8125 
L 19.671875 34.8125 
L 19.671875 0 
L 9.8125 0 
z
" id="DejaVuSans-70"/>
        <path d="M 9.8125 72.90625 
L 19.671875 72.90625 
L 19.671875 42.09375 
L 52.390625 72.90625 
L 65.09375 72.90625 
L 28.90625 38.921875 
L 67.671875 0 
L 54.6875 0 
L 19.671875 35.109375 
L 19.671875 0 
L 9.8125 0 
z
" id="DejaVuSans-75"/>
       </defs>
       <use xlink:href="#DejaVuSans-70"/>
       <use x="48.394531" xlink:href="#DejaVuSans-97"/>
       <use x="109.673828" xlink:href="#DejaVuSans-98"/>
       <use x="173.150391" xlink:href="#DejaVuSans-105"/>
       <use x="200.933594" xlink:href="#DejaVuSans-97"/>
       <use x="262.212891" xlink:href="#DejaVuSans-110"/>
       <use x="325.591797" xlink:href="#DejaVuSans-32"/>
       <use x="357.378906" xlink:href="#DejaVuSans-75"/>
       <use x="422.955078" xlink:href="#DejaVuSans-114"/>
       <use x="461.818359" xlink:href="#DejaVuSans-101"/>
       <use x="523.341797" xlink:href="#DejaVuSans-116"/>
       <use x="562.550781" xlink:href="#DejaVuSans-115"/>
       <use x="614.650391" xlink:href="#DejaVuSans-99"/>
       <use x="669.630859" xlink:href="#DejaVuSans-104"/>
       <use x="733.009766" xlink:href="#DejaVuSans-109"/>
       <use x="830.421875" xlink:href="#DejaVuSans-101"/>
       <use x="891.945312" xlink:href="#DejaVuSans-114"/>
      </g>
     </g>
    </g>
    <g id="ytick_7">
     <g id="line2d_16">
      <g>
       <use style="stroke:#000000;stroke-width:0.8;" x="185.11" xlink:href="#m2f29244d2b" y="91.740519"/>
      </g>
     </g>
     <g id="text_17">
      <!-- Gereon Asmuth -->
      <g transform="translate(100.149063 95.539738)scale(0.1 -0.1)">
       <defs>
        <path d="M 59.515625 10.40625 
L 59.515625 29.984375 
L 43.40625 29.984375 
L 43.40625 38.09375 
L 69.28125 38.09375 
L 69.28125 6.78125 
Q 63.578125 2.734375 56.6875 0.65625 
Q 49.8125 -1.421875 42 -1.421875 
Q 24.90625 -1.421875 15.25 8.5625 
Q 5.609375 18.5625 5.609375 36.375 
Q 5.609375 54.25 15.25 64.234375 
Q 24.90625 74.21875 42 74.21875 
Q 49.125 74.21875 55.546875 72.453125 
Q 61.96875 70.703125 67.390625 67.28125 
L 67.390625 56.78125 
Q 61.921875 61.421875 55.765625 63.765625 
Q 49.609375 66.109375 42.828125 66.109375 
Q 29.4375 66.109375 22.71875 58.640625 
Q 16.015625 51.171875 16.015625 36.375 
Q 16.015625 21.625 22.71875 14.15625 
Q 29.4375 6.6875 42.828125 6.6875 
Q 48.046875 6.6875 52.140625 7.59375 
Q 56.25 8.5 59.515625 10.40625 
z
" id="DejaVuSans-71"/>
       </defs>
       <use xlink:href="#DejaVuSans-71"/>
       <use x="77.490234" xlink:href="#DejaVuSans-101"/>
       <use x="139.013672" xlink:href="#DejaVuSans-114"/>
       <use x="177.876953" xlink:href="#DejaVuSans-101"/>
       <use x="239.400391" xlink:href="#DejaVuSans-111"/>
       <use x="300.582031" xlink:href="#DejaVuSans-110"/>
       <use x="363.960938" xlink:href="#DejaVuSans-32"/>
       <use x="395.748047" xlink:href="#DejaVuSans-65"/>
       <use x="464.15625" xlink:href="#DejaVuSans-115"/>
       <use x="516.255859" xlink:href="#DejaVuSans-109"/>
       <use x="613.667969" xlink:href="#DejaVuSans-117"/>
       <use x="677.046875" xlink:href="#DejaVuSans-116"/>
       <use x="716.255859" xlink:href="#DejaVuSans-104"/>
      </g>
     </g>
    </g>
    <g id="ytick_8">
     <g id="line2d_17">
      <g>
       <use style="stroke:#000000;stroke-width:0.8;" x="185.11" xlink:href="#m2f29244d2b" y="99.909351"/>
      </g>
     </g>
     <g id="text_18">
      <!-- Marina Mai -->
      <g transform="translate(123.286563 103.708569)scale(0.1 -0.1)">
       <defs>
        <path d="M 9.8125 72.90625 
L 24.515625 72.90625 
L 43.109375 23.296875 
L 61.8125 72.90625 
L 76.515625 72.90625 
L 76.515625 0 
L 66.890625 0 
L 66.890625 64.015625 
L 48.09375 14.015625 
L 38.1875 14.015625 
L 19.390625 64.015625 
L 19.390625 0 
L 9.8125 0 
z
" id="DejaVuSans-77"/>
       </defs>
       <use xlink:href="#DejaVuSans-77"/>
       <use x="86.279297" xlink:href="#DejaVuSans-97"/>
       <use x="147.558594" xlink:href="#DejaVuSans-114"/>
       <use x="188.671875" xlink:href="#DejaVuSans-105"/>
       <use x="216.455078" xlink:href="#DejaVuSans-110"/>
       <use x="279.833984" xlink:href="#DejaVuSans-97"/>
       <use x="341.113281" xlink:href="#DejaVuSans-32"/>
       <use x="372.900391" xlink:href="#DejaVuSans-77"/>
       <use x="459.179688" xlink:href="#DejaVuSans-97"/>
       <use x="520.458984" xlink:href="#DejaVuSans-105"/>
      </g>
     </g>
    </g>
    <g id="ytick_9">
     <g id="line2d_18">
      <g>
       <use style="stroke:#000000;stroke-width:0.8;" x="185.11" xlink:href="#m2f29244d2b" y="108.078182"/>
      </g>
     </g>
     <g id="text_19">
      <!-- Kristina Schütz -->
      <g transform="translate(103.420938 111.877401)scale(0.1 -0.1)">
       <defs>
        <path d="M 53.515625 70.515625 
L 53.515625 60.890625 
Q 47.90625 63.578125 42.921875 64.890625 
Q 37.9375 66.21875 33.296875 66.21875 
Q 25.25 66.21875 20.875 63.09375 
Q 16.5 59.96875 16.5 54.203125 
Q 16.5 49.359375 19.40625 46.890625 
Q 22.3125 44.4375 30.421875 42.921875 
L 36.375 41.703125 
Q 47.40625 39.59375 52.65625 34.296875 
Q 57.90625 29 57.90625 20.125 
Q 57.90625 9.515625 50.796875 4.046875 
Q 43.703125 -1.421875 29.984375 -1.421875 
Q 24.8125 -1.421875 18.96875 -0.25 
Q 13.140625 0.921875 6.890625 3.21875 
L 6.890625 13.375 
Q 12.890625 10.015625 18.65625 8.296875 
Q 24.421875 6.59375 29.984375 6.59375 
Q 38.421875 6.59375 43.015625 9.90625 
Q 47.609375 13.234375 47.609375 19.390625 
Q 47.609375 24.75 44.3125 27.78125 
Q 41.015625 30.8125 33.5 32.328125 
L 27.484375 33.5 
Q 16.453125 35.6875 11.515625 40.375 
Q 6.59375 45.0625 6.59375 53.421875 
Q 6.59375 63.09375 13.40625 68.65625 
Q 20.21875 74.21875 32.171875 74.21875 
Q 37.3125 74.21875 42.625 73.28125 
Q 47.953125 72.359375 53.515625 70.515625 
z
" id="DejaVuSans-83"/>
        <path d="M 8.5 21.578125 
L 8.5 54.6875 
L 17.484375 54.6875 
L 17.484375 21.921875 
Q 17.484375 14.15625 20.5 10.265625 
Q 23.53125 6.390625 29.59375 6.390625 
Q 36.859375 6.390625 41.078125 11.03125 
Q 45.3125 15.671875 45.3125 23.6875 
L 45.3125 54.6875 
L 54.296875 54.6875 
L 54.296875 0 
L 45.3125 0 
L 45.3125 8.40625 
Q 42.046875 3.421875 37.71875 1 
Q 33.40625 -1.421875 27.6875 -1.421875 
Q 18.265625 -1.421875 13.375 4.4375 
Q 8.5 10.296875 8.5 21.578125 
z
M 31.109375 56 
z
M 35.59375 75.78125 
L 45.5 75.78125 
L 45.5 65.921875 
L 35.59375 65.921875 
z
M 16.5 75.78125 
L 26.40625 75.78125 
L 26.40625 65.921875 
L 16.5 65.921875 
z
" id="DejaVuSans-252"/>
       </defs>
       <use xlink:href="#DejaVuSans-75"/>
       <use x="65.576172" xlink:href="#DejaVuSans-114"/>
       <use x="106.689453" xlink:href="#DejaVuSans-105"/>
       <use x="134.472656" xlink:href="#DejaVuSans-115"/>
       <use x="186.572266" xlink:href="#DejaVuSans-116"/>
       <use x="225.78125" xlink:href="#DejaVuSans-105"/>
       <use x="253.564453" xlink:href="#DejaVuSans-110"/>
       <use x="316.943359" xlink:href="#DejaVuSans-97"/>
       <use x="378.222656" xlink:href="#DejaVuSans-32"/>
       <use x="410.009766" xlink:href="#DejaVuSans-83"/>
       <use x="473.486328" xlink:href="#DejaVuSans-99"/>
       <use x="528.466797" xlink:href="#DejaVuSans-104"/>
       <use x="591.845703" xlink:href="#DejaVuSans-252"/>
       <use x="655.224609" xlink:href="#DejaVuSans-116"/>
       <use x="694.433594" xlink:href="#DejaVuSans-122"/>
      </g>
     </g>
    </g>
    <g id="ytick_10">
     <g id="line2d_19">
      <g>
       <use style="stroke:#000000;stroke-width:0.8;" x="185.11" xlink:href="#m2f29244d2b" y="116.247013"/>
      </g>
     </g>
     <g id="text_20">
      <!-- Felix Lee -->
      <g transform="translate(134.399063 120.046232)scale(0.1 -0.1)">
       <defs>
        <path d="M 54.890625 54.6875 
L 35.109375 28.078125 
L 55.90625 0 
L 45.3125 0 
L 29.390625 21.484375 
L 13.484375 0 
L 2.875 0 
L 24.125 28.609375 
L 4.6875 54.6875 
L 15.28125 54.6875 
L 29.78125 35.203125 
L 44.28125 54.6875 
z
" id="DejaVuSans-120"/>
       </defs>
       <use xlink:href="#DejaVuSans-70"/>
       <use x="52.019531" xlink:href="#DejaVuSans-101"/>
       <use x="113.542969" xlink:href="#DejaVuSans-108"/>
       <use x="141.326172" xlink:href="#DejaVuSans-105"/>
       <use x="169.109375" xlink:href="#DejaVuSans-120"/>
       <use x="228.289062" xlink:href="#DejaVuSans-32"/>
       <use x="260.076172" xlink:href="#DejaVuSans-76"/>
       <use x="314.039062" xlink:href="#DejaVuSans-101"/>
       <use x="375.5625" xlink:href="#DejaVuSans-101"/>
      </g>
     </g>
    </g>
    <g id="ytick_11">
     <g id="line2d_20">
      <g>
       <use style="stroke:#000000;stroke-width:0.8;" x="185.11" xlink:href="#m2f29244d2b" y="124.415844"/>
      </g>
     </g>
     <g id="text_21">
      <!-- Klaus Cichutek -->
      <g transform="translate(104.1225 128.215063)scale(0.1 -0.1)">
       <defs>
        <path d="M 64.40625 67.28125 
L 64.40625 56.890625 
Q 59.421875 61.53125 53.78125 63.8125 
Q 48.140625 66.109375 41.796875 66.109375 
Q 29.296875 66.109375 22.65625 58.46875 
Q 16.015625 50.828125 16.015625 36.375 
Q 16.015625 21.96875 22.65625 14.328125 
Q 29.296875 6.6875 41.796875 6.6875 
Q 48.140625 6.6875 53.78125 8.984375 
Q 59.421875 11.28125 64.40625 15.921875 
L 64.40625 5.609375 
Q 59.234375 2.09375 53.4375 0.328125 
Q 47.65625 -1.421875 41.21875 -1.421875 
Q 24.65625 -1.421875 15.125 8.703125 
Q 5.609375 18.84375 5.609375 36.375 
Q 5.609375 53.953125 15.125 64.078125 
Q 24.65625 74.21875 41.21875 74.21875 
Q 47.75 74.21875 53.53125 72.484375 
Q 59.328125 70.75 64.40625 67.28125 
z
" id="DejaVuSans-67"/>
       </defs>
       <use xlink:href="#DejaVuSans-75"/>
       <use x="65.576172" xlink:href="#DejaVuSans-108"/>
       <use x="93.359375" xlink:href="#DejaVuSans-97"/>
       <use x="154.638672" xlink:href="#DejaVuSans-117"/>
       <use x="218.017578" xlink:href="#DejaVuSans-115"/>
       <use x="270.117188" xlink:href="#DejaVuSans-32"/>
       <use x="301.904297" xlink:href="#DejaVuSans-67"/>
       <use x="371.728516" xlink:href="#DejaVuSans-105"/>
       <use x="399.511719" xlink:href="#DejaVuSans-99"/>
       <use x="454.492188" xlink:href="#DejaVuSans-104"/>
       <use x="517.871094" xlink:href="#DejaVuSans-117"/>
       <use x="581.25" xlink:href="#DejaVuSans-116"/>
       <use x="620.458984" xlink:href="#DejaVuSans-101"/>
       <use x="681.982422" xlink:href="#DejaVuSans-107"/>
      </g>
     </g>
    </g>
    <g id="ytick_12">
     <g id="line2d_21">
      <g>
       <use style="stroke:#000000;stroke-width:0.8;" x="185.11" xlink:href="#m2f29244d2b" y="132.584675"/>
      </g>
     </g>
     <g id="text_22">
      <!-- Malte Kreutzfeldt -->
      <g transform="translate(92.500625 136.383894)scale(0.1 -0.1)">
       <defs>
        <path d="M 37.109375 75.984375 
L 37.109375 68.5 
L 28.515625 68.5 
Q 23.6875 68.5 21.796875 66.546875 
Q 19.921875 64.59375 19.921875 59.515625 
L 19.921875 54.6875 
L 34.71875 54.6875 
L 34.71875 47.703125 
L 19.921875 47.703125 
L 19.921875 0 
L 10.890625 0 
L 10.890625 47.703125 
L 2.296875 47.703125 
L 2.296875 54.6875 
L 10.890625 54.6875 
L 10.890625 58.5 
Q 10.890625 67.625 15.140625 71.796875 
Q 19.390625 75.984375 28.609375 75.984375 
z
" id="DejaVuSans-102"/>
       </defs>
       <use xlink:href="#DejaVuSans-77"/>
       <use x="86.279297" xlink:href="#DejaVuSans-97"/>
       <use x="147.558594" xlink:href="#DejaVuSans-108"/>
       <use x="175.341797" xlink:href="#DejaVuSans-116"/>
       <use x="214.550781" xlink:href="#DejaVuSans-101"/>
       <use x="276.074219" xlink:href="#DejaVuSans-32"/>
       <use x="307.861328" xlink:href="#DejaVuSans-75"/>
       <use x="373.4375" xlink:href="#DejaVuSans-114"/>
       <use x="412.300781" xlink:href="#DejaVuSans-101"/>
       <use x="473.824219" xlink:href="#DejaVuSans-117"/>
       <use x="537.203125" xlink:href="#DejaVuSans-116"/>
       <use x="576.412109" xlink:href="#DejaVuSans-122"/>
       <use x="628.902344" xlink:href="#DejaVuSans-102"/>
       <use x="664.107422" xlink:href="#DejaVuSans-101"/>
       <use x="725.630859" xlink:href="#DejaVuSans-108"/>
       <use x="753.414062" xlink:href="#DejaVuSans-100"/>
       <use x="816.890625" xlink:href="#DejaVuSans-116"/>
      </g>
     </g>
    </g>
    <g id="ytick_13">
     <g id="line2d_22">
      <g>
       <use style="stroke:#000000;stroke-width:0.8;" x="185.11" xlink:href="#m2f29244d2b" y="140.753506"/>
      </g>
     </g>
     <g id="text_23">
      <!-- Eva Oer -->
      <g transform="translate(138.430313 144.552725)scale(0.1 -0.1)">
       <defs>
        <path d="M 9.8125 72.90625 
L 55.90625 72.90625 
L 55.90625 64.59375 
L 19.671875 64.59375 
L 19.671875 43.015625 
L 54.390625 43.015625 
L 54.390625 34.71875 
L 19.671875 34.71875 
L 19.671875 8.296875 
L 56.78125 8.296875 
L 56.78125 0 
L 9.8125 0 
z
" id="DejaVuSans-69"/>
        <path d="M 39.40625 66.21875 
Q 28.65625 66.21875 22.328125 58.203125 
Q 16.015625 50.203125 16.015625 36.375 
Q 16.015625 22.609375 22.328125 14.59375 
Q 28.65625 6.59375 39.40625 6.59375 
Q 50.140625 6.59375 56.421875 14.59375 
Q 62.703125 22.609375 62.703125 36.375 
Q 62.703125 50.203125 56.421875 58.203125 
Q 50.140625 66.21875 39.40625 66.21875 
z
M 39.40625 74.21875 
Q 54.734375 74.21875 63.90625 63.9375 
Q 73.09375 53.65625 73.09375 36.375 
Q 73.09375 19.140625 63.90625 8.859375 
Q 54.734375 -1.421875 39.40625 -1.421875 
Q 24.03125 -1.421875 14.8125 8.828125 
Q 5.609375 19.09375 5.609375 36.375 
Q 5.609375 53.65625 14.8125 63.9375 
Q 24.03125 74.21875 39.40625 74.21875 
z
" id="DejaVuSans-79"/>
       </defs>
       <use xlink:href="#DejaVuSans-69"/>
       <use x="63.183594" xlink:href="#DejaVuSans-118"/>
       <use x="122.363281" xlink:href="#DejaVuSans-97"/>
       <use x="183.642578" xlink:href="#DejaVuSans-32"/>
       <use x="215.429688" xlink:href="#DejaVuSans-79"/>
       <use x="294.140625" xlink:href="#DejaVuSans-101"/>
       <use x="355.664062" xlink:href="#DejaVuSans-114"/>
      </g>
     </g>
    </g>
    <g id="ytick_14">
     <g id="line2d_23">
      <g>
       <use style="stroke:#000000;stroke-width:0.8;" x="185.11" xlink:href="#m2f29244d2b" y="148.922338"/>
      </g>
     </g>
     <g id="text_24">
      <!-- Alina Leimbach -->
      <g transform="translate(101.688125 152.721556)scale(0.1 -0.1)">
       <use xlink:href="#DejaVuSans-65"/>
       <use x="68.408203" xlink:href="#DejaVuSans-108"/>
       <use x="96.191406" xlink:href="#DejaVuSans-105"/>
       <use x="123.974609" xlink:href="#DejaVuSans-110"/>
       <use x="187.353516" xlink:href="#DejaVuSans-97"/>
       <use x="248.632812" xlink:href="#DejaVuSans-32"/>
       <use x="280.419922" xlink:href="#DejaVuSans-76"/>
       <use x="334.382812" xlink:href="#DejaVuSans-101"/>
       <use x="395.90625" xlink:href="#DejaVuSans-105"/>
       <use x="423.689453" xlink:href="#DejaVuSans-109"/>
       <use x="521.101562" xlink:href="#DejaVuSans-98"/>
       <use x="584.578125" xlink:href="#DejaVuSans-97"/>
       <use x="645.857422" xlink:href="#DejaVuSans-99"/>
       <use x="700.837891" xlink:href="#DejaVuSans-104"/>
      </g>
     </g>
    </g>
    <g id="ytick_15">
     <g id="line2d_24">
      <g>
       <use style="stroke:#000000;stroke-width:0.8;" x="185.11" xlink:href="#m2f29244d2b" y="157.091169"/>
      </g>
     </g>
     <g id="text_25">
      <!-- Author nicht bekannt -->
      <g transform="translate(72.375625 160.890388)scale(0.1 -0.1)">
       <use xlink:href="#DejaVuSans-65"/>
       <use x="68.408203" xlink:href="#DejaVuSans-117"/>
       <use x="131.787109" xlink:href="#DejaVuSans-116"/>
       <use x="170.996094" xlink:href="#DejaVuSans-104"/>
       <use x="234.375" xlink:href="#DejaVuSans-111"/>
       <use x="295.556641" xlink:href="#DejaVuSans-114"/>
       <use x="336.669922" xlink:href="#DejaVuSans-32"/>
       <use x="368.457031" xlink:href="#DejaVuSans-110"/>
       <use x="431.835938" xlink:href="#DejaVuSans-105"/>
       <use x="459.619141" xlink:href="#DejaVuSans-99"/>
       <use x="514.599609" xlink:href="#DejaVuSans-104"/>
       <use x="577.978516" xlink:href="#DejaVuSans-116"/>
       <use x="617.1875" xlink:href="#DejaVuSans-32"/>
       <use x="648.974609" xlink:href="#DejaVuSans-98"/>
       <use x="712.451172" xlink:href="#DejaVuSans-101"/>
       <use x="773.974609" xlink:href="#DejaVuSans-107"/>
       <use x="830.134766" xlink:href="#DejaVuSans-97"/>
       <use x="891.414062" xlink:href="#DejaVuSans-110"/>
       <use x="954.792969" xlink:href="#DejaVuSans-110"/>
       <use x="1018.171875" xlink:href="#DejaVuSans-116"/>
      </g>
     </g>
    </g>
    <g id="ytick_16">
     <g id="line2d_25">
      <g>
       <use style="stroke:#000000;stroke-width:0.8;" x="185.11" xlink:href="#m2f29244d2b" y="165.26"/>
      </g>
     </g>
     <g id="text_26">
      <!-- Sarah Ulrich -->
      <g transform="translate(117.056875 169.059219)scale(0.1 -0.1)">
       <defs>
        <path d="M 8.6875 72.90625 
L 18.609375 72.90625 
L 18.609375 28.609375 
Q 18.609375 16.890625 22.84375 11.734375 
Q 27.09375 6.59375 36.625 6.59375 
Q 46.09375 6.59375 50.34375 11.734375 
Q 54.59375 16.890625 54.59375 28.609375 
L 54.59375 72.90625 
L 64.5 72.90625 
L 64.5 27.390625 
Q 64.5 13.140625 57.4375 5.859375 
Q 50.390625 -1.421875 36.625 -1.421875 
Q 22.796875 -1.421875 15.734375 5.859375 
Q 8.6875 13.140625 8.6875 27.390625 
z
" id="DejaVuSans-85"/>
       </defs>
       <use xlink:href="#DejaVuSans-83"/>
       <use x="63.476562" xlink:href="#DejaVuSans-97"/>
       <use x="124.755859" xlink:href="#DejaVuSans-114"/>
       <use x="165.869141" xlink:href="#DejaVuSans-97"/>
       <use x="227.148438" xlink:href="#DejaVuSans-104"/>
       <use x="290.527344" xlink:href="#DejaVuSans-32"/>
       <use x="322.314453" xlink:href="#DejaVuSans-85"/>
       <use x="395.507812" xlink:href="#DejaVuSans-108"/>
       <use x="423.291016" xlink:href="#DejaVuSans-114"/>
       <use x="464.404297" xlink:href="#DejaVuSans-105"/>
       <use x="492.1875" xlink:href="#DejaVuSans-99"/>
       <use x="547.167969" xlink:href="#DejaVuSans-104"/>
      </g>
     </g>
    </g>
    <g id="ytick_17">
     <g id="line2d_26">
      <g>
       <use style="stroke:#000000;stroke-width:0.8;" x="185.11" xlink:href="#m2f29244d2b" y="173.428831"/>
      </g>
     </g>
     <g id="text_27">
      <!-- Manuela Heim -->
      <g transform="translate(106.249063 177.22805)scale(0.1 -0.1)">
       <use xlink:href="#DejaVuSans-77"/>
       <use x="86.279297" xlink:href="#DejaVuSans-97"/>
       <use x="147.558594" xlink:href="#DejaVuSans-110"/>
       <use x="210.9375" xlink:href="#DejaVuSans-117"/>
       <use x="274.316406" xlink:href="#DejaVuSans-101"/>
       <use x="335.839844" xlink:href="#DejaVuSans-108"/>
       <use x="363.623047" xlink:href="#DejaVuSans-97"/>
       <use x="424.902344" xlink:href="#DejaVuSans-32"/>
       <use x="456.689453" xlink:href="#DejaVuSans-72"/>
       <use x="531.884766" xlink:href="#DejaVuSans-101"/>
       <use x="593.408203" xlink:href="#DejaVuSans-105"/>
       <use x="621.191406" xlink:href="#DejaVuSans-109"/>
      </g>
     </g>
    </g>
    <g id="ytick_18">
     <g id="line2d_27">
      <g>
       <use style="stroke:#000000;stroke-width:0.8;" x="185.11" xlink:href="#m2f29244d2b" y="181.597662"/>
      </g>
     </g>
     <g id="text_28">
      <!-- Daniel Zylbersztajn-Lewandowski -->
      <g transform="translate(11.050625 185.396881)scale(0.1 -0.1)">
       <defs>
        <path d="M 5.609375 72.90625 
L 62.890625 72.90625 
L 62.890625 65.375 
L 16.796875 8.296875 
L 64.015625 8.296875 
L 64.015625 0 
L 4.5 0 
L 4.5 7.515625 
L 50.59375 64.59375 
L 5.609375 64.59375 
z
" id="DejaVuSans-90"/>
        <path d="M 32.171875 -5.078125 
Q 28.375 -14.84375 24.75 -17.8125 
Q 21.140625 -20.796875 15.09375 -20.796875 
L 7.90625 -20.796875 
L 7.90625 -13.28125 
L 13.1875 -13.28125 
Q 16.890625 -13.28125 18.9375 -11.515625 
Q 21 -9.765625 23.484375 -3.21875 
L 25.09375 0.875 
L 2.984375 54.6875 
L 12.5 54.6875 
L 29.59375 11.921875 
L 46.6875 54.6875 
L 56.203125 54.6875 
z
" id="DejaVuSans-121"/>
        <path d="M 9.421875 54.6875 
L 18.40625 54.6875 
L 18.40625 -0.984375 
Q 18.40625 -11.421875 14.421875 -16.109375 
Q 10.453125 -20.796875 1.609375 -20.796875 
L -1.8125 -20.796875 
L -1.8125 -13.1875 
L 0.59375 -13.1875 
Q 5.71875 -13.1875 7.5625 -10.8125 
Q 9.421875 -8.453125 9.421875 -0.984375 
z
M 9.421875 75.984375 
L 18.40625 75.984375 
L 18.40625 64.59375 
L 9.421875 64.59375 
z
" id="DejaVuSans-106"/>
        <path d="M 4.203125 54.6875 
L 13.1875 54.6875 
L 24.421875 12.015625 
L 35.59375 54.6875 
L 46.1875 54.6875 
L 57.421875 12.015625 
L 68.609375 54.6875 
L 77.59375 54.6875 
L 63.28125 0 
L 52.6875 0 
L 40.921875 44.828125 
L 29.109375 0 
L 18.5 0 
z
" id="DejaVuSans-119"/>
       </defs>
       <use xlink:href="#DejaVuSans-68"/>
       <use x="77.001953" xlink:href="#DejaVuSans-97"/>
       <use x="138.28125" xlink:href="#DejaVuSans-110"/>
       <use x="201.660156" xlink:href="#DejaVuSans-105"/>
       <use x="229.443359" xlink:href="#DejaVuSans-101"/>
       <use x="290.966797" xlink:href="#DejaVuSans-108"/>
       <use x="318.75" xlink:href="#DejaVuSans-32"/>
       <use x="350.537109" xlink:href="#DejaVuSans-90"/>
       <use x="419.042969" xlink:href="#DejaVuSans-121"/>
       <use x="478.222656" xlink:href="#DejaVuSans-108"/>
       <use x="506.005859" xlink:href="#DejaVuSans-98"/>
       <use x="569.482422" xlink:href="#DejaVuSans-101"/>
       <use x="631.005859" xlink:href="#DejaVuSans-114"/>
       <use x="672.119141" xlink:href="#DejaVuSans-115"/>
       <use x="724.21875" xlink:href="#DejaVuSans-122"/>
       <use x="776.708984" xlink:href="#DejaVuSans-116"/>
       <use x="815.917969" xlink:href="#DejaVuSans-97"/>
       <use x="877.197266" xlink:href="#DejaVuSans-106"/>
       <use x="904.980469" xlink:href="#DejaVuSans-110"/>
       <use x="968.359375" xlink:href="#DejaVuSans-45"/>
       <use x="1004.443359" xlink:href="#DejaVuSans-76"/>
       <use x="1058.40625" xlink:href="#DejaVuSans-101"/>
       <use x="1119.929688" xlink:href="#DejaVuSans-119"/>
       <use x="1201.716797" xlink:href="#DejaVuSans-97"/>
       <use x="1262.996094" xlink:href="#DejaVuSans-110"/>
       <use x="1326.375" xlink:href="#DejaVuSans-100"/>
       <use x="1389.851562" xlink:href="#DejaVuSans-111"/>
       <use x="1451.033203" xlink:href="#DejaVuSans-119"/>
       <use x="1532.820312" xlink:href="#DejaVuSans-115"/>
       <use x="1584.919922" xlink:href="#DejaVuSans-107"/>
       <use x="1642.830078" xlink:href="#DejaVuSans-105"/>
      </g>
     </g>
    </g>
    <g id="ytick_19">
     <g id="line2d_28">
      <g>
       <use style="stroke:#000000;stroke-width:0.8;" x="185.11" xlink:href="#m2f29244d2b" y="189.766494"/>
      </g>
     </g>
     <g id="text_29">
      <!-- Eva Mirasol -->
      <g transform="translate(120.814688 193.565712)scale(0.1 -0.1)">
       <use xlink:href="#DejaVuSans-69"/>
       <use x="63.183594" xlink:href="#DejaVuSans-118"/>
       <use x="122.363281" xlink:href="#DejaVuSans-97"/>
       <use x="183.642578" xlink:href="#DejaVuSans-32"/>
       <use x="215.429688" xlink:href="#DejaVuSans-77"/>
       <use x="301.708984" xlink:href="#DejaVuSans-105"/>
       <use x="329.492188" xlink:href="#DejaVuSans-114"/>
       <use x="370.605469" xlink:href="#DejaVuSans-97"/>
       <use x="431.884766" xlink:href="#DejaVuSans-115"/>
       <use x="483.984375" xlink:href="#DejaVuSans-111"/>
       <use x="545.166016" xlink:href="#DejaVuSans-108"/>
      </g>
     </g>
    </g>
    <g id="ytick_20">
     <g id="line2d_29">
      <g>
       <use style="stroke:#000000;stroke-width:0.8;" x="185.11" xlink:href="#m2f29244d2b" y="197.935325"/>
      </g>
     </g>
     <g id="text_30">
      <!-- Kirsten Achtelik -->
      <g transform="translate(99.942813 201.734543)scale(0.1 -0.1)">
       <use xlink:href="#DejaVuSans-75"/>
       <use x="65.576172" xlink:href="#DejaVuSans-105"/>
       <use x="93.359375" xlink:href="#DejaVuSans-114"/>
       <use x="134.472656" xlink:href="#DejaVuSans-115"/>
       <use x="186.572266" xlink:href="#DejaVuSans-116"/>
       <use x="225.78125" xlink:href="#DejaVuSans-101"/>
       <use x="287.304688" xlink:href="#DejaVuSans-110"/>
       <use x="350.683594" xlink:href="#DejaVuSans-32"/>
       <use x="382.470703" xlink:href="#DejaVuSans-65"/>
       <use x="449.128906" xlink:href="#DejaVuSans-99"/>
       <use x="504.109375" xlink:href="#DejaVuSans-104"/>
       <use x="567.488281" xlink:href="#DejaVuSans-116"/>
       <use x="606.697266" xlink:href="#DejaVuSans-101"/>
       <use x="668.220703" xlink:href="#DejaVuSans-108"/>
       <use x="696.003906" xlink:href="#DejaVuSans-105"/>
       <use x="723.787109" xlink:href="#DejaVuSans-107"/>
      </g>
     </g>
    </g>
    <g id="ytick_21">
     <g id="line2d_30">
      <g>
       <use style="stroke:#000000;stroke-width:0.8;" x="185.11" xlink:href="#m2f29244d2b" y="206.104156"/>
      </g>
     </g>
     <g id="text_31">
      <!-- Rudolf Balmer -->
      <g transform="translate(107.558438 209.903375)scale(0.1 -0.1)">
       <defs>
        <path d="M 19.671875 34.8125 
L 19.671875 8.109375 
L 35.5 8.109375 
Q 43.453125 8.109375 47.28125 11.40625 
Q 51.125 14.703125 51.125 21.484375 
Q 51.125 28.328125 47.28125 31.5625 
Q 43.453125 34.8125 35.5 34.8125 
z
M 19.671875 64.796875 
L 19.671875 42.828125 
L 34.28125 42.828125 
Q 41.5 42.828125 45.03125 45.53125 
Q 48.578125 48.25 48.578125 53.8125 
Q 48.578125 59.328125 45.03125 62.0625 
Q 41.5 64.796875 34.28125 64.796875 
z
M 9.8125 72.90625 
L 35.015625 72.90625 
Q 46.296875 72.90625 52.390625 68.21875 
Q 58.5 63.53125 58.5 54.890625 
Q 58.5 48.1875 55.375 44.234375 
Q 52.25 40.28125 46.1875 39.3125 
Q 53.46875 37.75 57.5 32.78125 
Q 61.53125 27.828125 61.53125 20.40625 
Q 61.53125 10.640625 54.890625 5.3125 
Q 48.25 0 35.984375 0 
L 9.8125 0 
z
" id="DejaVuSans-66"/>
       </defs>
       <use xlink:href="#DejaVuSans-82"/>
       <use x="64.982422" xlink:href="#DejaVuSans-117"/>
       <use x="128.361328" xlink:href="#DejaVuSans-100"/>
       <use x="191.837891" xlink:href="#DejaVuSans-111"/>
       <use x="253.019531" xlink:href="#DejaVuSans-108"/>
       <use x="280.802734" xlink:href="#DejaVuSans-102"/>
       <use x="316.007812" xlink:href="#DejaVuSans-32"/>
       <use x="347.794922" xlink:href="#DejaVuSans-66"/>
       <use x="416.398438" xlink:href="#DejaVuSans-97"/>
       <use x="477.677734" xlink:href="#DejaVuSans-108"/>
       <use x="505.460938" xlink:href="#DejaVuSans-109"/>
       <use x="602.873047" xlink:href="#DejaVuSans-101"/>
       <use x="664.396484" xlink:href="#DejaVuSans-114"/>
      </g>
     </g>
    </g>
    <g id="ytick_22">
     <g id="line2d_31">
      <g>
       <use style="stroke:#000000;stroke-width:0.8;" x="185.11" xlink:href="#m2f29244d2b" y="214.272987"/>
      </g>
     </g>
     <g id="text_32">
      <!-- Franziska Schindler -->
      <g transform="translate(81.658438 218.072206)scale(0.1 -0.1)">
       <use xlink:href="#DejaVuSans-70"/>
       <use x="50.269531" xlink:href="#DejaVuSans-114"/>
       <use x="91.382812" xlink:href="#DejaVuSans-97"/>
       <use x="152.662109" xlink:href="#DejaVuSans-110"/>
       <use x="216.041016" xlink:href="#DejaVuSans-122"/>
       <use x="268.53125" xlink:href="#DejaVuSans-105"/>
       <use x="296.314453" xlink:href="#DejaVuSans-115"/>
       <use x="348.414062" xlink:href="#DejaVuSans-107"/>
       <use x="404.574219" xlink:href="#DejaVuSans-97"/>
       <use x="465.853516" xlink:href="#DejaVuSans-32"/>
       <use x="497.640625" xlink:href="#DejaVuSans-83"/>
       <use x="561.117188" xlink:href="#DejaVuSans-99"/>
       <use x="616.097656" xlink:href="#DejaVuSans-104"/>
       <use x="679.476562" xlink:href="#DejaVuSans-105"/>
       <use x="707.259766" xlink:href="#DejaVuSans-110"/>
       <use x="770.638672" xlink:href="#DejaVuSans-100"/>
       <use x="834.115234" xlink:href="#DejaVuSans-108"/>
       <use x="861.898438" xlink:href="#DejaVuSans-101"/>
       <use x="923.421875" xlink:href="#DejaVuSans-114"/>
      </g>
     </g>
    </g>
    <g id="ytick_23">
     <g id="line2d_32">
      <g>
       <use style="stroke:#000000;stroke-width:0.8;" x="185.11" xlink:href="#m2f29244d2b" y="222.441818"/>
      </g>
     </g>
     <g id="text_33">
      <!-- Gerald Gaß  -->
      <g transform="translate(118.311563 226.241037)scale(0.1 -0.1)">
       <defs>
        <path d="M 9.078125 55.515625 
Q 9.078125 65.28125 14.90625 70.625 
Q 20.75 75.984375 31.390625 75.984375 
Q 41.546875 75.984375 46.890625 70.3125 
Q 52.25 64.65625 52.390625 53.71875 
Q 45.015625 53.328125 40.90625 50.515625 
Q 36.8125 47.703125 36.8125 43.015625 
Q 36.8125 40.71875 38.234375 38.734375 
Q 39.65625 36.765625 42.828125 34.71875 
L 45.609375 32.90625 
Q 53.71875 27.734375 56.0625 24.265625 
Q 58.40625 20.796875 58.40625 15.921875 
Q 58.40625 7.515625 52.90625 3.046875 
Q 47.40625 -1.421875 37.109375 -1.421875 
Q 33.984375 -1.421875 30.65625 -0.8125 
Q 27.34375 -0.203125 23.78125 0.984375 
L 23.78125 8.984375 
Q 27.6875 7.515625 31.09375 6.8125 
Q 34.515625 6.109375 37.703125 6.109375 
Q 43.359375 6.109375 46.28125 8.421875 
Q 49.21875 10.75 49.21875 15.1875 
Q 49.21875 18.265625 47.78125 20.3125 
Q 46.34375 22.359375 41.40625 25.390625 
L 36.921875 28.078125 
Q 32.234375 30.953125 30.109375 34.25 
Q 27.984375 37.546875 27.984375 42 
Q 27.984375 48.1875 32.0625 52.390625 
Q 36.140625 56.59375 43.5 58.015625 
Q 43.109375 63.03125 39.90625 65.765625 
Q 36.71875 68.5 31.203125 68.5 
Q 24.859375 68.5 21.53125 65.109375 
Q 18.21875 61.71875 18.21875 55.328125 
L 18.21875 0 
L 9.078125 0 
z
" id="DejaVuSans-223"/>
       </defs>
       <use xlink:href="#DejaVuSans-71"/>
       <use x="77.490234" xlink:href="#DejaVuSans-101"/>
       <use x="139.013672" xlink:href="#DejaVuSans-114"/>
       <use x="180.126953" xlink:href="#DejaVuSans-97"/>
       <use x="241.40625" xlink:href="#DejaVuSans-108"/>
       <use x="269.189453" xlink:href="#DejaVuSans-100"/>
       <use x="332.666016" xlink:href="#DejaVuSans-32"/>
       <use x="364.453125" xlink:href="#DejaVuSans-71"/>
       <use x="441.943359" xlink:href="#DejaVuSans-97"/>
       <use x="503.222656" xlink:href="#DejaVuSans-223"/>
       <use x="566.210938" xlink:href="#DejaVuSans-32"/>
      </g>
     </g>
    </g>
    <g id="ytick_24">
     <g id="line2d_33">
      <g>
       <use style="stroke:#000000;stroke-width:0.8;" x="185.11" xlink:href="#m2f29244d2b" y="230.610649"/>
      </g>
     </g>
     <g id="text_34">
      <!-- Christian Rath -->
      <g transform="translate(107.239688 234.409868)scale(0.1 -0.1)">
       <use xlink:href="#DejaVuSans-67"/>
       <use x="69.824219" xlink:href="#DejaVuSans-104"/>
       <use x="133.203125" xlink:href="#DejaVuSans-114"/>
       <use x="174.316406" xlink:href="#DejaVuSans-105"/>
       <use x="202.099609" xlink:href="#DejaVuSans-115"/>
       <use x="254.199219" xlink:href="#DejaVuSans-116"/>
       <use x="293.408203" xlink:href="#DejaVuSans-105"/>
       <use x="321.191406" xlink:href="#DejaVuSans-97"/>
       <use x="382.470703" xlink:href="#DejaVuSans-110"/>
       <use x="445.849609" xlink:href="#DejaVuSans-32"/>
       <use x="477.636719" xlink:href="#DejaVuSans-82"/>
       <use x="544.869141" xlink:href="#DejaVuSans-97"/>
       <use x="606.148438" xlink:href="#DejaVuSans-116"/>
       <use x="645.357422" xlink:href="#DejaVuSans-104"/>
      </g>
     </g>
    </g>
    <g id="ytick_25">
     <g id="line2d_34">
      <g>
       <use style="stroke:#000000;stroke-width:0.8;" x="185.11" xlink:href="#m2f29244d2b" y="238.779481"/>
      </g>
     </g>
     <g id="text_35">
      <!-- Eric Bonse -->
      <g transform="translate(125.545938 242.578699)scale(0.1 -0.1)">
       <use xlink:href="#DejaVuSans-69"/>
       <use x="63.183594" xlink:href="#DejaVuSans-114"/>
       <use x="104.296875" xlink:href="#DejaVuSans-105"/>
       <use x="132.080078" xlink:href="#DejaVuSans-99"/>
       <use x="187.060547" xlink:href="#DejaVuSans-32"/>
       <use x="218.847656" xlink:href="#DejaVuSans-66"/>
       <use x="287.451172" xlink:href="#DejaVuSans-111"/>
       <use x="348.632812" xlink:href="#DejaVuSans-110"/>
       <use x="412.011719" xlink:href="#DejaVuSans-115"/>
       <use x="464.111328" xlink:href="#DejaVuSans-101"/>
      </g>
     </g>
    </g>
    <g id="ytick_26">
     <g id="line2d_35">
      <g>
       <use style="stroke:#000000;stroke-width:0.8;" x="185.11" xlink:href="#m2f29244d2b" y="246.948312"/>
      </g>
     </g>
     <g id="text_36">
      <!-- Adriano Mannino -->
      <g transform="translate(93.77875 250.74753)scale(0.1 -0.1)">
       <use xlink:href="#DejaVuSans-65"/>
       <use x="66.658203" xlink:href="#DejaVuSans-100"/>
       <use x="130.134766" xlink:href="#DejaVuSans-114"/>
       <use x="171.248047" xlink:href="#DejaVuSans-105"/>
       <use x="199.03125" xlink:href="#DejaVuSans-97"/>
       <use x="260.310547" xlink:href="#DejaVuSans-110"/>
       <use x="323.689453" xlink:href="#DejaVuSans-111"/>
       <use x="384.871094" xlink:href="#DejaVuSans-32"/>
       <use x="416.658203" xlink:href="#DejaVuSans-77"/>
       <use x="502.9375" xlink:href="#DejaVuSans-97"/>
       <use x="564.216797" xlink:href="#DejaVuSans-110"/>
       <use x="627.595703" xlink:href="#DejaVuSans-110"/>
       <use x="690.974609" xlink:href="#DejaVuSans-105"/>
       <use x="718.757812" xlink:href="#DejaVuSans-110"/>
       <use x="782.136719" xlink:href="#DejaVuSans-111"/>
      </g>
     </g>
    </g>
    <g id="ytick_27">
     <g id="line2d_36">
      <g>
       <use style="stroke:#000000;stroke-width:0.8;" x="185.11" xlink:href="#m2f29244d2b" y="255.117143"/>
      </g>
     </g>
     <g id="text_37">
      <!-- Michael Bartsch -->
      <g transform="translate(98.564688 258.916362)scale(0.1 -0.1)">
       <use xlink:href="#DejaVuSans-77"/>
       <use x="86.279297" xlink:href="#DejaVuSans-105"/>
       <use x="114.0625" xlink:href="#DejaVuSans-99"/>
       <use x="169.042969" xlink:href="#DejaVuSans-104"/>
       <use x="232.421875" xlink:href="#DejaVuSans-97"/>
       <use x="293.701172" xlink:href="#DejaVuSans-101"/>
       <use x="355.224609" xlink:href="#DejaVuSans-108"/>
       <use x="383.007812" xlink:href="#DejaVuSans-32"/>
       <use x="414.794922" xlink:href="#DejaVuSans-66"/>
       <use x="483.398438" xlink:href="#DejaVuSans-97"/>
       <use x="544.677734" xlink:href="#DejaVuSans-114"/>
       <use x="585.791016" xlink:href="#DejaVuSans-116"/>
       <use x="625" xlink:href="#DejaVuSans-115"/>
       <use x="677.099609" xlink:href="#DejaVuSans-99"/>
       <use x="732.080078" xlink:href="#DejaVuSans-104"/>
      </g>
     </g>
    </g>
    <g id="ytick_28">
     <g id="line2d_37">
      <g>
       <use style="stroke:#000000;stroke-width:0.8;" x="185.11" xlink:href="#m2f29244d2b" y="263.285974"/>
      </g>
     </g>
     <g id="text_38">
      <!-- Helke Ellersiek -->
      <g transform="translate(104.82875 267.085193)scale(0.1 -0.1)">
       <use xlink:href="#DejaVuSans-72"/>
       <use x="75.195312" xlink:href="#DejaVuSans-101"/>
       <use x="136.71875" xlink:href="#DejaVuSans-108"/>
       <use x="164.501953" xlink:href="#DejaVuSans-107"/>
       <use x="218.787109" xlink:href="#DejaVuSans-101"/>
       <use x="280.310547" xlink:href="#DejaVuSans-32"/>
       <use x="312.097656" xlink:href="#DejaVuSans-69"/>
       <use x="375.28125" xlink:href="#DejaVuSans-108"/>
       <use x="403.064453" xlink:href="#DejaVuSans-108"/>
       <use x="430.847656" xlink:href="#DejaVuSans-101"/>
       <use x="492.371094" xlink:href="#DejaVuSans-114"/>
       <use x="533.484375" xlink:href="#DejaVuSans-115"/>
       <use x="585.583984" xlink:href="#DejaVuSans-105"/>
       <use x="613.367188" xlink:href="#DejaVuSans-101"/>
       <use x="674.890625" xlink:href="#DejaVuSans-107"/>
      </g>
     </g>
    </g>
    <g id="ytick_29">
     <g id="line2d_38">
      <g>
       <use style="stroke:#000000;stroke-width:0.8;" x="185.11" xlink:href="#m2f29244d2b" y="271.454805"/>
      </g>
     </g>
     <g id="text_39">
      <!-- Frederik Eikmanns -->
      <g transform="translate(86.044375 275.254024)scale(0.1 -0.1)">
       <use xlink:href="#DejaVuSans-70"/>
       <use x="50.269531" xlink:href="#DejaVuSans-114"/>
       <use x="89.132812" xlink:href="#DejaVuSans-101"/>
       <use x="150.65625" xlink:href="#DejaVuSans-100"/>
       <use x="214.132812" xlink:href="#DejaVuSans-101"/>
       <use x="275.65625" xlink:href="#DejaVuSans-114"/>
       <use x="316.769531" xlink:href="#DejaVuSans-105"/>
       <use x="344.552734" xlink:href="#DejaVuSans-107"/>
       <use x="402.462891" xlink:href="#DejaVuSans-32"/>
       <use x="434.25" xlink:href="#DejaVuSans-69"/>
       <use x="497.433594" xlink:href="#DejaVuSans-105"/>
       <use x="525.216797" xlink:href="#DejaVuSans-107"/>
       <use x="583.126953" xlink:href="#DejaVuSans-109"/>
       <use x="680.539062" xlink:href="#DejaVuSans-97"/>
       <use x="741.818359" xlink:href="#DejaVuSans-110"/>
       <use x="805.197266" xlink:href="#DejaVuSans-110"/>
       <use x="868.576172" xlink:href="#DejaVuSans-115"/>
      </g>
     </g>
    </g>
    <g id="ytick_30">
     <g id="line2d_39">
      <g>
       <use style="stroke:#000000;stroke-width:0.8;" x="185.11" xlink:href="#m2f29244d2b" y="279.623636"/>
      </g>
     </g>
     <g id="text_40">
      <!-- Lena Wrba -->
      <g transform="translate(124.89125 283.422855)scale(0.1 -0.1)">
       <use xlink:href="#DejaVuSans-76"/>
       <use x="53.962891" xlink:href="#DejaVuSans-101"/>
       <use x="115.486328" xlink:href="#DejaVuSans-110"/>
       <use x="178.865234" xlink:href="#DejaVuSans-97"/>
       <use x="240.144531" xlink:href="#DejaVuSans-32"/>
       <use x="271.931641" xlink:href="#DejaVuSans-87"/>
       <use x="366.308594" xlink:href="#DejaVuSans-114"/>
       <use x="407.421875" xlink:href="#DejaVuSans-98"/>
       <use x="470.898438" xlink:href="#DejaVuSans-97"/>
      </g>
     </g>
    </g>
    <g id="ytick_31">
     <g id="line2d_40">
      <g>
       <use style="stroke:#000000;stroke-width:0.8;" x="185.11" xlink:href="#m2f29244d2b" y="287.792468"/>
      </g>
     </g>
     <g id="text_41">
      <!-- Finn Mayer-Kuckuk -->
      <g transform="translate(85.042813 291.591686)scale(0.1 -0.1)">
       <use xlink:href="#DejaVuSans-70"/>
       <use x="50.269531" xlink:href="#DejaVuSans-105"/>
       <use x="78.052734" xlink:href="#DejaVuSans-110"/>
       <use x="141.431641" xlink:href="#DejaVuSans-110"/>
       <use x="204.810547" xlink:href="#DejaVuSans-32"/>
       <use x="236.597656" xlink:href="#DejaVuSans-77"/>
       <use x="322.876953" xlink:href="#DejaVuSans-97"/>
       <use x="384.15625" xlink:href="#DejaVuSans-121"/>
       <use x="443.335938" xlink:href="#DejaVuSans-101"/>
       <use x="504.859375" xlink:href="#DejaVuSans-114"/>
       <use x="539.597656" xlink:href="#DejaVuSans-45"/>
       <use x="575.681641" xlink:href="#DejaVuSans-75"/>
       <use x="636.257812" xlink:href="#DejaVuSans-117"/>
       <use x="699.636719" xlink:href="#DejaVuSans-99"/>
       <use x="754.617188" xlink:href="#DejaVuSans-107"/>
       <use x="809.402344" xlink:href="#DejaVuSans-117"/>
       <use x="872.78125" xlink:href="#DejaVuSans-107"/>
      </g>
     </g>
    </g>
   </g>
   <g id="patch_34">
    <path d="M 185.11 303.64 
L 185.11 26.88 
" style="fill:none;stroke:#000000;stroke-linecap:square;stroke-linejoin:miter;stroke-width:0.8;"/>
   </g>
   <g id="patch_35">
    <path d="M 450 303.64 
L 450 26.88 
" style="fill:none;stroke:#000000;stroke-linecap:square;stroke-linejoin:miter;stroke-width:0.8;"/>
   </g>
   <g id="patch_36">
    <path d="M 185.11 303.64 
L 450 303.64 
" style="fill:none;stroke:#000000;stroke-linecap:square;stroke-linejoin:miter;stroke-width:0.8;"/>
   </g>
   <g id="patch_37">
    <path d="M 185.11 26.88 
L 450 26.88 
" style="fill:none;stroke:#000000;stroke-linecap:square;stroke-linejoin:miter;stroke-width:0.8;"/>
   </g>
   <g id="text_42">
    <!-- Ressort Gesundheit -->
    <g transform="translate(258.921875 20.88)scale(0.12 -0.12)">
     <use xlink:href="#DejaVuSans-82"/>
     <use x="64.982422" xlink:href="#DejaVuSans-101"/>
     <use x="126.505859" xlink:href="#DejaVuSans-115"/>
     <use x="178.605469" xlink:href="#DejaVuSans-115"/>
     <use x="230.705078" xlink:href="#DejaVuSans-111"/>
     <use x="291.886719" xlink:href="#DejaVuSans-114"/>
     <use x="333" xlink:href="#DejaVuSans-116"/>
     <use x="372.208984" xlink:href="#DejaVuSans-32"/>
     <use x="403.996094" xlink:href="#DejaVuSans-71"/>
     <use x="481.486328" xlink:href="#DejaVuSans-101"/>
     <use x="543.009766" xlink:href="#DejaVuSans-115"/>
     <use x="595.109375" xlink:href="#DejaVuSans-117"/>
     <use x="658.488281" xlink:href="#DejaVuSans-110"/>
     <use x="721.867188" xlink:href="#DejaVuSans-100"/>
     <use x="785.34375" xlink:href="#DejaVuSans-104"/>
     <use x="848.722656" xlink:href="#DejaVuSans-101"/>
     <use x="910.246094" xlink:href="#DejaVuSans-105"/>
     <use x="938.029297" xlink:href="#DejaVuSans-116"/>
    </g>
   </g>
  </g>
 </g>
 <defs>
  <clipPath id="p837e9349fa">
   <rect height="276.76" width="264.89" x="185.11" y="26.88"/>
  </clipPath>
 </defs>
</svg>
