<?xml version="1.0" encoding="utf-8" standalone="no"?>
<!DOCTYPE svg PUBLIC "-//W3C//DTD SVG 1.1//EN"
  "http://www.w3.org/Graphics/SVG/1.1/DTD/svg11.dtd">
<!-- Created with matplotlib (https://matplotlib.org/) -->
<svg height="345.6pt" version="1.1" viewBox="0 0 460.8 345.6" width="460.8pt" xmlns="http://www.w3.org/2000/svg" xmlns:xlink="http://www.w3.org/1999/xlink">
 <metadata>
  <rdf:RDF xmlns:cc="http://creativecommons.org/ns#" xmlns:dc="http://purl.org/dc/elements/1.1/" xmlns:rdf="http://www.w3.org/1999/02/22-rdf-syntax-ns#">
   <cc:Work>
    <dc:type rdf:resource="http://purl.org/dc/dcmitype/StillImage"/>
    <dc:date>2021-01-13T12:03:05.582433</dc:date>
    <dc:format>image/svg+xml</dc:format>
    <dc:creator>
     <cc:Agent>
      <dc:title>Matplotlib v3.3.3, https://matplotlib.org/</dc:title>
     </cc:Agent>
    </dc:creator>
   </cc:Work>
  </rdf:RDF>
 </metadata>
 <defs>
  <style type="text/css">*{stroke-linecap:butt;stroke-linejoin:round;}</style>
 </defs>
 <g id="figure_1">
  <g id="patch_1">
   <path d="M 0 345.6 
L 460.8 345.6 
L 460.8 0 
L 0 0 
z
" style="fill:#ffffff;"/>
  </g>
  <g id="axes_1">
   <g id="patch_2">
    <path d="M 46.08 293.76 
L 414.72 293.76 
L 414.72 34.56 
L 46.08 34.56 
z
" style="fill:#ffffff;"/>
   </g>
   <g id="matplotlib.axis_1">
    <g id="xtick_1">
     <g id="line2d_1">
      <path clip-path="url(#pe22d143978)" d="M 230.4 293.76 
L 230.4 34.56 
" style="fill:none;stroke:#b0b0b0;stroke-linecap:square;stroke-width:0.8;"/>
     </g>
     <g id="line2d_2">
      <defs>
       <path d="M 0 0 
L 0 3.5 
" id="mf65bcf6dac" style="stroke:#000000;stroke-width:0.8;"/>
      </defs>
      <g>
       <use style="stroke:#000000;stroke-width:0.8;" x="230.4" xlink:href="#mf65bcf6dac" y="293.76"/>
      </g>
     </g>
     <g id="text_1">
      <!-- TAZ -->
      <g transform="translate(220.888281 308.358437)scale(0.1 -0.1)">
       <defs>
        <path d="M -0.296875 72.90625 
L 61.375 72.90625 
L 61.375 64.59375 
L 35.5 64.59375 
L 35.5 0 
L 25.59375 0 
L 25.59375 64.59375 
L -0.296875 64.59375 
z
" id="DejaVuSans-84"/>
        <path d="M 34.1875 63.1875 
L 20.796875 26.90625 
L 47.609375 26.90625 
z
M 28.609375 72.90625 
L 39.796875 72.90625 
L 67.578125 0 
L 57.328125 0 
L 50.6875 18.703125 
L 17.828125 18.703125 
L 11.1875 0 
L 0.78125 0 
z
" id="DejaVuSans-65"/>
        <path d="M 5.609375 72.90625 
L 62.890625 72.90625 
L 62.890625 65.375 
L 16.796875 8.296875 
L 64.015625 8.296875 
L 64.015625 0 
L 4.5 0 
L 4.5 7.515625 
L 50.59375 64.59375 
L 5.609375 64.59375 
z
" id="DejaVuSans-90"/>
       </defs>
       <use xlink:href="#DejaVuSans-84"/>
       <use x="53.333984" xlink:href="#DejaVuSans-65"/>
       <use x="121.742188" xlink:href="#DejaVuSans-90"/>
      </g>
     </g>
    </g>
    <g id="text_2">
     <!-- Zeitung -->
     <g transform="translate(211.0375 322.036562)scale(0.1 -0.1)">
      <defs>
       <path d="M 56.203125 29.59375 
L 56.203125 25.203125 
L 14.890625 25.203125 
Q 15.484375 15.921875 20.484375 11.0625 
Q 25.484375 6.203125 34.421875 6.203125 
Q 39.59375 6.203125 44.453125 7.46875 
Q 49.3125 8.734375 54.109375 11.28125 
L 54.109375 2.78125 
Q 49.265625 0.734375 44.1875 -0.34375 
Q 39.109375 -1.421875 33.890625 -1.421875 
Q 20.796875 -1.421875 13.15625 6.1875 
Q 5.515625 13.8125 5.515625 26.8125 
Q 5.515625 40.234375 12.765625 48.109375 
Q 20.015625 56 32.328125 56 
Q 43.359375 56 49.78125 48.890625 
Q 56.203125 41.796875 56.203125 29.59375 
z
M 47.21875 32.234375 
Q 47.125 39.59375 43.09375 43.984375 
Q 39.0625 48.390625 32.421875 48.390625 
Q 24.90625 48.390625 20.390625 44.140625 
Q 15.875 39.890625 15.1875 32.171875 
z
" id="DejaVuSans-101"/>
       <path d="M 9.421875 54.6875 
L 18.40625 54.6875 
L 18.40625 0 
L 9.421875 0 
z
M 9.421875 75.984375 
L 18.40625 75.984375 
L 18.40625 64.59375 
L 9.421875 64.59375 
z
" id="DejaVuSans-105"/>
       <path d="M 18.3125 70.21875 
L 18.3125 54.6875 
L 36.8125 54.6875 
L 36.8125 47.703125 
L 18.3125 47.703125 
L 18.3125 18.015625 
Q 18.3125 11.328125 20.140625 9.421875 
Q 21.96875 7.515625 27.59375 7.515625 
L 36.8125 7.515625 
L 36.8125 0 
L 27.59375 0 
Q 17.1875 0 13.234375 3.875 
Q 9.28125 7.765625 9.28125 18.015625 
L 9.28125 47.703125 
L 2.6875 47.703125 
L 2.6875 54.6875 
L 9.28125 54.6875 
L 9.28125 70.21875 
z
" id="DejaVuSans-116"/>
       <path d="M 8.5 21.578125 
L 8.5 54.6875 
L 17.484375 54.6875 
L 17.484375 21.921875 
Q 17.484375 14.15625 20.5 10.265625 
Q 23.53125 6.390625 29.59375 6.390625 
Q 36.859375 6.390625 41.078125 11.03125 
Q 45.3125 15.671875 45.3125 23.6875 
L 45.3125 54.6875 
L 54.296875 54.6875 
L 54.296875 0 
L 45.3125 0 
L 45.3125 8.40625 
Q 42.046875 3.421875 37.71875 1 
Q 33.40625 -1.421875 27.6875 -1.421875 
Q 18.265625 -1.421875 13.375 4.4375 
Q 8.5 10.296875 8.5 21.578125 
z
M 31.109375 56 
z
" id="DejaVuSans-117"/>
       <path d="M 54.890625 33.015625 
L 54.890625 0 
L 45.90625 0 
L 45.90625 32.71875 
Q 45.90625 40.484375 42.875 44.328125 
Q 39.84375 48.1875 33.796875 48.1875 
Q 26.515625 48.1875 22.3125 43.546875 
Q 18.109375 38.921875 18.109375 30.90625 
L 18.109375 0 
L 9.078125 0 
L 9.078125 54.6875 
L 18.109375 54.6875 
L 18.109375 46.1875 
Q 21.34375 51.125 25.703125 53.5625 
Q 30.078125 56 35.796875 56 
Q 45.21875 56 50.046875 50.171875 
Q 54.890625 44.34375 54.890625 33.015625 
z
" id="DejaVuSans-110"/>
       <path d="M 45.40625 27.984375 
Q 45.40625 37.75 41.375 43.109375 
Q 37.359375 48.484375 30.078125 48.484375 
Q 22.859375 48.484375 18.828125 43.109375 
Q 14.796875 37.75 14.796875 27.984375 
Q 14.796875 18.265625 18.828125 12.890625 
Q 22.859375 7.515625 30.078125 7.515625 
Q 37.359375 7.515625 41.375 12.890625 
Q 45.40625 18.265625 45.40625 27.984375 
z
M 54.390625 6.78125 
Q 54.390625 -7.171875 48.1875 -13.984375 
Q 42 -20.796875 29.203125 -20.796875 
Q 24.46875 -20.796875 20.265625 -20.09375 
Q 16.0625 -19.390625 12.109375 -17.921875 
L 12.109375 -9.1875 
Q 16.0625 -11.328125 19.921875 -12.34375 
Q 23.78125 -13.375 27.78125 -13.375 
Q 36.625 -13.375 41.015625 -8.765625 
Q 45.40625 -4.15625 45.40625 5.171875 
L 45.40625 9.625 
Q 42.625 4.78125 38.28125 2.390625 
Q 33.9375 0 27.875 0 
Q 17.828125 0 11.671875 7.65625 
Q 5.515625 15.328125 5.515625 27.984375 
Q 5.515625 40.671875 11.671875 48.328125 
Q 17.828125 56 27.875 56 
Q 33.9375 56 38.28125 53.609375 
Q 42.625 51.21875 45.40625 46.390625 
L 45.40625 54.6875 
L 54.390625 54.6875 
z
" id="DejaVuSans-103"/>
      </defs>
      <use xlink:href="#DejaVuSans-90"/>
      <use x="68.505859" xlink:href="#DejaVuSans-101"/>
      <use x="130.029297" xlink:href="#DejaVuSans-105"/>
      <use x="157.8125" xlink:href="#DejaVuSans-116"/>
      <use x="197.021484" xlink:href="#DejaVuSans-117"/>
      <use x="260.400391" xlink:href="#DejaVuSans-110"/>
      <use x="323.779297" xlink:href="#DejaVuSans-103"/>
     </g>
    </g>
   </g>
   <g id="matplotlib.axis_2">
    <g id="ytick_1">
     <g id="line2d_3">
      <path clip-path="url(#pe22d143978)" d="M 46.08 291.224402 
L 414.72 291.224402 
" style="fill:none;stroke:#b0b0b0;stroke-linecap:square;stroke-width:0.8;"/>
     </g>
     <g id="line2d_4">
      <defs>
       <path d="M 0 0 
L -3.5 0 
" id="md8ea512062" style="stroke:#000000;stroke-width:0.8;"/>
      </defs>
      <g>
       <use style="stroke:#000000;stroke-width:0.8;" x="46.08" xlink:href="#md8ea512062" y="291.224402"/>
      </g>
     </g>
     <g id="text_3">
      <!-- 0 -->
      <g transform="translate(32.7175 295.023621)scale(0.1 -0.1)">
       <defs>
        <path d="M 31.78125 66.40625 
Q 24.171875 66.40625 20.328125 58.90625 
Q 16.5 51.421875 16.5 36.375 
Q 16.5 21.390625 20.328125 13.890625 
Q 24.171875 6.390625 31.78125 6.390625 
Q 39.453125 6.390625 43.28125 13.890625 
Q 47.125 21.390625 47.125 36.375 
Q 47.125 51.421875 43.28125 58.90625 
Q 39.453125 66.40625 31.78125 66.40625 
z
M 31.78125 74.21875 
Q 44.046875 74.21875 50.515625 64.515625 
Q 56.984375 54.828125 56.984375 36.375 
Q 56.984375 17.96875 50.515625 8.265625 
Q 44.046875 -1.421875 31.78125 -1.421875 
Q 19.53125 -1.421875 13.0625 8.265625 
Q 6.59375 17.96875 6.59375 36.375 
Q 6.59375 54.828125 13.0625 64.515625 
Q 19.53125 74.21875 31.78125 74.21875 
z
" id="DejaVuSans-48"/>
       </defs>
       <use xlink:href="#DejaVuSans-48"/>
      </g>
     </g>
    </g>
    <g id="ytick_2">
     <g id="line2d_5">
      <path clip-path="url(#pe22d143978)" d="M 46.08 255.662017 
L 414.72 255.662017 
" style="fill:none;stroke:#b0b0b0;stroke-linecap:square;stroke-width:0.8;"/>
     </g>
     <g id="line2d_6">
      <g>
       <use style="stroke:#000000;stroke-width:0.8;" x="46.08" xlink:href="#md8ea512062" y="255.662017"/>
      </g>
     </g>
     <g id="text_4">
      <!-- 500 -->
      <g transform="translate(19.9925 259.461236)scale(0.1 -0.1)">
       <defs>
        <path d="M 10.796875 72.90625 
L 49.515625 72.90625 
L 49.515625 64.59375 
L 19.828125 64.59375 
L 19.828125 46.734375 
Q 21.96875 47.46875 24.109375 47.828125 
Q 26.265625 48.1875 28.421875 48.1875 
Q 40.625 48.1875 47.75 41.5 
Q 54.890625 34.8125 54.890625 23.390625 
Q 54.890625 11.625 47.5625 5.09375 
Q 40.234375 -1.421875 26.90625 -1.421875 
Q 22.3125 -1.421875 17.546875 -0.640625 
Q 12.796875 0.140625 7.71875 1.703125 
L 7.71875 11.625 
Q 12.109375 9.234375 16.796875 8.0625 
Q 21.484375 6.890625 26.703125 6.890625 
Q 35.15625 6.890625 40.078125 11.328125 
Q 45.015625 15.765625 45.015625 23.390625 
Q 45.015625 31 40.078125 35.4375 
Q 35.15625 39.890625 26.703125 39.890625 
Q 22.75 39.890625 18.8125 39.015625 
Q 14.890625 38.140625 10.796875 36.28125 
z
" id="DejaVuSans-53"/>
       </defs>
       <use xlink:href="#DejaVuSans-53"/>
       <use x="63.623047" xlink:href="#DejaVuSans-48"/>
       <use x="127.246094" xlink:href="#DejaVuSans-48"/>
      </g>
     </g>
    </g>
    <g id="ytick_3">
     <g id="line2d_7">
      <path clip-path="url(#pe22d143978)" d="M 46.08 220.099632 
L 414.72 220.099632 
" style="fill:none;stroke:#b0b0b0;stroke-linecap:square;stroke-width:0.8;"/>
     </g>
     <g id="line2d_8">
      <g>
       <use style="stroke:#000000;stroke-width:0.8;" x="46.08" xlink:href="#md8ea512062" y="220.099632"/>
      </g>
     </g>
     <g id="text_5">
      <!-- 1000 -->
      <g transform="translate(13.63 223.898851)scale(0.1 -0.1)">
       <defs>
        <path d="M 12.40625 8.296875 
L 28.515625 8.296875 
L 28.515625 63.921875 
L 10.984375 60.40625 
L 10.984375 69.390625 
L 28.421875 72.90625 
L 38.28125 72.90625 
L 38.28125 8.296875 
L 54.390625 8.296875 
L 54.390625 0 
L 12.40625 0 
z
" id="DejaVuSans-49"/>
       </defs>
       <use xlink:href="#DejaVuSans-49"/>
       <use x="63.623047" xlink:href="#DejaVuSans-48"/>
       <use x="127.246094" xlink:href="#DejaVuSans-48"/>
       <use x="190.869141" xlink:href="#DejaVuSans-48"/>
      </g>
     </g>
    </g>
    <g id="ytick_4">
     <g id="line2d_9">
      <path clip-path="url(#pe22d143978)" d="M 46.08 184.537247 
L 414.72 184.537247 
" style="fill:none;stroke:#b0b0b0;stroke-linecap:square;stroke-width:0.8;"/>
     </g>
     <g id="line2d_10">
      <g>
       <use style="stroke:#000000;stroke-width:0.8;" x="46.08" xlink:href="#md8ea512062" y="184.537247"/>
      </g>
     </g>
     <g id="text_6">
      <!-- 1500 -->
      <g transform="translate(13.63 188.336465)scale(0.1 -0.1)">
       <use xlink:href="#DejaVuSans-49"/>
       <use x="63.623047" xlink:href="#DejaVuSans-53"/>
       <use x="127.246094" xlink:href="#DejaVuSans-48"/>
       <use x="190.869141" xlink:href="#DejaVuSans-48"/>
      </g>
     </g>
    </g>
    <g id="ytick_5">
     <g id="line2d_11">
      <path clip-path="url(#pe22d143978)" d="M 46.08 148.974862 
L 414.72 148.974862 
" style="fill:none;stroke:#b0b0b0;stroke-linecap:square;stroke-width:0.8;"/>
     </g>
     <g id="line2d_12">
      <g>
       <use style="stroke:#000000;stroke-width:0.8;" x="46.08" xlink:href="#md8ea512062" y="148.974862"/>
      </g>
     </g>
     <g id="text_7">
      <!-- 2000 -->
      <g transform="translate(13.63 152.77408)scale(0.1 -0.1)">
       <defs>
        <path d="M 19.1875 8.296875 
L 53.609375 8.296875 
L 53.609375 0 
L 7.328125 0 
L 7.328125 8.296875 
Q 12.9375 14.109375 22.625 23.890625 
Q 32.328125 33.6875 34.8125 36.53125 
Q 39.546875 41.84375 41.421875 45.53125 
Q 43.3125 49.21875 43.3125 52.78125 
Q 43.3125 58.59375 39.234375 62.25 
Q 35.15625 65.921875 28.609375 65.921875 
Q 23.96875 65.921875 18.8125 64.3125 
Q 13.671875 62.703125 7.8125 59.421875 
L 7.8125 69.390625 
Q 13.765625 71.78125 18.9375 73 
Q 24.125 74.21875 28.421875 74.21875 
Q 39.75 74.21875 46.484375 68.546875 
Q 53.21875 62.890625 53.21875 53.421875 
Q 53.21875 48.921875 51.53125 44.890625 
Q 49.859375 40.875 45.40625 35.40625 
Q 44.1875 33.984375 37.640625 27.21875 
Q 31.109375 20.453125 19.1875 8.296875 
z
" id="DejaVuSans-50"/>
       </defs>
       <use xlink:href="#DejaVuSans-50"/>
       <use x="63.623047" xlink:href="#DejaVuSans-48"/>
       <use x="127.246094" xlink:href="#DejaVuSans-48"/>
       <use x="190.869141" xlink:href="#DejaVuSans-48"/>
      </g>
     </g>
    </g>
    <g id="ytick_6">
     <g id="line2d_13">
      <path clip-path="url(#pe22d143978)" d="M 46.08 113.412476 
L 414.72 113.412476 
" style="fill:none;stroke:#b0b0b0;stroke-linecap:square;stroke-width:0.8;"/>
     </g>
     <g id="line2d_14">
      <g>
       <use style="stroke:#000000;stroke-width:0.8;" x="46.08" xlink:href="#md8ea512062" y="113.412476"/>
      </g>
     </g>
     <g id="text_8">
      <!-- 2500 -->
      <g transform="translate(13.63 117.211695)scale(0.1 -0.1)">
       <use xlink:href="#DejaVuSans-50"/>
       <use x="63.623047" xlink:href="#DejaVuSans-53"/>
       <use x="127.246094" xlink:href="#DejaVuSans-48"/>
       <use x="190.869141" xlink:href="#DejaVuSans-48"/>
      </g>
     </g>
    </g>
    <g id="ytick_7">
     <g id="line2d_15">
      <path clip-path="url(#pe22d143978)" d="M 46.08 77.850091 
L 414.72 77.850091 
" style="fill:none;stroke:#b0b0b0;stroke-linecap:square;stroke-width:0.8;"/>
     </g>
     <g id="line2d_16">
      <g>
       <use style="stroke:#000000;stroke-width:0.8;" x="46.08" xlink:href="#md8ea512062" y="77.850091"/>
      </g>
     </g>
     <g id="text_9">
      <!-- 3000 -->
      <g transform="translate(13.63 81.64931)scale(0.1 -0.1)">
       <defs>
        <path d="M 40.578125 39.3125 
Q 47.65625 37.796875 51.625 33 
Q 55.609375 28.21875 55.609375 21.1875 
Q 55.609375 10.40625 48.1875 4.484375 
Q 40.765625 -1.421875 27.09375 -1.421875 
Q 22.515625 -1.421875 17.65625 -0.515625 
Q 12.796875 0.390625 7.625 2.203125 
L 7.625 11.71875 
Q 11.71875 9.328125 16.59375 8.109375 
Q 21.484375 6.890625 26.8125 6.890625 
Q 36.078125 6.890625 40.9375 10.546875 
Q 45.796875 14.203125 45.796875 21.1875 
Q 45.796875 27.640625 41.28125 31.265625 
Q 36.765625 34.90625 28.71875 34.90625 
L 20.21875 34.90625 
L 20.21875 43.015625 
L 29.109375 43.015625 
Q 36.375 43.015625 40.234375 45.921875 
Q 44.09375 48.828125 44.09375 54.296875 
Q 44.09375 59.90625 40.109375 62.90625 
Q 36.140625 65.921875 28.71875 65.921875 
Q 24.65625 65.921875 20.015625 65.03125 
Q 15.375 64.15625 9.8125 62.3125 
L 9.8125 71.09375 
Q 15.4375 72.65625 20.34375 73.4375 
Q 25.25 74.21875 29.59375 74.21875 
Q 40.828125 74.21875 47.359375 69.109375 
Q 53.90625 64.015625 53.90625 55.328125 
Q 53.90625 49.265625 50.4375 45.09375 
Q 46.96875 40.921875 40.578125 39.3125 
z
" id="DejaVuSans-51"/>
       </defs>
       <use xlink:href="#DejaVuSans-51"/>
       <use x="63.623047" xlink:href="#DejaVuSans-48"/>
       <use x="127.246094" xlink:href="#DejaVuSans-48"/>
       <use x="190.869141" xlink:href="#DejaVuSans-48"/>
      </g>
     </g>
    </g>
    <g id="ytick_8">
     <g id="line2d_17">
      <path clip-path="url(#pe22d143978)" d="M 46.08 42.287706 
L 414.72 42.287706 
" style="fill:none;stroke:#b0b0b0;stroke-linecap:square;stroke-width:0.8;"/>
     </g>
     <g id="line2d_18">
      <g>
       <use style="stroke:#000000;stroke-width:0.8;" x="46.08" xlink:href="#md8ea512062" y="42.287706"/>
      </g>
     </g>
     <g id="text_10">
      <!-- 3500 -->
      <g transform="translate(13.63 46.086925)scale(0.1 -0.1)">
       <use xlink:href="#DejaVuSans-51"/>
       <use x="63.623047" xlink:href="#DejaVuSans-53"/>
       <use x="127.246094" xlink:href="#DejaVuSans-48"/>
       <use x="190.869141" xlink:href="#DejaVuSans-48"/>
      </g>
     </g>
    </g>
   </g>
   <g id="line2d_19">
    <path clip-path="url(#pe22d143978)" d="M 202.752 259.787254 
L 258.048 259.787254 
L 258.048 233.115465 
L 202.752 233.115465 
L 202.752 259.787254 
" style="fill:none;stroke:#1f77b4;stroke-linecap:square;"/>
   </g>
   <g id="line2d_20">
    <path clip-path="url(#pe22d143978)" d="M 230.4 259.787254 
L 230.4 281.978182 
" style="fill:none;stroke:#1f77b4;stroke-linecap:square;"/>
   </g>
   <g id="line2d_21">
    <path clip-path="url(#pe22d143978)" d="M 230.4 233.115465 
L 230.4 193.427843 
" style="fill:none;stroke:#1f77b4;stroke-linecap:square;"/>
   </g>
   <g id="line2d_22">
    <path clip-path="url(#pe22d143978)" d="M 216.576 281.978182 
L 244.224 281.978182 
" style="fill:none;stroke:#000000;stroke-linecap:square;"/>
   </g>
   <g id="line2d_23">
    <path clip-path="url(#pe22d143978)" d="M 216.576 193.427843 
L 244.224 193.427843 
" style="fill:none;stroke:#000000;stroke-linecap:square;"/>
   </g>
   <g id="line2d_24">
    <defs>
     <path d="M 0 3 
C 0.795609 3 1.55874 2.683901 2.12132 2.12132 
C 2.683901 1.55874 3 0.795609 3 0 
C 3 -0.795609 2.683901 -1.55874 2.12132 -2.12132 
C 1.55874 -2.683901 0.795609 -3 0 -3 
C -0.795609 -3 -1.55874 -2.683901 -2.12132 -2.12132 
C -2.683901 -1.55874 -3 -0.795609 -3 0 
C -3 0.795609 -2.683901 1.55874 -2.12132 2.12132 
C -1.55874 2.683901 -0.795609 3 0 3 
z
" id="m454c74a92e" style="stroke:#000000;"/>
    </defs>
    <g clip-path="url(#pe22d143978)">
     <use style="fill-opacity:0;stroke:#000000;" x="230.4" xlink:href="#m454c74a92e" y="137.097025"/>
     <use style="fill-opacity:0;stroke:#000000;" x="230.4" xlink:href="#m454c74a92e" y="182.261254"/>
     <use style="fill-opacity:0;stroke:#000000;" x="230.4" xlink:href="#m454c74a92e" y="178.989515"/>
     <use style="fill-opacity:0;stroke:#000000;" x="230.4" xlink:href="#m454c74a92e" y="192.360971"/>
     <use style="fill-opacity:0;stroke:#000000;" x="230.4" xlink:href="#m454c74a92e" y="186.955489"/>
     <use style="fill-opacity:0;stroke:#000000;" x="230.4" xlink:href="#m454c74a92e" y="191.365225"/>
     <use style="fill-opacity:0;stroke:#000000;" x="230.4" xlink:href="#m454c74a92e" y="185.604118"/>
     <use style="fill-opacity:0;stroke:#000000;" x="230.4" xlink:href="#m454c74a92e" y="190.369478"/>
     <use style="fill-opacity:0;stroke:#000000;" x="230.4" xlink:href="#m454c74a92e" y="145.347498"/>
     <use style="fill-opacity:0;stroke:#000000;" x="230.4" xlink:href="#m454c74a92e" y="188.16461"/>
     <use style="fill-opacity:0;stroke:#000000;" x="230.4" xlink:href="#m454c74a92e" y="110.994234"/>
     <use style="fill-opacity:0;stroke:#000000;" x="230.4" xlink:href="#m454c74a92e" y="61.562519"/>
     <use style="fill-opacity:0;stroke:#000000;" x="230.4" xlink:href="#m454c74a92e" y="66.968002"/>
     <use style="fill-opacity:0;stroke:#000000;" x="230.4" xlink:href="#m454c74a92e" y="185.604118"/>
     <use style="fill-opacity:0;stroke:#000000;" x="230.4" xlink:href="#m454c74a92e" y="186.52874"/>
     <use style="fill-opacity:0;stroke:#000000;" x="230.4" xlink:href="#m454c74a92e" y="193.072219"/>
     <use style="fill-opacity:0;stroke:#000000;" x="230.4" xlink:href="#m454c74a92e" y="174.081905"/>
     <use style="fill-opacity:0;stroke:#000000;" x="230.4" xlink:href="#m454c74a92e" y="151.606478"/>
     <use style="fill-opacity:0;stroke:#000000;" x="230.4" xlink:href="#m454c74a92e" y="187.808986"/>
     <use style="fill-opacity:0;stroke:#000000;" x="230.4" xlink:href="#m454c74a92e" y="180.26976"/>
     <use style="fill-opacity:0;stroke:#000000;" x="230.4" xlink:href="#m454c74a92e" y="190.725102"/>
     <use style="fill-opacity:0;stroke:#000000;" x="230.4" xlink:href="#m454c74a92e" y="127.77968"/>
     <use style="fill-opacity:0;stroke:#000000;" x="230.4" xlink:href="#m454c74a92e" y="136.599152"/>
     <use style="fill-opacity:0;stroke:#000000;" x="230.4" xlink:href="#m454c74a92e" y="179.700762"/>
     <use style="fill-opacity:0;stroke:#000000;" x="230.4" xlink:href="#m454c74a92e" y="189.942729"/>
     <use style="fill-opacity:0;stroke:#000000;" x="230.4" xlink:href="#m454c74a92e" y="159.145704"/>
     <use style="fill-opacity:0;stroke:#000000;" x="230.4" xlink:href="#m454c74a92e" y="189.80048"/>
     <use style="fill-opacity:0;stroke:#000000;" x="230.4" xlink:href="#m454c74a92e" y="172.943909"/>
     <use style="fill-opacity:0;stroke:#000000;" x="230.4" xlink:href="#m454c74a92e" y="192.289847"/>
     <use style="fill-opacity:0;stroke:#000000;" x="230.4" xlink:href="#m454c74a92e" y="187.097738"/>
     <use style="fill-opacity:0;stroke:#000000;" x="230.4" xlink:href="#m454c74a92e" y="181.692256"/>
     <use style="fill-opacity:0;stroke:#000000;" x="230.4" xlink:href="#m454c74a92e" y="188.662483"/>
     <use style="fill-opacity:0;stroke:#000000;" x="230.4" xlink:href="#m454c74a92e" y="150.966355"/>
     <use style="fill-opacity:0;stroke:#000000;" x="230.4" xlink:href="#m454c74a92e" y="176.998021"/>
     <use style="fill-opacity:0;stroke:#000000;" x="230.4" xlink:href="#m454c74a92e" y="167.111678"/>
     <use style="fill-opacity:0;stroke:#000000;" x="230.4" xlink:href="#m454c74a92e" y="184.466122"/>
     <use style="fill-opacity:0;stroke:#000000;" x="230.4" xlink:href="#m454c74a92e" y="189.729355"/>
     <use style="fill-opacity:0;stroke:#000000;" x="230.4" xlink:href="#m454c74a92e" y="163.199816"/>
     <use style="fill-opacity:0;stroke:#000000;" x="230.4" xlink:href="#m454c74a92e" y="153.597972"/>
     <use style="fill-opacity:0;stroke:#000000;" x="230.4" xlink:href="#m454c74a92e" y="185.17737"/>
     <use style="fill-opacity:0;stroke:#000000;" x="230.4" xlink:href="#m454c74a92e" y="192.360971"/>
     <use style="fill-opacity:0;stroke:#000000;" x="230.4" xlink:href="#m454c74a92e" y="150.752981"/>
     <use style="fill-opacity:0;stroke:#000000;" x="230.4" xlink:href="#m454c74a92e" y="180.198636"/>
     <use style="fill-opacity:0;stroke:#000000;" x="230.4" xlink:href="#m454c74a92e" y="178.847265"/>
     <use style="fill-opacity:0;stroke:#000000;" x="230.4" xlink:href="#m454c74a92e" y="171.663663"/>
     <use style="fill-opacity:0;stroke:#000000;" x="230.4" xlink:href="#m454c74a92e" y="118.889084"/>
     <use style="fill-opacity:0;stroke:#000000;" x="230.4" xlink:href="#m454c74a92e" y="191.436349"/>
     <use style="fill-opacity:0;stroke:#000000;" x="230.4" xlink:href="#m454c74a92e" y="185.390744"/>
     <use style="fill-opacity:0;stroke:#000000;" x="230.4" xlink:href="#m454c74a92e" y="101.036766"/>
     <use style="fill-opacity:0;stroke:#000000;" x="230.4" xlink:href="#m454c74a92e" y="46.341818"/>
     <use style="fill-opacity:0;stroke:#000000;" x="230.4" xlink:href="#m454c74a92e" y="185.03512"/>
     <use style="fill-opacity:0;stroke:#000000;" x="230.4" xlink:href="#m454c74a92e" y="192.432096"/>
     <use style="fill-opacity:0;stroke:#000000;" x="230.4" xlink:href="#m454c74a92e" y="188.093485"/>
     <use style="fill-opacity:0;stroke:#000000;" x="230.4" xlink:href="#m454c74a92e" y="187.453362"/>
     <use style="fill-opacity:0;stroke:#000000;" x="230.4" xlink:href="#m454c74a92e" y="172.019287"/>
     <use style="fill-opacity:0;stroke:#000000;" x="230.4" xlink:href="#m454c74a92e" y="184.608371"/>
     <use style="fill-opacity:0;stroke:#000000;" x="230.4" xlink:href="#m454c74a92e" y="186.955489"/>
     <use style="fill-opacity:0;stroke:#000000;" x="230.4" xlink:href="#m454c74a92e" y="189.587105"/>
     <use style="fill-opacity:0;stroke:#000000;" x="230.4" xlink:href="#m454c74a92e" y="192.64547"/>
     <use style="fill-opacity:0;stroke:#000000;" x="230.4" xlink:href="#m454c74a92e" y="186.457615"/>
     <use style="fill-opacity:0;stroke:#000000;" x="230.4" xlink:href="#m454c74a92e" y="155.233841"/>
     <use style="fill-opacity:0;stroke:#000000;" x="230.4" xlink:href="#m454c74a92e" y="182.688003"/>
     <use style="fill-opacity:0;stroke:#000000;" x="230.4" xlink:href="#m454c74a92e" y="178.989515"/>
     <use style="fill-opacity:0;stroke:#000000;" x="230.4" xlink:href="#m454c74a92e" y="183.185876"/>
     <use style="fill-opacity:0;stroke:#000000;" x="230.4" xlink:href="#m454c74a92e" y="134.109785"/>
     <use style="fill-opacity:0;stroke:#000000;" x="230.4" xlink:href="#m454c74a92e" y="178.278267"/>
     <use style="fill-opacity:0;stroke:#000000;" x="230.4" xlink:href="#m454c74a92e" y="181.976755"/>
     <use style="fill-opacity:0;stroke:#000000;" x="230.4" xlink:href="#m454c74a92e" y="181.478882"/>
     <use style="fill-opacity:0;stroke:#000000;" x="230.4" xlink:href="#m454c74a92e" y="189.444856"/>
     <use style="fill-opacity:0;stroke:#000000;" x="230.4" xlink:href="#m454c74a92e" y="183.683749"/>
     <use style="fill-opacity:0;stroke:#000000;" x="230.4" xlink:href="#m454c74a92e" y="156.798586"/>
     <use style="fill-opacity:0;stroke:#000000;" x="230.4" xlink:href="#m454c74a92e" y="182.04788"/>
     <use style="fill-opacity:0;stroke:#000000;" x="230.4" xlink:href="#m454c74a92e" y="156.940836"/>
     <use style="fill-opacity:0;stroke:#000000;" x="230.4" xlink:href="#m454c74a92e" y="174.722028"/>
     <use style="fill-opacity:0;stroke:#000000;" x="230.4" xlink:href="#m454c74a92e" y="185.248494"/>
     <use style="fill-opacity:0;stroke:#000000;" x="230.4" xlink:href="#m454c74a92e" y="186.030867"/>
     <use style="fill-opacity:0;stroke:#000000;" x="230.4" xlink:href="#m454c74a92e" y="191.222975"/>
     <use style="fill-opacity:0;stroke:#000000;" x="230.4" xlink:href="#m454c74a92e" y="187.880111"/>
     <use style="fill-opacity:0;stroke:#000000;" x="230.4" xlink:href="#m454c74a92e" y="120.453829"/>
     <use style="fill-opacity:0;stroke:#000000;" x="230.4" xlink:href="#m454c74a92e" y="184.821746"/>
     <use style="fill-opacity:0;stroke:#000000;" x="230.4" xlink:href="#m454c74a92e" y="185.17737"/>
     <use style="fill-opacity:0;stroke:#000000;" x="230.4" xlink:href="#m454c74a92e" y="189.515981"/>
     <use style="fill-opacity:0;stroke:#000000;" x="230.4" xlink:href="#m454c74a92e" y="176.926896"/>
     <use style="fill-opacity:0;stroke:#000000;" x="230.4" xlink:href="#m454c74a92e" y="160.42595"/>
     <use style="fill-opacity:0;stroke:#000000;" x="230.4" xlink:href="#m454c74a92e" y="185.604118"/>
     <use style="fill-opacity:0;stroke:#000000;" x="230.4" xlink:href="#m454c74a92e" y="187.239988"/>
     <use style="fill-opacity:0;stroke:#000000;" x="230.4" xlink:href="#m454c74a92e" y="177.495894"/>
     <use style="fill-opacity:0;stroke:#000000;" x="230.4" xlink:href="#m454c74a92e" y="186.884364"/>
     <use style="fill-opacity:0;stroke:#000000;" x="230.4" xlink:href="#m454c74a92e" y="184.963995"/>
     <use style="fill-opacity:0;stroke:#000000;" x="230.4" xlink:href="#m454c74a92e" y="135.603405"/>
     <use style="fill-opacity:0;stroke:#000000;" x="230.4" xlink:href="#m454c74a92e" y="187.524487"/>
    </g>
   </g>
   <g id="line2d_25">
    <path clip-path="url(#pe22d143978)" d="M 202.752 249.829786 
L 258.048 249.829786 
" style="fill:none;stroke:#2ca02c;stroke-linecap:square;"/>
   </g>
   <g id="patch_3">
    <path d="M 46.08 293.76 
L 46.08 34.56 
" style="fill:none;stroke:#000000;stroke-linecap:square;stroke-linejoin:miter;stroke-width:0.8;"/>
   </g>
   <g id="patch_4">
    <path d="M 414.72 293.76 
L 414.72 34.56 
" style="fill:none;stroke:#000000;stroke-linecap:square;stroke-linejoin:miter;stroke-width:0.8;"/>
   </g>
   <g id="patch_5">
    <path d="M 46.08 293.76 
L 414.72 293.76 
" style="fill:none;stroke:#000000;stroke-linecap:square;stroke-linejoin:miter;stroke-width:0.8;"/>
   </g>
   <g id="patch_6">
    <path d="M 46.08 34.56 
L 414.72 34.56 
" style="fill:none;stroke:#000000;stroke-linecap:square;stroke-linejoin:miter;stroke-width:0.8;"/>
   </g>
   <g id="text_11">
    <!-- Anzahl der Wörter TAZ -->
    <g transform="translate(162.867188 28.56)scale(0.12 -0.12)">
     <defs>
      <path d="M 5.515625 54.6875 
L 48.1875 54.6875 
L 48.1875 46.484375 
L 14.40625 7.171875 
L 48.1875 7.171875 
L 48.1875 0 
L 4.296875 0 
L 4.296875 8.203125 
L 38.09375 47.515625 
L 5.515625 47.515625 
z
" id="DejaVuSans-122"/>
      <path d="M 34.28125 27.484375 
Q 23.390625 27.484375 19.1875 25 
Q 14.984375 22.515625 14.984375 16.5 
Q 14.984375 11.71875 18.140625 8.90625 
Q 21.296875 6.109375 26.703125 6.109375 
Q 34.1875 6.109375 38.703125 11.40625 
Q 43.21875 16.703125 43.21875 25.484375 
L 43.21875 27.484375 
z
M 52.203125 31.203125 
L 52.203125 0 
L 43.21875 0 
L 43.21875 8.296875 
Q 40.140625 3.328125 35.546875 0.953125 
Q 30.953125 -1.421875 24.3125 -1.421875 
Q 15.921875 -1.421875 10.953125 3.296875 
Q 6 8.015625 6 15.921875 
Q 6 25.140625 12.171875 29.828125 
Q 18.359375 34.515625 30.609375 34.515625 
L 43.21875 34.515625 
L 43.21875 35.40625 
Q 43.21875 41.609375 39.140625 45 
Q 35.0625 48.390625 27.6875 48.390625 
Q 23 48.390625 18.546875 47.265625 
Q 14.109375 46.140625 10.015625 43.890625 
L 10.015625 52.203125 
Q 14.9375 54.109375 19.578125 55.046875 
Q 24.21875 56 28.609375 56 
Q 40.484375 56 46.34375 49.84375 
Q 52.203125 43.703125 52.203125 31.203125 
z
" id="DejaVuSans-97"/>
      <path d="M 54.890625 33.015625 
L 54.890625 0 
L 45.90625 0 
L 45.90625 32.71875 
Q 45.90625 40.484375 42.875 44.328125 
Q 39.84375 48.1875 33.796875 48.1875 
Q 26.515625 48.1875 22.3125 43.546875 
Q 18.109375 38.921875 18.109375 30.90625 
L 18.109375 0 
L 9.078125 0 
L 9.078125 75.984375 
L 18.109375 75.984375 
L 18.109375 46.1875 
Q 21.34375 51.125 25.703125 53.5625 
Q 30.078125 56 35.796875 56 
Q 45.21875 56 50.046875 50.171875 
Q 54.890625 44.34375 54.890625 33.015625 
z
" id="DejaVuSans-104"/>
      <path d="M 9.421875 75.984375 
L 18.40625 75.984375 
L 18.40625 0 
L 9.421875 0 
z
" id="DejaVuSans-108"/>
      <path id="DejaVuSans-32"/>
      <path d="M 45.40625 46.390625 
L 45.40625 75.984375 
L 54.390625 75.984375 
L 54.390625 0 
L 45.40625 0 
L 45.40625 8.203125 
Q 42.578125 3.328125 38.25 0.953125 
Q 33.9375 -1.421875 27.875 -1.421875 
Q 17.96875 -1.421875 11.734375 6.484375 
Q 5.515625 14.40625 5.515625 27.296875 
Q 5.515625 40.1875 11.734375 48.09375 
Q 17.96875 56 27.875 56 
Q 33.9375 56 38.25 53.625 
Q 42.578125 51.265625 45.40625 46.390625 
z
M 14.796875 27.296875 
Q 14.796875 17.390625 18.875 11.75 
Q 22.953125 6.109375 30.078125 6.109375 
Q 37.203125 6.109375 41.296875 11.75 
Q 45.40625 17.390625 45.40625 27.296875 
Q 45.40625 37.203125 41.296875 42.84375 
Q 37.203125 48.484375 30.078125 48.484375 
Q 22.953125 48.484375 18.875 42.84375 
Q 14.796875 37.203125 14.796875 27.296875 
z
" id="DejaVuSans-100"/>
      <path d="M 41.109375 46.296875 
Q 39.59375 47.171875 37.8125 47.578125 
Q 36.03125 48 33.890625 48 
Q 26.265625 48 22.1875 43.046875 
Q 18.109375 38.09375 18.109375 28.8125 
L 18.109375 0 
L 9.078125 0 
L 9.078125 54.6875 
L 18.109375 54.6875 
L 18.109375 46.1875 
Q 20.953125 51.171875 25.484375 53.578125 
Q 30.03125 56 36.53125 56 
Q 37.453125 56 38.578125 55.875 
Q 39.703125 55.765625 41.0625 55.515625 
z
" id="DejaVuSans-114"/>
      <path d="M 3.328125 72.90625 
L 13.28125 72.90625 
L 28.609375 11.28125 
L 43.890625 72.90625 
L 54.984375 72.90625 
L 70.3125 11.28125 
L 85.59375 72.90625 
L 95.609375 72.90625 
L 77.296875 0 
L 64.890625 0 
L 49.515625 63.28125 
L 33.984375 0 
L 21.578125 0 
z
" id="DejaVuSans-87"/>
      <path d="M 30.609375 48.390625 
Q 23.390625 48.390625 19.1875 42.75 
Q 14.984375 37.109375 14.984375 27.296875 
Q 14.984375 17.484375 19.15625 11.84375 
Q 23.34375 6.203125 30.609375 6.203125 
Q 37.796875 6.203125 41.984375 11.859375 
Q 46.1875 17.53125 46.1875 27.296875 
Q 46.1875 37.015625 41.984375 42.703125 
Q 37.796875 48.390625 30.609375 48.390625 
z
M 30.609375 56 
Q 42.328125 56 49.015625 48.375 
Q 55.71875 40.765625 55.71875 27.296875 
Q 55.71875 13.875 49.015625 6.21875 
Q 42.328125 -1.421875 30.609375 -1.421875 
Q 18.84375 -1.421875 12.171875 6.21875 
Q 5.515625 13.875 5.515625 27.296875 
Q 5.515625 40.765625 12.171875 48.375 
Q 18.84375 56 30.609375 56 
z
M 35.21875 75.78125 
L 45.125 75.78125 
L 45.125 65.921875 
L 35.21875 65.921875 
z
M 16.125 75.78125 
L 26.03125 75.78125 
L 26.03125 65.921875 
L 16.125 65.921875 
z
" id="DejaVuSans-246"/>
     </defs>
     <use xlink:href="#DejaVuSans-65"/>
     <use x="68.408203" xlink:href="#DejaVuSans-110"/>
     <use x="131.787109" xlink:href="#DejaVuSans-122"/>
     <use x="184.277344" xlink:href="#DejaVuSans-97"/>
     <use x="245.556641" xlink:href="#DejaVuSans-104"/>
     <use x="308.935547" xlink:href="#DejaVuSans-108"/>
     <use x="336.71875" xlink:href="#DejaVuSans-32"/>
     <use x="368.505859" xlink:href="#DejaVuSans-100"/>
     <use x="431.982422" xlink:href="#DejaVuSans-101"/>
     <use x="493.505859" xlink:href="#DejaVuSans-114"/>
     <use x="534.619141" xlink:href="#DejaVuSans-32"/>
     <use x="566.40625" xlink:href="#DejaVuSans-87"/>
     <use x="659.408203" xlink:href="#DejaVuSans-246"/>
     <use x="720.589844" xlink:href="#DejaVuSans-114"/>
     <use x="761.703125" xlink:href="#DejaVuSans-116"/>
     <use x="800.912109" xlink:href="#DejaVuSans-101"/>
     <use x="862.435547" xlink:href="#DejaVuSans-114"/>
     <use x="903.548828" xlink:href="#DejaVuSans-32"/>
     <use x="935.335938" xlink:href="#DejaVuSans-84"/>
     <use x="988.669922" xlink:href="#DejaVuSans-65"/>
     <use x="1057.078125" xlink:href="#DejaVuSans-90"/>
    </g>
   </g>
  </g>
 </g>
 <defs>
  <clipPath id="pe22d143978">
   <rect height="259.2" width="368.64" x="46.08" y="34.56"/>
  </clipPath>
 </defs>
</svg>
